{"glyphs":{"0":{"ha":663,"x_min":51,"x_max":611,"o":"m 333 -18 q 188 19 253 -18 q 88 123 124 57 q 51 272 51 189 q 88 418 51 354 q 188 518 124 482 q 335 554 253 554 q 478 517 415 554 q 576 415 540 481 q 611 268 611 350 q 576 121 611 186 q 477 19 540 56 q 333 -18 414 -18 m 349 -1 q 483 67 438 -1 q 528 251 528 135 q 468 464 528 390 q 319 538 408 538 q 183 467 232 538 q 133 283 133 396 q 160 138 133 203 q 235 35 186 72 q 349 -1 283 -1 z "},"1":{"ha":461,"x_min":68,"x_max":429,"o":"m 81 0 q 78 8 78 0 q 81 17 78 17 q 170 24 142 17 q 210 51 199 32 q 221 113 221 71 l 221 374 q 214 452 221 431 q 185 474 207 474 q 81 438 157 474 l 78 436 q 71 443 74 436 q 74 451 68 450 l 272 549 q 276 550 274 550 q 283 547 281 550 q 286 539 286 543 l 286 113 q 296 50 286 69 q 334 24 306 31 q 425 17 363 17 q 429 8 429 17 q 425 0 429 0 q 354 1 381 0 l 253 3 l 154 1 q 81 0 128 0 z "},"2":{"ha":558,"x_min":47,"x_max":517,"o":"m 51 17 q 244 178 175 113 q 344 296 313 243 q 375 400 375 349 q 339 492 375 458 q 247 526 303 526 q 150 484 192 526 q 86 358 108 442 q 81 357 86 357 q 69 363 68 357 l 122 567 q 128 569 122 569 q 135 567 132 569 q 138 564 139 565 q 136 550 136 558 q 157 528 136 528 q 199 538 169 528 q 246 549 219 543 q 297 554 272 554 q 408 516 367 554 q 449 415 449 478 q 420 321 449 368 q 328 214 392 274 q 150 67 264 154 q 147 60 144 63 q 156 57 149 57 q 378 62 318 57 q 464 85 439 67 q 500 153 489 104 q 509 155 501 156 q 517 151 517 154 l 497 15 q 494 5 497 10 q 485 0 490 0 l 61 0 q 51 6 56 0 q 51 17 47 11 z "},"3":{"ha":539,"x_min":46,"x_max":479,"o":"m 293 181 q 431 119 383 174 q 479 -11 479 64 q 435 -152 479 -81 q 303 -285 392 -224 q 83 -382 214 -347 q 74 -376 78 -383 q 76 -367 71 -368 q 319 -222 246 -318 q 393 -26 393 -126 q 356 99 393 47 q 236 151 318 151 q 165 143 197 151 q 158 150 161 142 q 161 160 156 158 q 317 238 272 188 q 363 372 363 288 q 331 485 363 443 q 232 526 299 526 q 129 486 171 526 q 64 358 88 446 q 58 357 63 357 q 47 363 46 357 l 99 565 q 104 568 101 568 q 113 566 108 568 q 115 563 117 564 q 113 547 113 551 q 136 524 113 524 q 178 535 151 524 q 229 549 207 544 q 278 554 251 554 q 396 508 353 554 q 439 396 439 461 q 400 269 439 329 q 293 181 361 210 z "},"4":{"ha":625,"x_min":24,"x_max":579,"o":"m 572 60 q 577 51 575 60 q 579 31 579 42 q 577 10 579 19 q 572 1 575 1 q 449 7 526 4 l 449 -219 q 438 -239 449 -235 l 393 -261 q 385 -264 385 -264 q 381 -253 381 -264 l 381 8 q 39 11 293 11 q 28 17 32 11 q 29 28 24 22 l 428 550 q 436 553 431 553 q 444 551 440 553 q 449 544 449 549 l 449 57 q 572 60 483 57 m 103 51 q 381 54 228 51 l 381 433 l 96 61 q 94 54 92 57 q 103 51 96 51 z "},"5":{"ha":568,"x_min":79,"x_max":496,"o":"m 165 465 q 144 444 147 465 l 114 272 q 395 202 306 271 q 485 13 485 133 q 445 -131 485 -67 q 320 -256 406 -196 q 94 -382 235 -317 l 93 -382 q 84 -376 88 -382 q 86 -367 81 -369 q 334 -196 263 -282 q 406 -11 406 -110 q 325 168 406 104 q 94 232 244 232 q 83 237 88 232 q 81 249 79 242 l 125 496 q 129 508 126 506 q 143 511 132 510 q 378 540 318 532 q 455 558 438 549 q 479 588 472 567 q 488 591 481 592 q 494 585 496 590 l 467 496 q 453 475 461 479 q 428 471 446 471 l 165 465 z "},"6":{"ha":646,"x_min":68,"x_max":594,"o":"m 411 392 q 550 342 506 392 q 594 221 594 293 q 558 101 594 156 q 458 14 521 46 q 319 -18 394 -18 q 135 63 203 -18 q 68 289 68 143 q 126 543 68 418 q 295 767 185 668 q 556 918 406 867 q 564 913 561 919 q 563 903 567 906 q 333 747 428 843 q 192 537 239 650 q 144 314 144 424 q 202 94 144 182 q 358 7 260 7 q 474 55 431 7 q 518 185 518 103 q 481 309 518 261 q 371 357 443 357 q 299 341 332 357 q 222 286 265 325 q 218 285 221 285 q 210 289 214 285 q 208 296 207 293 q 411 392 285 392 z "},"7":{"ha":596,"x_min":35,"x_max":546,"o":"m 221 -306 q 205 -329 215 -321 q 192 -339 194 -337 l 133 -382 q 126 -379 131 -383 q 124 -372 122 -375 l 496 469 q 489 479 500 479 q 200 474 281 479 q 92 450 119 468 q 51 385 65 432 q 46 382 51 382 q 38 384 42 382 q 36 389 35 386 l 81 574 q 90 576 82 576 q 97 572 99 575 q 96 558 96 567 q 109 540 96 544 q 163 536 122 536 l 531 536 q 541 530 536 536 q 543 518 546 524 l 221 -306 z "},"8":{"ha":679,"x_min":68,"x_max":626,"o":"m 408 476 q 522 408 478 439 q 597 332 567 378 q 626 224 626 286 q 587 100 626 156 q 481 13 547 44 q 336 -18 415 -18 q 196 13 257 -18 q 101 97 135 44 q 68 207 68 149 q 131 362 68 289 q 278 472 193 435 q 179 544 214 507 q 144 633 144 581 q 178 723 144 686 q 261 778 211 760 q 363 797 311 797 q 456 776 415 797 q 519 721 497 754 q 540 654 540 688 q 504 565 540 614 q 408 476 468 517 m 210 671 q 234 597 210 629 q 295 540 258 564 q 394 483 332 515 q 453 556 435 519 q 471 639 471 593 q 430 735 471 693 q 338 776 389 776 q 244 749 278 776 q 210 671 210 721 m 375 6 q 506 53 454 6 q 558 183 558 100 q 526 298 558 250 q 449 376 494 346 q 329 446 403 407 l 296 463 q 185 372 224 429 q 146 243 146 315 q 175 127 146 182 q 257 39 204 72 q 375 6 310 6 z "},"9":{"ha":646,"x_min":51,"x_max":578,"o":"m 250 144 q 138 174 182 144 q 72 247 93 203 q 51 339 51 292 q 85 450 51 401 q 176 526 118 499 q 303 554 233 554 q 448 513 386 554 q 544 399 510 472 q 578 228 578 325 q 519 -22 578 101 q 351 -240 461 -144 q 90 -382 240 -336 q 83 -376 86 -383 q 85 -367 79 -369 q 313 -220 218 -314 q 454 -16 407 -126 q 501 200 501 94 q 478 351 501 275 q 406 478 456 426 q 279 529 356 529 q 169 485 210 529 q 128 364 128 442 q 169 232 128 285 q 289 179 211 179 q 357 191 328 179 q 424 233 386 203 q 428 235 425 235 q 436 231 432 235 q 439 224 440 226 q 250 144 368 144 z "},"\u0000":{"ha":0,"x_min":0,"x_max":0,"o":""},"\r":{"ha":325,"x_min":0,"x_max":0,"o":""}," ":{"ha":325,"x_min":0,"x_max":0,"o":""},"A":{"ha":899,"x_min":-17,"x_max":903,"o":"m 899 17 q 903 8 903 17 q 899 0 903 0 q 829 3 876 0 q 746 6 776 6 q 668 3 715 6 q 601 0 624 0 q 596 8 596 0 q 601 17 596 17 q 675 26 654 17 q 696 61 696 36 q 683 117 696 82 l 557 471 l 321 471 l 204 185 q 178 81 178 118 q 203 30 178 43 q 281 17 228 17 q 286 8 286 17 q 279 0 286 0 q 215 3 263 0 q 131 6 160 6 q 53 3 97 6 q -11 0 14 0 q -17 8 -17 0 q -11 17 -17 17 q 154 167 90 17 l 457 882 q 469 888 460 888 q 486 881 482 888 l 758 117 q 788 55 774 75 q 826 26 801 35 q 899 17 851 17 m 332 497 l 547 497 l 447 778 l 332 497 z "},"Á":{"ha":899,"x_min":-17,"x_max":903,"o":"m 899 17 q 903 8 903 17 q 899 0 903 0 q 829 3 876 0 q 746 6 776 6 q 668 3 715 6 q 601 0 624 0 q 596 8 596 0 q 601 17 596 17 q 675 26 654 17 q 696 61 696 36 q 683 117 696 82 l 557 471 l 321 471 l 204 185 q 178 81 178 118 q 203 30 178 43 q 281 17 228 17 q 286 8 286 17 q 279 0 286 0 q 215 3 263 0 q 131 6 160 6 q 53 3 97 6 q -11 0 14 0 q -17 8 -17 0 q -11 17 -17 17 q 154 167 90 17 l 457 882 q 469 888 460 888 q 486 881 482 888 l 758 117 q 788 55 774 75 q 826 26 801 35 q 899 17 851 17 m 332 497 l 547 497 l 447 778 l 332 497 m 385 942 q 376 948 379 942 q 378 957 374 954 q 536 1050 433 985 q 593 1086 565 1071 q 624 1081 599 1089 q 667 1062 649 1072 q 676 1050 686 1051 q 388 943 528 1011 l 385 942 z "},"Ă":{"ha":899,"x_min":-17,"x_max":903,"o":"m 899 17 q 903 8 903 17 q 899 0 903 0 q 829 3 876 0 q 746 6 776 6 q 668 3 715 6 q 601 0 624 0 q 596 8 596 0 q 601 17 596 17 q 675 26 654 17 q 696 61 696 36 q 683 117 696 82 l 557 471 l 321 471 l 204 185 q 178 81 178 118 q 203 30 178 43 q 281 17 228 17 q 286 8 286 17 q 279 0 286 0 q 215 3 263 0 q 131 6 160 6 q 53 3 97 6 q -11 0 14 0 q -17 8 -17 0 q -11 17 -17 17 q 154 167 90 17 l 457 882 q 469 888 460 888 q 486 881 482 888 l 758 117 q 788 55 774 75 q 826 26 801 35 q 899 17 851 17 m 332 497 l 547 497 l 447 778 l 332 497 m 457 924 q 376 955 413 924 q 329 1042 340 986 q 344 1057 328 1050 q 374 1064 360 1064 q 385 1060 385 1064 q 423 992 397 1015 q 481 968 449 968 q 537 990 511 968 q 575 1054 563 1013 q 582 1058 576 1058 q 594 1056 588 1058 q 600 1050 600 1053 q 543 956 583 989 q 457 924 503 924 z "},"Ắ":{"ha":899,"x_min":-17,"x_max":903,"o":"m 899 17 q 903 8 903 17 q 899 0 903 0 q 829 3 876 0 q 746 6 776 6 q 668 3 715 6 q 601 0 624 0 q 596 8 596 0 q 601 17 596 17 q 675 26 654 17 q 696 61 696 36 q 683 117 696 82 l 557 471 l 321 471 l 204 185 q 178 81 178 118 q 203 30 178 43 q 281 17 228 17 q 286 8 286 17 q 279 0 286 0 q 215 3 263 0 q 131 6 160 6 q 53 3 97 6 q -11 0 14 0 q -17 8 -17 0 q -11 17 -17 17 q 154 167 90 17 l 457 882 q 469 888 460 888 q 486 881 482 888 l 758 117 q 788 55 774 75 q 826 26 801 35 q 899 17 851 17 m 332 497 l 547 497 l 447 778 l 332 497 m 454 924 q 374 955 410 924 q 326 1042 338 986 q 341 1057 325 1050 q 371 1064 357 1064 q 382 1060 382 1064 q 420 992 394 1015 q 478 968 446 968 q 534 990 508 968 q 572 1054 560 1013 q 579 1058 574 1058 q 591 1056 585 1058 q 597 1050 597 1053 q 540 956 581 989 q 454 924 500 924 m 460 1043 q 456 1042 458 1042 q 449 1047 451 1042 q 450 1054 447 1051 q 563 1186 508 1110 q 590 1182 567 1190 q 631 1163 613 1174 q 639 1150 649 1151 q 548 1104 589 1129 q 460 1043 507 1079 z "},"Ặ":{"ha":899,"x_min":-17,"x_max":903,"o":"m 899 17 q 903 8 903 17 q 899 0 903 0 q 829 3 876 0 q 746 6 776 6 q 668 3 715 6 q 601 0 624 0 q 596 8 596 0 q 601 17 596 17 q 675 26 654 17 q 696 61 696 36 q 683 117 696 82 l 557 471 l 321 471 l 204 185 q 178 81 178 118 q 203 30 178 43 q 281 17 228 17 q 286 8 286 17 q 279 0 286 0 q 215 3 263 0 q 131 6 160 6 q 53 3 97 6 q -11 0 14 0 q -17 8 -17 0 q -11 17 -17 17 q 154 167 90 17 l 457 882 q 469 888 460 888 q 486 881 482 888 l 758 117 q 788 55 774 75 q 826 26 801 35 q 899 17 851 17 m 332 497 l 547 497 l 447 778 l 332 497 m 464 -257 q 423 -243 438 -257 q 408 -203 408 -229 q 423 -165 408 -179 q 464 -151 438 -151 q 503 -165 489 -151 q 517 -203 517 -179 q 503 -243 517 -229 q 464 -257 489 -257 m 457 924 q 376 955 413 924 q 329 1042 340 986 q 344 1057 328 1050 q 374 1064 360 1064 q 385 1060 385 1064 q 423 992 397 1015 q 481 968 449 968 q 537 990 511 968 q 575 1054 563 1013 q 582 1058 576 1058 q 594 1056 588 1058 q 600 1050 600 1053 q 543 956 583 989 q 457 924 503 924 z "},"Ằ":{"ha":899,"x_min":-17,"x_max":903,"o":"m 899 17 q 903 8 903 17 q 899 0 903 0 q 829 3 876 0 q 746 6 776 6 q 668 3 715 6 q 601 0 624 0 q 596 8 596 0 q 601 17 596 17 q 675 26 654 17 q 696 61 696 36 q 683 117 696 82 l 557 471 l 321 471 l 204 185 q 178 81 178 118 q 203 30 178 43 q 281 17 228 17 q 286 8 286 17 q 279 0 286 0 q 215 3 263 0 q 131 6 160 6 q 53 3 97 6 q -11 0 14 0 q -17 8 -17 0 q -11 17 -17 17 q 154 167 90 17 l 457 882 q 469 888 460 888 q 486 881 482 888 l 758 117 q 788 55 774 75 q 826 26 801 35 q 899 17 851 17 m 332 497 l 547 497 l 447 778 l 332 497 m 460 924 q 379 955 415 924 q 332 1042 343 986 q 347 1057 331 1050 q 376 1064 363 1064 q 388 1060 388 1064 q 426 992 400 1015 q 483 968 451 968 q 540 990 514 968 q 578 1054 565 1013 q 585 1058 579 1058 q 597 1056 590 1058 q 603 1050 603 1053 q 546 956 586 989 q 460 924 506 924 m 514 1043 q 335 1150 421 1113 q 343 1163 325 1151 q 384 1182 361 1174 q 411 1186 407 1190 q 524 1056 457 1122 q 525 1050 525 1054 q 522 1044 525 1046 q 514 1043 518 1042 z "},"Ẳ":{"ha":899,"x_min":-17,"x_max":903,"o":"m 899 17 q 903 8 903 17 q 899 0 903 0 q 829 3 876 0 q 746 6 776 6 q 668 3 715 6 q 601 0 624 0 q 596 8 596 0 q 601 17 596 17 q 675 26 654 17 q 696 61 696 36 q 683 117 696 82 l 557 471 l 321 471 l 204 185 q 178 81 178 118 q 203 30 178 43 q 281 17 228 17 q 286 8 286 17 q 279 0 286 0 q 215 3 263 0 q 131 6 160 6 q 53 3 97 6 q -11 0 14 0 q -17 8 -17 0 q -11 17 -17 17 q 154 167 90 17 l 457 882 q 469 888 460 888 q 486 881 482 888 l 758 117 q 788 55 774 75 q 826 26 801 35 q 899 17 851 17 m 332 497 l 547 497 l 447 778 l 332 497 m 453 924 q 372 955 408 924 q 325 1042 336 986 q 340 1057 324 1050 q 369 1064 356 1064 q 381 1060 381 1064 q 419 992 393 1015 q 476 968 444 968 q 533 990 507 968 q 571 1054 558 1013 q 578 1058 572 1058 q 590 1056 583 1058 q 596 1050 596 1053 q 539 956 579 989 q 453 924 499 924 m 464 1032 q 461 1050 461 1039 q 482 1101 461 1071 q 499 1130 493 1118 q 504 1156 504 1142 q 489 1188 504 1176 q 456 1200 474 1200 q 422 1192 439 1200 l 421 1192 q 411 1197 415 1192 q 411 1203 407 1201 q 456 1222 432 1215 q 496 1229 479 1229 q 541 1212 525 1229 q 557 1171 557 1194 q 546 1134 557 1150 q 514 1097 535 1118 q 484 1063 493 1078 q 479 1032 475 1049 q 473 1029 481 1029 q 464 1032 465 1029 z "},"Ẵ":{"ha":899,"x_min":-17,"x_max":903,"o":"m 899 17 q 903 8 903 17 q 899 0 903 0 q 829 3 876 0 q 746 6 776 6 q 668 3 715 6 q 601 0 624 0 q 596 8 596 0 q 601 17 596 17 q 675 26 654 17 q 696 61 696 36 q 683 117 696 82 l 557 471 l 321 471 l 204 185 q 178 81 178 118 q 203 30 178 43 q 281 17 228 17 q 286 8 286 17 q 279 0 286 0 q 215 3 263 0 q 131 6 160 6 q 53 3 97 6 q -11 0 14 0 q -17 8 -17 0 q -11 17 -17 17 q 154 167 90 17 l 457 882 q 469 888 460 888 q 486 881 482 888 l 758 117 q 788 55 774 75 q 826 26 801 35 q 899 17 851 17 m 332 497 l 547 497 l 447 778 l 332 497 m 450 924 q 369 955 406 924 q 322 1042 333 986 q 337 1057 321 1050 q 367 1064 353 1064 q 378 1060 378 1064 q 416 992 390 1015 q 474 968 442 968 q 530 990 504 968 q 568 1054 556 1013 q 575 1058 569 1058 q 587 1056 581 1058 q 593 1050 593 1053 q 536 956 576 989 q 450 924 496 924 m 299 1108 q 290 1112 294 1108 q 289 1118 286 1115 q 390 1199 336 1199 q 465 1183 414 1199 q 572 1164 532 1164 q 608 1173 596 1164 q 635 1201 619 1182 l 636 1201 q 643 1198 639 1201 q 646 1192 647 1194 q 598 1128 618 1144 q 551 1113 578 1113 q 499 1119 526 1113 q 464 1128 471 1126 q 361 1146 404 1146 q 328 1138 339 1146 q 310 1121 317 1131 q 300 1108 303 1111 l 299 1108 z "},"Ǎ":{"ha":899,"x_min":-17,"x_max":903,"o":"m 899 17 q 903 8 903 17 q 899 0 903 0 q 829 3 876 0 q 746 6 776 6 q 668 3 715 6 q 601 0 624 0 q 596 8 596 0 q 601 17 596 17 q 675 26 654 17 q 696 61 696 36 q 683 117 696 82 l 557 471 l 321 471 l 204 185 q 178 81 178 118 q 203 30 178 43 q 281 17 228 17 q 286 8 286 17 q 279 0 286 0 q 215 3 263 0 q 131 6 160 6 q 53 3 97 6 q -11 0 14 0 q -17 8 -17 0 q -11 17 -17 17 q 154 167 90 17 l 457 882 q 469 888 460 888 q 486 881 482 888 l 758 117 q 788 55 774 75 q 826 26 801 35 q 899 17 851 17 m 332 497 l 547 497 l 447 778 l 332 497 m 331 1067 l 331 1068 q 334 1074 331 1071 q 339 1076 338 1078 l 469 990 l 592 1078 l 593 1078 q 600 1073 596 1078 q 601 1067 604 1068 l 479 938 q 467 932 475 932 q 453 938 458 932 l 331 1067 z "},"Â":{"ha":899,"x_min":-17,"x_max":903,"o":"m 899 17 q 903 8 903 17 q 899 0 903 0 q 829 3 876 0 q 746 6 776 6 q 668 3 715 6 q 601 0 624 0 q 596 8 596 0 q 601 17 596 17 q 675 26 654 17 q 696 61 696 36 q 683 117 696 82 l 557 471 l 321 471 l 204 185 q 178 81 178 118 q 203 30 178 43 q 281 17 228 17 q 286 8 286 17 q 279 0 286 0 q 215 3 263 0 q 131 6 160 6 q 53 3 97 6 q -11 0 14 0 q -17 8 -17 0 q -11 17 -17 17 q 154 167 90 17 l 457 882 q 469 888 460 888 q 486 881 482 888 l 758 117 q 788 55 774 75 q 826 26 801 35 q 899 17 851 17 m 332 497 l 547 497 l 447 778 l 332 497 m 346 917 q 338 920 342 917 q 338 926 335 924 l 460 1054 q 472 1061 464 1061 q 486 1054 479 1061 l 608 926 l 608 924 q 606 917 608 919 q 600 917 603 914 l 468 1003 l 347 917 l 346 917 z "},"Ấ":{"ha":899,"x_min":-17,"x_max":903,"o":"m 899 17 q 903 8 903 17 q 899 0 903 0 q 829 3 876 0 q 746 6 776 6 q 668 3 715 6 q 601 0 624 0 q 596 8 596 0 q 601 17 596 17 q 675 26 654 17 q 696 61 696 36 q 683 117 696 82 l 557 471 l 321 471 l 204 185 q 178 81 178 118 q 203 30 178 43 q 281 17 228 17 q 286 8 286 17 q 279 0 286 0 q 215 3 263 0 q 131 6 160 6 q 53 3 97 6 q -11 0 14 0 q -17 8 -17 0 q -11 17 -17 17 q 154 167 90 17 l 457 882 q 469 888 460 888 q 486 881 482 888 l 758 117 q 788 55 774 75 q 826 26 801 35 q 899 17 851 17 m 332 497 l 547 497 l 447 778 l 332 497 m 346 917 q 338 920 342 917 q 338 926 335 924 l 460 1054 q 472 1061 464 1061 q 486 1054 479 1061 l 608 926 l 608 924 q 606 917 608 919 q 600 917 603 914 l 468 1003 l 347 917 l 346 917 m 561 1013 q 557 1011 560 1011 q 551 1016 553 1011 q 551 1024 549 1021 q 664 1156 610 1079 q 691 1151 668 1160 q 732 1132 714 1143 q 740 1119 750 1121 q 649 1074 690 1099 q 561 1013 608 1049 z "},"Ậ":{"ha":899,"x_min":-17,"x_max":903,"o":"m 899 17 q 903 8 903 17 q 899 0 903 0 q 829 3 876 0 q 746 6 776 6 q 668 3 715 6 q 601 0 624 0 q 596 8 596 0 q 601 17 596 17 q 675 26 654 17 q 696 61 696 36 q 683 117 696 82 l 557 471 l 321 471 l 204 185 q 178 81 178 118 q 203 30 178 43 q 281 17 228 17 q 286 8 286 17 q 279 0 286 0 q 215 3 263 0 q 131 6 160 6 q 53 3 97 6 q -11 0 14 0 q -17 8 -17 0 q -11 17 -17 17 q 154 167 90 17 l 457 882 q 469 888 460 888 q 486 881 482 888 l 758 117 q 788 55 774 75 q 826 26 801 35 q 899 17 851 17 m 332 497 l 547 497 l 447 778 l 332 497 m 464 -257 q 423 -243 438 -257 q 408 -203 408 -229 q 423 -165 408 -179 q 464 -151 438 -151 q 503 -165 489 -151 q 517 -203 517 -179 q 503 -243 517 -229 q 464 -257 489 -257 m 346 917 q 338 920 342 917 q 338 926 335 924 l 460 1054 q 472 1061 464 1061 q 486 1054 479 1061 l 608 926 l 608 924 q 606 917 608 919 q 600 917 603 914 l 468 1003 l 347 917 l 346 917 z "},"Ầ":{"ha":899,"x_min":-17,"x_max":903,"o":"m 899 17 q 903 8 903 17 q 899 0 903 0 q 829 3 876 0 q 746 6 776 6 q 668 3 715 6 q 601 0 624 0 q 596 8 596 0 q 601 17 596 17 q 675 26 654 17 q 696 61 696 36 q 683 117 696 82 l 557 471 l 321 471 l 204 185 q 178 81 178 118 q 203 30 178 43 q 281 17 228 17 q 286 8 286 17 q 279 0 286 0 q 215 3 263 0 q 131 6 160 6 q 53 3 97 6 q -11 0 14 0 q -17 8 -17 0 q -11 17 -17 17 q 154 167 90 17 l 457 882 q 469 888 460 888 q 486 881 482 888 l 758 117 q 788 55 774 75 q 826 26 801 35 q 899 17 851 17 m 332 497 l 547 497 l 447 778 l 332 497 m 346 917 q 338 920 342 917 q 338 926 335 924 l 460 1054 q 472 1061 464 1061 q 486 1054 479 1061 l 608 926 l 608 924 q 606 917 608 919 q 600 917 603 914 l 468 1003 l 347 917 l 346 917 m 671 976 q 492 1083 578 1046 q 500 1096 482 1085 q 541 1115 518 1107 q 568 1119 564 1124 q 681 989 614 1056 q 682 983 682 988 q 678 977 682 979 q 671 976 675 975 z "},"Ẩ":{"ha":899,"x_min":-17,"x_max":903,"o":"m 899 17 q 903 8 903 17 q 899 0 903 0 q 829 3 876 0 q 746 6 776 6 q 668 3 715 6 q 601 0 624 0 q 596 8 596 0 q 601 17 596 17 q 675 26 654 17 q 696 61 696 36 q 683 117 696 82 l 557 471 l 321 471 l 204 185 q 178 81 178 118 q 203 30 178 43 q 281 17 228 17 q 286 8 286 17 q 279 0 286 0 q 215 3 263 0 q 131 6 160 6 q 53 3 97 6 q -11 0 14 0 q -17 8 -17 0 q -11 17 -17 17 q 154 167 90 17 l 457 882 q 469 888 460 888 q 486 881 482 888 l 758 117 q 788 55 774 75 q 826 26 801 35 q 899 17 851 17 m 332 497 l 547 497 l 447 778 l 332 497 m 346 900 q 338 903 342 900 q 338 910 335 907 l 460 1038 q 472 1044 464 1044 q 486 1038 479 1044 l 608 910 l 608 907 q 606 900 608 903 q 600 900 603 897 l 468 986 l 347 900 l 346 900 m 567 985 q 564 1003 564 992 q 585 1054 564 1024 q 601 1083 596 1071 q 607 1108 607 1094 q 592 1141 607 1129 q 558 1153 576 1153 q 525 1144 542 1153 l 524 1144 q 514 1149 518 1144 q 514 1156 510 1154 q 558 1175 535 1168 q 599 1182 582 1182 q 644 1165 628 1182 q 660 1124 660 1147 q 649 1087 660 1103 q 617 1050 638 1071 q 587 1016 596 1031 q 582 985 578 1001 q 576 982 583 982 q 567 985 568 982 z "},"Ẫ":{"ha":899,"x_min":-17,"x_max":903,"o":"m 899 17 q 903 8 903 17 q 899 0 903 0 q 829 3 876 0 q 746 6 776 6 q 668 3 715 6 q 601 0 624 0 q 596 8 596 0 q 601 17 596 17 q 675 26 654 17 q 696 61 696 36 q 683 117 696 82 l 557 471 l 321 471 l 204 185 q 178 81 178 118 q 203 30 178 43 q 281 17 228 17 q 286 8 286 17 q 279 0 286 0 q 215 3 263 0 q 131 6 160 6 q 53 3 97 6 q -11 0 14 0 q -17 8 -17 0 q -11 17 -17 17 q 154 167 90 17 l 457 882 q 469 888 460 888 q 486 881 482 888 l 758 117 q 788 55 774 75 q 826 26 801 35 q 899 17 851 17 m 332 497 l 547 497 l 447 778 l 332 497 m 349 917 q 341 920 344 917 q 340 926 338 924 l 463 1054 q 475 1061 467 1061 q 489 1054 482 1061 l 611 926 l 611 924 q 608 917 611 919 q 603 917 606 914 l 471 1003 l 350 917 l 349 917 m 319 1072 q 313 1076 317 1072 q 310 1082 308 1079 q 356 1137 329 1113 q 414 1161 382 1161 q 488 1147 435 1161 q 594 1128 551 1128 q 631 1138 618 1128 q 656 1165 643 1147 l 657 1165 q 665 1162 661 1165 q 667 1156 669 1158 q 619 1092 640 1108 q 572 1075 599 1075 q 529 1080 553 1075 q 483 1092 506 1085 q 433 1104 460 1099 q 383 1110 407 1110 q 351 1103 363 1110 q 333 1086 340 1096 q 321 1072 325 1076 l 319 1072 z "},"Ä":{"ha":899,"x_min":-17,"x_max":903,"o":"m 899 17 q 903 8 903 17 q 899 0 903 0 q 829 3 876 0 q 746 6 776 6 q 668 3 715 6 q 601 0 624 0 q 596 8 596 0 q 601 17 596 17 q 675 26 654 17 q 696 61 696 36 q 683 117 696 82 l 557 471 l 321 471 l 204 185 q 178 81 178 118 q 203 30 178 43 q 281 17 228 17 q 286 8 286 17 q 279 0 286 0 q 215 3 263 0 q 131 6 160 6 q 53 3 97 6 q -11 0 14 0 q -17 8 -17 0 q -11 17 -17 17 q 154 167 90 17 l 457 882 q 469 888 460 888 q 486 881 482 888 l 758 117 q 788 55 774 75 q 826 26 801 35 q 899 17 851 17 m 332 497 l 547 497 l 447 778 l 332 497 m 367 1000 q 326 1014 342 1000 q 311 1053 311 1028 q 326 1092 311 1078 q 367 1106 342 1106 q 407 1092 393 1106 q 421 1053 421 1078 q 407 1014 421 1028 q 367 1000 393 1000 m 574 1000 q 533 1014 547 1000 q 518 1053 518 1028 q 533 1092 518 1078 q 574 1106 547 1106 q 613 1092 599 1106 q 626 1053 626 1078 q 613 1014 626 1028 q 574 1000 599 1000 z "},"Ạ":{"ha":899,"x_min":-17,"x_max":903,"o":"m 899 17 q 903 8 903 17 q 899 0 903 0 q 829 3 876 0 q 746 6 776 6 q 668 3 715 6 q 601 0 624 0 q 596 8 596 0 q 601 17 596 17 q 675 26 654 17 q 696 61 696 36 q 683 117 696 82 l 557 471 l 321 471 l 204 185 q 178 81 178 118 q 203 30 178 43 q 281 17 228 17 q 286 8 286 17 q 279 0 286 0 q 215 3 263 0 q 131 6 160 6 q 53 3 97 6 q -11 0 14 0 q -17 8 -17 0 q -11 17 -17 17 q 154 167 90 17 l 457 882 q 469 888 460 888 q 486 881 482 888 l 758 117 q 788 55 774 75 q 826 26 801 35 q 899 17 851 17 m 332 497 l 547 497 l 447 778 l 332 497 m 464 -257 q 423 -243 438 -257 q 408 -203 408 -229 q 423 -165 408 -179 q 464 -151 438 -151 q 503 -165 489 -151 q 517 -203 517 -179 q 503 -243 517 -229 q 464 -257 489 -257 z "},"À":{"ha":899,"x_min":-17,"x_max":903,"o":"m 899 17 q 903 8 903 17 q 899 0 903 0 q 829 3 876 0 q 746 6 776 6 q 668 3 715 6 q 601 0 624 0 q 596 8 596 0 q 601 17 596 17 q 675 26 654 17 q 696 61 696 36 q 683 117 696 82 l 557 471 l 321 471 l 204 185 q 178 81 178 118 q 203 30 178 43 q 281 17 228 17 q 286 8 286 17 q 279 0 286 0 q 215 3 263 0 q 131 6 160 6 q 53 3 97 6 q -11 0 14 0 q -17 8 -17 0 q -11 17 -17 17 q 154 167 90 17 l 457 882 q 469 888 460 888 q 486 881 482 888 l 758 117 q 788 55 774 75 q 826 26 801 35 q 899 17 851 17 m 332 497 l 547 497 l 447 778 l 332 497 m 601 943 q 324 1050 461 1013 q 333 1062 314 1051 q 377 1081 351 1072 q 408 1086 403 1089 q 438 1067 428 1072 q 606 957 526 1001 q 610 951 610 956 q 607 944 610 947 q 601 943 604 942 z "},"Ả":{"ha":899,"x_min":-17,"x_max":903,"o":"m 899 17 q 903 8 903 17 q 899 0 903 0 q 829 3 876 0 q 746 6 776 6 q 668 3 715 6 q 601 0 624 0 q 596 8 596 0 q 601 17 596 17 q 675 26 654 17 q 696 61 696 36 q 683 117 696 82 l 557 471 l 321 471 l 204 185 q 178 81 178 118 q 203 30 178 43 q 281 17 228 17 q 286 8 286 17 q 279 0 286 0 q 215 3 263 0 q 131 6 160 6 q 53 3 97 6 q -11 0 14 0 q -17 8 -17 0 q -11 17 -17 17 q 154 167 90 17 l 457 882 q 469 888 460 888 q 486 881 482 888 l 758 117 q 788 55 774 75 q 826 26 801 35 q 899 17 851 17 m 332 497 l 547 497 l 447 778 l 332 497 m 476 901 q 471 899 479 899 q 460 901 463 899 q 456 928 456 917 q 464 965 456 949 q 488 1007 472 982 q 510 1044 503 1031 q 517 1076 518 1058 q 498 1118 517 1103 q 454 1133 479 1133 q 418 1126 435 1133 l 415 1125 q 408 1130 411 1125 q 410 1138 406 1135 q 494 1163 450 1163 q 558 1142 535 1163 q 581 1092 581 1122 q 567 1049 579 1067 q 525 1000 554 1031 q 487 958 500 976 q 474 918 474 939 q 476 901 474 913 z "},"Ā":{"ha":899,"x_min":-17,"x_max":903,"o":"m 899 17 q 903 8 903 17 q 899 0 903 0 q 829 3 876 0 q 746 6 776 6 q 668 3 715 6 q 601 0 624 0 q 596 8 596 0 q 601 17 596 17 q 675 26 654 17 q 696 61 696 36 q 683 117 696 82 l 557 471 l 321 471 l 204 185 q 178 81 178 118 q 203 30 178 43 q 281 17 228 17 q 286 8 286 17 q 279 0 286 0 q 215 3 263 0 q 131 6 160 6 q 53 3 97 6 q -11 0 14 0 q -17 8 -17 0 q -11 17 -17 17 q 154 167 90 17 l 457 882 q 469 888 460 888 q 486 881 482 888 l 758 117 q 788 55 774 75 q 826 26 801 35 q 899 17 851 17 m 332 497 l 547 497 l 447 778 l 332 497 m 313 999 q 308 1004 310 999 q 306 1017 306 1010 q 313 1035 306 1035 l 646 1035 q 653 1017 653 1035 q 646 999 653 999 l 313 999 z "},"Ą":{"ha":900,"x_min":-17,"x_max":907,"o":"m 899 17 q 905 8 903 17 q 901 0 907 0 q 838 1 853 0 l 807 1 q 643 -50 704 1 q 582 -183 582 -101 q 625 -299 582 -253 q 747 -344 668 -344 q 790 -340 775 -344 q 821 -325 806 -335 l 824 -325 q 830 -329 826 -325 q 832 -336 833 -333 q 772 -372 801 -361 q 706 -382 743 -382 q 576 -341 621 -382 q 531 -225 531 -300 q 553 -127 531 -168 q 621 -31 576 -86 q 668 32 653 7 q 683 85 683 57 q 678 117 683 101 l 554 471 l 326 471 l 213 185 q 182 75 182 111 q 206 28 182 40 q 281 17 231 17 q 286 8 286 17 q 279 0 286 0 q 217 3 261 0 q 133 6 161 6 q 56 3 100 6 q -11 0 14 0 q -17 8 -17 0 q -11 17 -17 17 q 81 51 35 17 q 164 167 128 85 l 457 882 q 469 888 460 888 q 486 881 482 888 l 754 133 q 788 59 771 83 q 829 26 804 35 q 899 17 854 17 m 336 497 l 544 497 l 447 776 l 336 497 z "},"Å":{"ha":899,"x_min":-17,"x_max":903,"o":"m 899 17 q 903 8 903 17 q 899 0 903 0 q 829 3 876 0 q 746 6 776 6 q 668 3 715 6 q 601 0 624 0 q 596 8 596 0 q 601 17 596 17 q 675 26 654 17 q 696 61 696 36 q 683 117 696 82 l 557 471 l 321 471 l 204 185 q 178 81 178 118 q 203 30 178 43 q 281 17 228 17 q 286 8 286 17 q 279 0 286 0 q 215 3 263 0 q 131 6 160 6 q 53 3 97 6 q -11 0 14 0 q -17 8 -17 0 q -11 17 -17 17 q 154 167 90 17 l 457 882 q 469 888 460 888 q 486 881 482 888 l 758 117 q 788 55 774 75 q 826 26 801 35 q 899 17 851 17 m 332 497 l 547 497 l 447 778 l 332 497 m 464 924 q 381 957 413 924 q 349 1035 349 990 q 389 1113 349 1085 q 478 1142 429 1142 q 559 1110 525 1142 q 593 1032 593 1078 q 553 953 593 983 q 464 924 514 924 m 486 938 q 526 954 514 938 q 539 1007 539 971 q 513 1093 539 1057 q 450 1129 488 1129 q 413 1113 424 1129 q 401 1063 401 1097 q 424 976 401 1015 q 486 938 447 938 z "},"Ǻ":{"ha":899,"x_min":-17,"x_max":903,"o":"m 899 17 q 903 8 903 17 q 899 0 903 0 q 829 3 876 0 q 746 6 776 6 q 668 3 715 6 q 601 0 624 0 q 596 8 596 0 q 601 17 596 17 q 675 26 654 17 q 696 61 696 36 q 683 117 696 82 l 557 471 l 321 471 l 204 185 q 178 81 178 118 q 203 30 178 43 q 281 17 228 17 q 286 8 286 17 q 279 0 286 0 q 215 3 263 0 q 131 6 160 6 q 53 3 97 6 q -11 0 14 0 q -17 8 -17 0 q -11 17 -17 17 q 154 167 90 17 l 457 882 q 469 888 460 888 q 486 881 482 888 l 758 117 q 788 55 774 75 q 826 26 801 35 q 899 17 851 17 m 332 497 l 547 497 l 447 778 l 332 497 m 340 1126 q 334 1133 336 1126 q 336 1140 332 1139 q 463 1203 360 1151 l 526 1236 q 555 1231 532 1239 q 595 1213 578 1224 q 603 1201 613 1203 q 343 1126 481 1176 l 340 1126 m 460 938 q 376 965 408 938 q 344 1032 344 993 q 385 1099 344 1074 q 474 1124 425 1124 q 555 1096 521 1124 q 589 1029 589 1068 q 549 963 589 988 q 460 938 510 938 m 482 951 q 522 964 510 951 q 535 1004 535 976 q 509 1078 535 1047 q 446 1110 483 1110 q 408 1098 419 1110 q 397 1060 397 1086 q 421 985 397 1018 q 482 951 444 951 z "},"Ã":{"ha":899,"x_min":-17,"x_max":903,"o":"m 899 17 q 903 8 903 17 q 899 0 903 0 q 829 3 876 0 q 746 6 776 6 q 668 3 715 6 q 601 0 624 0 q 596 8 596 0 q 601 17 596 17 q 675 26 654 17 q 696 61 696 36 q 683 117 696 82 l 557 471 l 321 471 l 204 185 q 178 81 178 118 q 203 30 178 43 q 281 17 228 17 q 286 8 286 17 q 279 0 286 0 q 215 3 263 0 q 131 6 160 6 q 53 3 97 6 q -11 0 14 0 q -17 8 -17 0 q -11 17 -17 17 q 154 167 90 17 l 457 882 q 469 888 460 888 q 486 881 482 888 l 758 117 q 788 55 774 75 q 826 26 801 35 q 899 17 851 17 m 332 497 l 547 497 l 447 778 l 332 497 m 307 968 q 299 972 303 968 q 297 978 294 975 q 399 1058 344 1058 q 474 1043 422 1058 q 581 1024 540 1024 q 616 1033 604 1024 q 643 1061 628 1042 l 644 1061 q 651 1058 647 1061 q 654 1051 656 1054 q 606 988 626 1004 q 560 972 586 972 q 507 979 535 972 q 472 988 479 986 q 369 1006 413 1006 q 336 998 347 1006 q 318 981 325 990 q 308 968 311 971 l 307 968 z "},"Æ":{"ha":1157,"x_min":-53,"x_max":1111,"o":"m 1093 204 q 1099 207 1093 207 q 1107 205 1103 207 q 1110 201 1111 203 q 1099 21 1099 104 q 1094 5 1099 10 q 1076 0 1089 0 l 504 0 q 497 8 497 0 q 504 17 497 17 q 583 24 557 17 q 620 51 610 32 q 629 113 631 71 l 613 439 l 375 439 l 203 171 q 157 69 157 103 q 261 17 157 17 q 268 8 268 17 q 261 0 268 0 q 192 3 236 0 q 101 6 139 6 q 21 3 68 6 q -46 0 -21 0 q -53 8 -53 0 q -46 17 -53 17 q 24 31 -7 17 q 87 81 54 46 q 167 183 119 115 l 561 797 q 576 831 576 821 q 553 847 576 843 q 468 851 531 851 q 461 860 461 851 q 468 868 461 868 l 1033 868 q 1044 865 1042 868 q 1046 856 1046 863 l 1051 686 q 1041 682 1050 682 q 1033 686 1032 682 q 993 804 1032 760 q 885 849 954 849 l 818 849 q 718 842 749 849 q 677 815 688 835 q 667 754 667 796 l 682 465 l 868 465 q 953 488 929 465 q 978 564 976 510 q 986 569 978 569 q 994 564 994 569 l 994 451 q 996 392 994 411 l 997 326 q 989 324 997 324 q 981 326 981 324 q 954 414 981 389 q 861 439 928 439 l 683 439 l 701 118 q 710 58 701 78 q 742 32 718 39 q 818 25 767 25 l 949 25 q 1042 74 1003 25 q 1093 204 1081 124 m 392 465 l 611 465 l 596 781 l 392 465 z "},"Ǽ":{"ha":1157,"x_min":-53,"x_max":1110,"o":"m 1093 204 q 1099 207 1093 207 q 1107 205 1103 207 q 1110 201 1111 203 q 1099 21 1099 104 q 1094 5 1099 10 q 1076 0 1089 0 l 504 0 q 497 8 497 0 q 504 17 497 17 q 583 24 557 17 q 620 51 610 32 q 629 113 631 71 l 613 439 l 375 439 l 203 171 q 157 69 157 103 q 261 17 157 17 q 268 8 268 17 q 261 0 268 0 q 192 3 236 0 q 101 6 139 6 q 21 3 68 6 q -46 0 -21 0 q -53 8 -53 0 q -46 17 -53 17 q 24 31 -7 17 q 87 81 54 46 q 167 183 119 115 l 561 797 q 576 831 576 821 q 553 847 576 843 q 468 851 531 851 q 461 860 461 851 q 468 868 461 868 l 1033 868 q 1044 865 1042 868 q 1046 856 1046 863 l 1051 686 q 1041 682 1050 682 q 1033 686 1032 682 q 993 804 1032 760 q 885 849 954 849 l 818 849 q 718 842 749 849 q 677 815 688 835 q 667 754 667 796 l 682 465 l 868 465 q 953 488 929 465 q 978 564 976 510 q 986 569 978 569 q 994 564 994 569 l 994 451 q 996 392 994 411 l 997 326 q 989 324 997 324 q 981 326 981 324 q 954 414 981 389 q 861 439 928 439 l 683 439 l 701 118 q 710 58 701 78 q 742 32 718 39 q 818 25 767 25 l 949 25 q 1042 74 1003 25 q 1093 204 1081 124 m 392 465 l 611 465 l 596 781 l 392 465 m 703 942 q 694 948 697 942 q 696 957 692 954 q 854 1050 751 985 q 911 1086 883 1071 q 942 1081 917 1089 q 985 1062 967 1072 q 994 1050 1004 1051 q 706 943 846 1011 l 703 942 z "},"Ǣ":{"ha":1157,"x_min":-53,"x_max":1110,"o":"m 1093 204 q 1099 207 1093 207 q 1107 205 1103 207 q 1110 201 1111 203 q 1099 21 1099 104 q 1094 5 1099 10 q 1076 0 1089 0 l 504 0 q 497 8 497 0 q 504 17 497 17 q 583 24 557 17 q 620 51 610 32 q 629 113 631 71 l 613 439 l 375 439 l 203 171 q 157 69 157 103 q 261 17 157 17 q 268 8 268 17 q 261 0 268 0 q 192 3 236 0 q 101 6 139 6 q 21 3 68 6 q -46 0 -21 0 q -53 8 -53 0 q -46 17 -53 17 q 24 31 -7 17 q 87 81 54 46 q 167 183 119 115 l 561 797 q 576 831 576 821 q 553 847 576 843 q 468 851 531 851 q 461 860 461 851 q 468 868 461 868 l 1033 868 q 1044 865 1042 868 q 1046 856 1046 863 l 1051 686 q 1041 682 1050 682 q 1033 686 1032 682 q 993 804 1032 760 q 885 849 954 849 l 818 849 q 718 842 749 849 q 677 815 688 835 q 667 754 667 796 l 682 465 l 868 465 q 953 488 929 465 q 978 564 976 510 q 986 569 978 569 q 994 564 994 569 l 994 451 q 996 392 994 411 l 997 326 q 989 324 997 324 q 981 326 981 324 q 954 414 981 389 q 861 439 928 439 l 683 439 l 701 118 q 710 58 701 78 q 742 32 718 39 q 818 25 767 25 l 949 25 q 1042 74 1003 25 q 1093 204 1081 124 m 392 465 l 611 465 l 596 781 l 392 465 m 631 999 q 626 1004 628 999 q 624 1017 624 1010 q 631 1035 624 1035 l 964 1035 q 971 1017 971 1035 q 964 999 971 999 l 631 999 z "},"B":{"ha":760,"x_min":57,"x_max":682,"o":"m 444 490 q 617 419 553 483 q 682 257 682 354 q 648 122 682 182 q 555 28 614 63 q 422 -6 496 -6 q 322 -1 376 -6 q 276 1 303 0 q 218 3 250 3 l 126 1 q 60 0 103 0 q 57 8 57 0 q 60 17 57 17 q 139 24 114 17 q 173 51 164 31 q 182 113 182 71 l 182 756 q 174 817 182 797 q 140 844 165 836 q 61 851 115 851 q 58 860 58 851 q 61 868 58 868 l 128 867 q 218 864 183 864 q 264 865 242 864 q 303 868 286 867 q 381 872 347 872 q 544 820 492 872 q 596 688 596 768 q 555 568 596 619 q 444 490 514 517 m 347 854 q 290 849 308 854 q 264 822 272 843 q 256 753 256 801 l 256 489 l 319 488 q 473 539 425 488 q 521 678 521 590 q 479 805 521 756 q 347 854 438 854 m 403 17 q 552 70 503 17 q 601 222 601 124 q 539 394 601 328 q 368 461 476 460 q 256 458 318 463 l 256 113 q 267 55 256 75 q 310 26 278 35 q 403 17 342 17 z "},"C":{"ha":878,"x_min":61,"x_max":828,"o":"m 529 -17 q 263 51 368 -17 q 110 223 158 118 q 61 443 61 328 q 127 670 61 569 q 302 827 193 771 q 533 883 411 883 q 670 869 603 883 q 779 832 738 856 q 793 819 790 825 q 797 799 796 814 l 814 653 q 807 646 814 647 q 799 650 800 644 q 485 854 743 854 q 306 808 382 854 q 188 676 229 761 q 147 481 147 592 q 199 239 147 349 q 339 65 250 129 q 535 0 428 0 q 700 56 626 0 q 813 222 774 111 q 821 226 814 228 q 828 221 828 225 l 813 69 q 806 48 810 53 q 792 38 803 43 q 529 -17 664 -17 z "},"Ć":{"ha":878,"x_min":61,"x_max":828,"o":"m 529 -17 q 263 51 368 -17 q 110 223 158 118 q 61 443 61 328 q 127 670 61 569 q 302 827 193 771 q 533 883 411 883 q 670 869 603 883 q 779 832 738 856 q 793 819 790 825 q 797 799 796 814 l 814 653 q 807 646 814 647 q 799 650 800 644 q 485 854 743 854 q 306 808 382 854 q 188 676 229 761 q 147 481 147 592 q 199 239 147 349 q 339 65 250 129 q 535 0 428 0 q 700 56 626 0 q 813 222 774 111 q 821 226 814 228 q 828 221 828 225 l 813 69 q 806 48 810 53 q 792 38 803 43 q 529 -17 664 -17 m 429 942 q 421 948 424 942 q 422 957 418 954 q 581 1050 478 985 q 638 1086 610 1071 q 668 1081 643 1089 q 712 1062 693 1072 q 721 1050 731 1051 q 432 943 572 1011 l 429 942 z "},"Č":{"ha":878,"x_min":61,"x_max":828,"o":"m 529 -17 q 263 51 368 -17 q 110 223 158 118 q 61 443 61 328 q 127 670 61 569 q 302 827 193 771 q 533 883 411 883 q 670 869 603 883 q 779 832 738 856 q 793 819 790 825 q 797 799 796 814 l 814 653 q 807 646 814 647 q 799 650 800 644 q 485 854 743 854 q 306 808 382 854 q 188 676 229 761 q 147 481 147 592 q 199 239 147 349 q 339 65 250 129 q 535 0 428 0 q 700 56 626 0 q 813 222 774 111 q 821 226 814 228 q 828 221 828 225 l 813 69 q 806 48 810 53 q 792 38 803 43 q 529 -17 664 -17 m 375 1067 l 375 1068 q 378 1074 375 1071 q 383 1076 382 1078 l 514 990 l 636 1078 l 638 1078 q 644 1073 640 1078 q 646 1067 649 1068 l 524 938 q 511 932 519 932 q 497 938 503 932 l 375 1067 z "},"Ç":{"ha":878,"x_min":61,"x_max":828,"o":"m 813 222 q 821 226 814 228 q 828 221 828 225 l 813 69 q 806 48 810 53 q 792 38 803 43 q 529 -17 664 -17 q 524 -58 524 -37 q 533 -103 524 -83 q 564 -144 543 -124 q 613 -206 596 -179 q 628 -261 629 -233 q 599 -343 629 -304 q 513 -382 569 -382 q 458 -366 481 -382 q 435 -322 435 -350 q 464 -294 435 -294 q 485 -302 476 -294 q 508 -326 494 -310 q 528 -348 519 -340 q 547 -356 536 -356 q 590 -299 589 -356 q 524 -192 589 -254 q 486 -112 486 -154 q 492 -83 486 -103 l 513 -17 q 256 55 358 -12 q 108 226 154 122 q 61 443 61 329 q 127 670 61 569 q 302 827 193 771 q 533 883 411 883 q 670 869 603 883 q 779 832 738 856 q 793 819 790 825 q 797 799 796 814 l 814 653 q 807 646 814 647 q 799 650 800 644 q 485 854 743 854 q 306 808 382 854 q 188 676 229 761 q 147 481 147 592 q 199 239 147 349 q 339 65 250 129 q 535 0 428 0 q 700 56 626 0 q 813 222 774 111 z "},"Ĉ":{"ha":878,"x_min":61,"x_max":828,"o":"m 529 -17 q 263 51 368 -17 q 110 223 158 118 q 61 443 61 328 q 127 670 61 569 q 302 827 193 771 q 533 883 411 883 q 670 869 603 883 q 779 832 738 856 q 793 819 790 825 q 797 799 796 814 l 814 653 q 807 646 814 647 q 799 650 800 644 q 485 854 743 854 q 306 808 382 854 q 188 676 229 761 q 147 481 147 592 q 199 239 147 349 q 339 65 250 129 q 535 0 428 0 q 700 56 626 0 q 813 222 774 111 q 821 226 814 228 q 828 221 828 225 l 813 69 q 806 48 810 53 q 792 38 803 43 q 529 -17 664 -17 m 390 917 q 383 920 386 917 q 382 926 379 924 l 504 1054 q 517 1061 508 1061 q 531 1054 524 1061 l 653 926 l 653 924 q 650 917 653 919 q 644 917 647 914 l 513 1003 l 392 917 l 390 917 z "},"Ċ":{"ha":878,"x_min":61,"x_max":828,"o":"m 529 -17 q 263 51 368 -17 q 110 223 158 118 q 61 443 61 328 q 127 670 61 569 q 302 827 193 771 q 533 883 411 883 q 670 869 603 883 q 779 832 738 856 q 793 819 790 825 q 797 799 796 814 l 814 653 q 807 646 814 647 q 799 650 800 644 q 485 854 743 854 q 306 808 382 854 q 188 676 229 761 q 147 481 147 592 q 199 239 147 349 q 339 65 250 129 q 535 0 428 0 q 700 56 626 0 q 813 222 774 111 q 821 226 814 228 q 828 221 828 225 l 813 69 q 806 48 810 53 q 792 38 803 43 q 529 -17 664 -17 m 514 981 q 474 995 489 981 q 458 1035 458 1010 q 474 1072 458 1058 q 514 1086 489 1086 q 554 1072 540 1086 q 568 1035 568 1058 q 554 994 568 1008 q 514 981 540 981 z "},"D":{"ha":910,"x_min":51,"x_max":849,"o":"m 400 -6 q 315 -1 364 -6 q 269 1 296 0 q 211 3 243 3 l 119 1 q 57 0 96 0 q 52 8 53 0 q 57 17 51 17 q 131 24 107 17 q 165 51 156 31 q 174 113 174 71 l 174 756 q 164 817 172 797 q 131 844 156 836 q 57 851 107 851 q 52 860 53 851 q 57 868 51 868 l 119 867 q 210 864 175 864 q 304 868 257 864 q 382 871 363 871 q 624 815 518 871 q 790 664 731 760 q 849 449 849 568 q 788 210 849 314 q 624 51 726 107 q 400 -6 521 -6 m 386 13 q 580 60 496 13 q 712 199 664 107 q 760 418 760 290 q 715 639 760 540 q 587 795 669 738 q 394 853 504 853 q 306 846 336 853 q 260 817 275 839 q 246 753 246 796 l 246 128 q 274 39 246 65 q 386 13 303 13 z "},"Ð":{"ha":910,"x_min":36,"x_max":849,"o":"m 382 871 q 624 815 518 871 q 790 664 731 760 q 849 449 849 568 q 788 210 849 314 q 624 51 726 107 q 400 -6 521 -6 q 315 -1 364 -6 q 269 1 296 0 q 211 3 243 3 l 119 1 q 57 0 96 0 q 52 8 53 0 q 57 17 51 17 q 131 24 107 17 q 165 51 156 31 q 174 113 174 71 l 174 419 l 42 419 q 38 424 40 419 q 36 432 36 428 q 38 441 36 438 q 42 444 39 444 l 174 444 l 174 756 q 164 817 172 797 q 131 844 156 836 q 57 851 107 851 q 52 860 53 851 q 57 868 51 868 l 119 867 q 210 864 175 864 q 304 868 257 864 q 382 871 363 871 m 386 13 q 580 60 496 13 q 712 199 664 107 q 760 418 760 290 q 715 639 760 540 q 587 795 669 738 q 394 853 504 853 q 306 846 336 853 q 260 817 275 839 q 246 753 246 796 l 246 444 l 406 444 q 413 432 413 444 q 410 424 413 428 q 406 419 408 419 l 246 419 l 246 128 q 274 39 246 65 q 386 13 303 13 z "},"Ď":{"ha":910,"x_min":53,"x_max":849,"o":"m 400 -6 q 315 -1 364 -6 q 269 1 296 0 q 211 3 243 3 l 119 1 q 57 0 96 0 q 52 8 53 0 q 57 17 51 17 q 131 24 107 17 q 165 51 156 31 q 174 113 174 71 l 174 756 q 164 817 172 797 q 131 844 156 836 q 57 851 107 851 q 52 860 53 851 q 57 868 51 868 l 119 867 q 210 864 175 864 q 304 868 257 864 q 382 871 363 871 q 624 815 518 871 q 790 664 731 760 q 849 449 849 568 q 788 210 849 314 q 624 51 726 107 q 400 -6 521 -6 m 386 13 q 580 60 496 13 q 712 199 664 107 q 760 418 760 290 q 715 639 760 540 q 587 795 669 738 q 394 853 504 853 q 306 846 336 853 q 260 817 275 839 q 246 753 246 796 l 246 128 q 274 39 246 65 q 386 13 303 13 m 233 1067 l 233 1068 q 237 1074 233 1071 q 242 1076 240 1078 l 372 990 l 494 1078 l 496 1078 q 503 1073 499 1078 q 504 1067 507 1068 l 382 938 q 369 932 378 932 q 356 938 361 932 l 233 1067 z "},"Đ":{"ha":910,"x_min":36,"x_max":849,"o":"m 382 871 q 624 815 518 871 q 790 664 731 760 q 849 449 849 568 q 788 210 849 314 q 624 51 726 107 q 400 -6 521 -6 q 315 -1 364 -6 q 269 1 296 0 q 211 3 243 3 l 119 1 q 57 0 96 0 q 52 8 53 0 q 57 17 51 17 q 131 24 107 17 q 165 51 156 31 q 174 113 174 71 l 174 419 l 42 419 q 38 424 40 419 q 36 432 36 428 q 38 441 36 438 q 42 444 39 444 l 174 444 l 174 756 q 164 817 172 797 q 131 844 156 836 q 57 851 107 851 q 52 860 53 851 q 57 868 51 868 l 119 867 q 210 864 175 864 q 304 868 257 864 q 382 871 363 871 m 386 13 q 580 60 496 13 q 712 199 664 107 q 760 418 760 290 q 715 639 760 540 q 587 795 669 738 q 394 853 504 853 q 306 846 336 853 q 260 817 275 839 q 246 753 246 796 l 246 444 l 406 444 q 413 432 413 444 q 410 424 413 428 q 406 419 408 419 l 246 419 l 246 128 q 274 39 246 65 q 386 13 303 13 z "},"Ḍ":{"ha":910,"x_min":53,"x_max":849,"o":"m 400 -6 q 315 -1 364 -6 q 269 1 296 0 q 211 3 243 3 l 119 1 q 57 0 96 0 q 52 8 53 0 q 57 17 51 17 q 131 24 107 17 q 165 51 156 31 q 174 113 174 71 l 174 756 q 164 817 172 797 q 131 844 156 836 q 57 851 107 851 q 52 860 53 851 q 57 868 51 868 l 119 867 q 210 864 175 864 q 304 868 257 864 q 382 871 363 871 q 624 815 518 871 q 790 664 731 760 q 849 449 849 568 q 788 210 849 314 q 624 51 726 107 q 400 -6 521 -6 m 386 13 q 580 60 496 13 q 712 199 664 107 q 760 418 760 290 q 715 639 760 540 q 587 795 669 738 q 394 853 504 853 q 306 846 336 853 q 260 817 275 839 q 246 753 246 796 l 246 128 q 274 39 246 65 q 386 13 303 13 m 446 -257 q 405 -243 419 -257 q 390 -203 390 -229 q 405 -165 390 -179 q 446 -151 419 -151 q 485 -165 471 -151 q 499 -203 499 -179 q 485 -243 499 -229 q 446 -257 471 -257 z "},"Ḏ":{"ha":910,"x_min":53,"x_max":849,"o":"m 400 -6 q 315 -1 364 -6 q 269 1 296 0 q 211 3 243 3 l 119 1 q 57 0 96 0 q 52 8 53 0 q 57 17 51 17 q 131 24 107 17 q 165 51 156 31 q 174 113 174 71 l 174 756 q 164 817 172 797 q 131 844 156 836 q 57 851 107 851 q 52 860 53 851 q 57 868 51 868 l 119 867 q 210 864 175 864 q 304 868 257 864 q 382 871 363 871 q 624 815 518 871 q 790 664 731 760 q 849 449 849 568 q 788 210 849 314 q 624 51 726 107 q 400 -6 521 -6 m 386 13 q 580 60 496 13 q 712 199 664 107 q 760 418 760 290 q 715 639 760 540 q 587 795 669 738 q 394 853 504 853 q 306 846 336 853 q 260 817 275 839 q 246 753 246 796 l 246 128 q 274 39 246 65 q 386 13 303 13 m 272 -161 q 265 -143 265 -161 q 272 -125 265 -125 l 606 -125 q 610 -131 608 -125 q 613 -143 613 -136 q 606 -161 613 -161 l 272 -161 z "},"E":{"ha":764,"x_min":58,"x_max":718,"o":"m 699 204 q 706 208 699 208 q 714 206 710 208 q 717 201 718 204 q 706 21 706 136 q 701 5 706 10 q 683 0 696 0 l 64 0 q 60 8 60 0 q 64 17 60 17 q 139 24 115 17 q 172 51 163 31 q 181 113 181 71 l 181 756 q 169 817 178 797 q 136 844 160 836 q 61 851 113 851 q 58 860 58 851 q 61 868 58 868 l 644 868 q 652 865 650 868 q 654 856 654 863 l 658 736 l 660 686 q 651 681 660 681 q 642 686 642 681 q 606 804 640 760 q 515 849 572 849 l 364 849 q 291 842 314 849 q 260 815 268 835 q 251 754 253 796 l 251 465 l 478 465 q 559 487 536 465 q 581 561 582 508 q 589 567 581 567 q 596 561 597 567 l 596 517 l 596 451 l 597 392 q 600 325 600 350 q 592 319 600 319 q 583 325 583 319 q 558 413 583 388 q 471 439 533 439 l 251 439 l 251 118 q 260 58 251 78 q 291 32 268 39 q 364 25 314 25 l 564 25 q 651 74 614 25 q 699 204 688 124 z "},"É":{"ha":764,"x_min":58,"x_max":717,"o":"m 699 204 q 706 208 699 208 q 714 206 710 208 q 717 201 718 204 q 706 21 706 136 q 701 5 706 10 q 683 0 696 0 l 64 0 q 60 8 60 0 q 64 17 60 17 q 139 24 115 17 q 172 51 163 31 q 181 113 181 71 l 181 756 q 169 817 178 797 q 136 844 160 836 q 61 851 113 851 q 58 860 58 851 q 61 868 58 868 l 644 868 q 652 865 650 868 q 654 856 654 863 l 658 736 l 660 686 q 651 681 660 681 q 642 686 642 681 q 606 804 640 760 q 515 849 572 849 l 364 849 q 291 842 314 849 q 260 815 268 835 q 251 754 253 796 l 251 465 l 478 465 q 559 487 536 465 q 581 561 582 508 q 589 567 581 567 q 596 561 597 567 l 596 517 l 596 451 l 597 392 q 600 325 600 350 q 592 319 600 319 q 583 325 583 319 q 558 413 583 388 q 471 439 533 439 l 251 439 l 251 118 q 260 58 251 78 q 291 32 268 39 q 364 25 314 25 l 564 25 q 651 74 614 25 q 699 204 688 124 m 297 942 q 289 948 292 942 q 290 957 286 954 q 449 1050 346 985 q 506 1086 478 1071 q 536 1081 511 1089 q 580 1062 561 1072 q 589 1050 599 1051 q 300 943 440 1011 l 297 942 z "},"Ĕ":{"ha":764,"x_min":58,"x_max":717,"o":"m 699 204 q 706 208 699 208 q 714 206 710 208 q 717 201 718 204 q 706 21 706 136 q 701 5 706 10 q 683 0 696 0 l 64 0 q 60 8 60 0 q 64 17 60 17 q 139 24 115 17 q 172 51 163 31 q 181 113 181 71 l 181 756 q 169 817 178 797 q 136 844 160 836 q 61 851 113 851 q 58 860 58 851 q 61 868 58 868 l 644 868 q 652 865 650 868 q 654 856 654 863 l 658 736 l 660 686 q 651 681 660 681 q 642 686 642 681 q 606 804 640 760 q 515 849 572 849 l 364 849 q 291 842 314 849 q 260 815 268 835 q 251 754 253 796 l 251 465 l 478 465 q 559 487 536 465 q 581 561 582 508 q 589 567 581 567 q 596 561 597 567 l 596 517 l 596 451 l 597 392 q 600 325 600 350 q 592 319 600 319 q 583 325 583 319 q 558 413 583 388 q 471 439 533 439 l 251 439 l 251 118 q 260 58 251 78 q 291 32 268 39 q 364 25 314 25 l 564 25 q 651 74 614 25 q 699 204 688 124 m 378 924 q 297 955 333 924 q 250 1042 261 986 q 265 1057 249 1050 q 294 1064 281 1064 q 306 1060 306 1064 q 344 992 318 1015 q 401 968 369 968 q 458 990 432 968 q 496 1054 483 1013 q 503 1058 499 1058 q 515 1056 508 1058 q 521 1050 521 1053 q 464 956 504 989 q 378 924 424 924 z "},"Ě":{"ha":764,"x_min":58,"x_max":717,"o":"m 699 204 q 706 208 699 208 q 714 206 710 208 q 717 201 718 204 q 706 21 706 136 q 701 5 706 10 q 683 0 696 0 l 64 0 q 60 8 60 0 q 64 17 60 17 q 139 24 115 17 q 172 51 163 31 q 181 113 181 71 l 181 756 q 169 817 178 797 q 136 844 160 836 q 61 851 113 851 q 58 860 58 851 q 61 868 58 868 l 644 868 q 652 865 650 868 q 654 856 654 863 l 658 736 l 660 686 q 651 681 660 681 q 642 686 642 681 q 606 804 640 760 q 515 849 572 849 l 364 849 q 291 842 314 849 q 260 815 268 835 q 251 754 253 796 l 251 465 l 478 465 q 559 487 536 465 q 581 561 582 508 q 589 567 581 567 q 596 561 597 567 l 596 517 l 596 451 l 597 392 q 600 325 600 350 q 592 319 600 319 q 583 325 583 319 q 558 413 583 388 q 471 439 533 439 l 251 439 l 251 118 q 260 58 251 78 q 291 32 268 39 q 364 25 314 25 l 564 25 q 651 74 614 25 q 699 204 688 124 m 243 1067 l 243 1068 q 247 1074 243 1071 q 251 1076 250 1078 l 382 990 l 504 1078 l 506 1078 q 513 1073 508 1078 q 514 1067 517 1068 l 392 938 q 379 932 388 932 q 365 938 371 932 l 243 1067 z "},"Ê":{"ha":764,"x_min":58,"x_max":717,"o":"m 699 204 q 706 208 699 208 q 714 206 710 208 q 717 201 718 204 q 706 21 706 136 q 701 5 706 10 q 683 0 696 0 l 64 0 q 60 8 60 0 q 64 17 60 17 q 139 24 115 17 q 172 51 163 31 q 181 113 181 71 l 181 756 q 169 817 178 797 q 136 844 160 836 q 61 851 113 851 q 58 860 58 851 q 61 868 58 868 l 644 868 q 652 865 650 868 q 654 856 654 863 l 658 736 l 660 686 q 651 681 660 681 q 642 686 642 681 q 606 804 640 760 q 515 849 572 849 l 364 849 q 291 842 314 849 q 260 815 268 835 q 251 754 253 796 l 251 465 l 478 465 q 559 487 536 465 q 581 561 582 508 q 589 567 581 567 q 596 561 597 567 l 596 517 l 596 451 l 597 392 q 600 325 600 350 q 592 319 600 319 q 583 325 583 319 q 558 413 583 388 q 471 439 533 439 l 251 439 l 251 118 q 260 58 251 78 q 291 32 268 39 q 364 25 314 25 l 564 25 q 651 74 614 25 q 699 204 688 124 m 258 917 q 251 920 254 917 q 250 926 247 924 l 372 1054 q 385 1061 376 1061 q 399 1054 392 1061 l 521 926 l 521 924 q 518 917 521 919 q 513 917 515 914 l 381 1003 l 260 917 l 258 917 z "},"Ế":{"ha":764,"x_min":58,"x_max":717,"o":"m 699 204 q 706 208 699 208 q 714 206 710 208 q 717 201 718 204 q 706 21 706 136 q 701 5 706 10 q 683 0 696 0 l 64 0 q 60 8 60 0 q 64 17 60 17 q 139 24 115 17 q 172 51 163 31 q 181 113 181 71 l 181 756 q 169 817 178 797 q 136 844 160 836 q 61 851 113 851 q 58 860 58 851 q 61 868 58 868 l 644 868 q 652 865 650 868 q 654 856 654 863 l 658 736 l 660 686 q 651 681 660 681 q 642 686 642 681 q 606 804 640 760 q 515 849 572 849 l 364 849 q 291 842 314 849 q 260 815 268 835 q 251 754 253 796 l 251 465 l 478 465 q 559 487 536 465 q 581 561 582 508 q 589 567 581 567 q 596 561 597 567 l 596 517 l 596 451 l 597 392 q 600 325 600 350 q 592 319 600 319 q 583 325 583 319 q 558 413 583 388 q 471 439 533 439 l 251 439 l 251 118 q 260 58 251 78 q 291 32 268 39 q 364 25 314 25 l 564 25 q 651 74 614 25 q 699 204 688 124 m 258 917 q 251 920 254 917 q 250 926 247 924 l 372 1054 q 385 1061 376 1061 q 399 1054 392 1061 l 521 926 l 521 924 q 518 917 521 919 q 513 917 515 914 l 381 1003 l 260 917 l 258 917 m 474 1013 q 469 1011 472 1011 q 463 1016 465 1011 q 464 1024 461 1021 q 576 1156 522 1079 q 603 1151 581 1160 q 644 1132 626 1143 q 653 1119 663 1121 q 562 1074 603 1099 q 474 1013 521 1049 z "},"Ệ":{"ha":764,"x_min":58,"x_max":717,"o":"m 699 204 q 706 208 699 208 q 714 206 710 208 q 717 201 718 204 q 706 21 706 136 q 701 5 706 10 q 683 0 696 0 l 64 0 q 60 8 60 0 q 64 17 60 17 q 139 24 115 17 q 172 51 163 31 q 181 113 181 71 l 181 756 q 169 817 178 797 q 136 844 160 836 q 61 851 113 851 q 58 860 58 851 q 61 868 58 868 l 644 868 q 652 865 650 868 q 654 856 654 863 l 658 736 l 660 686 q 651 681 660 681 q 642 686 642 681 q 606 804 640 760 q 515 849 572 849 l 364 849 q 291 842 314 849 q 260 815 268 835 q 251 754 253 796 l 251 465 l 478 465 q 559 487 536 465 q 581 561 582 508 q 589 567 581 567 q 596 561 597 567 l 596 517 l 596 451 l 597 392 q 600 325 600 350 q 592 319 600 319 q 583 325 583 319 q 558 413 583 388 q 471 439 533 439 l 251 439 l 251 118 q 260 58 251 78 q 291 32 268 39 q 364 25 314 25 l 564 25 q 651 74 614 25 q 699 204 688 124 m 414 -257 q 373 -243 388 -257 q 358 -203 358 -229 q 373 -165 358 -179 q 414 -151 388 -151 q 453 -165 439 -151 q 467 -203 467 -179 q 453 -243 467 -229 q 414 -257 439 -257 m 258 917 q 251 920 254 917 q 250 926 247 924 l 372 1054 q 385 1061 376 1061 q 399 1054 392 1061 l 521 926 l 521 924 q 518 917 521 919 q 513 917 515 914 l 381 1003 l 260 917 l 258 917 z "},"Ề":{"ha":764,"x_min":58,"x_max":717,"o":"m 699 204 q 706 208 699 208 q 714 206 710 208 q 717 201 718 204 q 706 21 706 136 q 701 5 706 10 q 683 0 696 0 l 64 0 q 60 8 60 0 q 64 17 60 17 q 139 24 115 17 q 172 51 163 31 q 181 113 181 71 l 181 756 q 169 817 178 797 q 136 844 160 836 q 61 851 113 851 q 58 860 58 851 q 61 868 58 868 l 644 868 q 652 865 650 868 q 654 856 654 863 l 658 736 l 660 686 q 651 681 660 681 q 642 686 642 681 q 606 804 640 760 q 515 849 572 849 l 364 849 q 291 842 314 849 q 260 815 268 835 q 251 754 253 796 l 251 465 l 478 465 q 559 487 536 465 q 581 561 582 508 q 589 567 581 567 q 596 561 597 567 l 596 517 l 596 451 l 597 392 q 600 325 600 350 q 592 319 600 319 q 583 325 583 319 q 558 413 583 388 q 471 439 533 439 l 251 439 l 251 118 q 260 58 251 78 q 291 32 268 39 q 364 25 314 25 l 564 25 q 651 74 614 25 q 699 204 688 124 m 258 917 q 251 920 254 917 q 250 926 247 924 l 372 1054 q 385 1061 376 1061 q 399 1054 392 1061 l 521 926 l 521 924 q 518 917 521 919 q 513 917 515 914 l 381 1003 l 260 917 l 258 917 m 583 976 q 404 1083 490 1046 q 413 1096 394 1085 q 453 1115 431 1107 q 481 1119 476 1124 q 593 989 526 1056 q 594 983 594 988 q 591 977 594 979 q 583 976 588 975 z "},"Ể":{"ha":764,"x_min":58,"x_max":717,"o":"m 699 204 q 706 208 699 208 q 714 206 710 208 q 717 201 718 204 q 706 21 706 136 q 701 5 706 10 q 683 0 696 0 l 64 0 q 60 8 60 0 q 64 17 60 17 q 139 24 115 17 q 172 51 163 31 q 181 113 181 71 l 181 756 q 169 817 178 797 q 136 844 160 836 q 61 851 113 851 q 58 860 58 851 q 61 868 58 868 l 644 868 q 652 865 650 868 q 654 856 654 863 l 658 736 l 660 686 q 651 681 660 681 q 642 686 642 681 q 606 804 640 760 q 515 849 572 849 l 364 849 q 291 842 314 849 q 260 815 268 835 q 251 754 253 796 l 251 465 l 478 465 q 559 487 536 465 q 581 561 582 508 q 589 567 581 567 q 596 561 597 567 l 596 517 l 596 451 l 597 392 q 600 325 600 350 q 592 319 600 319 q 583 325 583 319 q 558 413 583 388 q 471 439 533 439 l 251 439 l 251 118 q 260 58 251 78 q 291 32 268 39 q 364 25 314 25 l 564 25 q 651 74 614 25 q 699 204 688 124 m 258 900 q 251 903 254 900 q 250 910 247 907 l 372 1038 q 385 1044 376 1044 q 399 1038 392 1044 l 521 910 l 521 907 q 518 900 521 903 q 513 900 515 897 l 381 986 l 260 900 l 258 900 m 479 985 q 476 1003 476 992 q 497 1054 476 1024 q 514 1083 508 1071 q 519 1108 519 1094 q 504 1141 519 1129 q 471 1153 489 1153 q 438 1144 454 1153 l 436 1144 q 426 1149 431 1144 q 426 1156 422 1154 q 471 1175 447 1168 q 511 1182 494 1182 q 556 1165 540 1182 q 572 1124 572 1147 q 561 1087 572 1103 q 529 1050 550 1071 q 499 1016 508 1031 q 494 985 490 1001 q 488 982 496 982 q 479 985 481 982 z "},"Ễ":{"ha":764,"x_min":58,"x_max":717,"o":"m 699 204 q 706 208 699 208 q 714 206 710 208 q 717 201 718 204 q 706 21 706 136 q 701 5 706 10 q 683 0 696 0 l 64 0 q 60 8 60 0 q 64 17 60 17 q 139 24 115 17 q 172 51 163 31 q 181 113 181 71 l 181 756 q 169 817 178 797 q 136 844 160 836 q 61 851 113 851 q 58 860 58 851 q 61 868 58 868 l 644 868 q 652 865 650 868 q 654 856 654 863 l 658 736 l 660 686 q 651 681 660 681 q 642 686 642 681 q 606 804 640 760 q 515 849 572 849 l 364 849 q 291 842 314 849 q 260 815 268 835 q 251 754 253 796 l 251 465 l 478 465 q 559 487 536 465 q 581 561 582 508 q 589 567 581 567 q 596 561 597 567 l 596 517 l 596 451 l 597 392 q 600 325 600 350 q 592 319 600 319 q 583 325 583 319 q 558 413 583 388 q 471 439 533 439 l 251 439 l 251 118 q 260 58 251 78 q 291 32 268 39 q 364 25 314 25 l 564 25 q 651 74 614 25 q 699 204 688 124 m 261 917 q 253 920 257 917 q 253 926 250 924 l 375 1054 q 388 1061 379 1061 q 401 1054 394 1061 l 524 926 l 524 924 q 521 917 524 919 q 515 917 518 914 l 383 1003 l 263 917 l 261 917 m 232 1072 q 225 1076 229 1072 q 222 1082 221 1079 q 268 1137 242 1113 q 326 1161 294 1161 q 400 1147 347 1161 q 507 1128 464 1128 q 543 1138 531 1128 q 568 1165 556 1147 l 569 1165 q 578 1162 574 1165 q 579 1156 582 1158 q 532 1092 553 1108 q 485 1075 511 1075 q 442 1080 465 1075 q 396 1092 418 1085 q 346 1104 372 1099 q 296 1110 319 1110 q 264 1103 275 1110 q 245 1086 253 1096 q 233 1072 238 1076 l 232 1072 z "},"Ë":{"ha":764,"x_min":58,"x_max":717,"o":"m 699 204 q 706 208 699 208 q 714 206 710 208 q 717 201 718 204 q 706 21 706 136 q 701 5 706 10 q 683 0 696 0 l 64 0 q 60 8 60 0 q 64 17 60 17 q 139 24 115 17 q 172 51 163 31 q 181 113 181 71 l 181 756 q 169 817 178 797 q 136 844 160 836 q 61 851 113 851 q 58 860 58 851 q 61 868 58 868 l 644 868 q 652 865 650 868 q 654 856 654 863 l 658 736 l 660 686 q 651 681 660 681 q 642 686 642 681 q 606 804 640 760 q 515 849 572 849 l 364 849 q 291 842 314 849 q 260 815 268 835 q 251 754 253 796 l 251 465 l 478 465 q 559 487 536 465 q 581 561 582 508 q 589 567 581 567 q 596 561 597 567 l 596 517 l 596 451 l 597 392 q 600 325 600 350 q 592 319 600 319 q 583 325 583 319 q 558 413 583 388 q 471 439 533 439 l 251 439 l 251 118 q 260 58 251 78 q 291 32 268 39 q 364 25 314 25 l 564 25 q 651 74 614 25 q 699 204 688 124 m 279 1000 q 239 1014 254 1000 q 224 1053 224 1028 q 239 1092 224 1078 q 279 1106 254 1106 q 319 1092 306 1106 q 333 1053 333 1078 q 319 1014 333 1028 q 279 1000 306 1000 m 486 1000 q 445 1014 460 1000 q 431 1053 431 1028 q 445 1092 431 1078 q 486 1106 460 1106 q 525 1092 511 1106 q 539 1053 539 1078 q 525 1014 539 1028 q 486 1000 511 1000 z "},"Ė":{"ha":764,"x_min":58,"x_max":717,"o":"m 699 204 q 706 208 699 208 q 714 206 710 208 q 717 201 718 204 q 706 21 706 136 q 701 5 706 10 q 683 0 696 0 l 64 0 q 60 8 60 0 q 64 17 60 17 q 139 24 115 17 q 172 51 163 31 q 181 113 181 71 l 181 756 q 169 817 178 797 q 136 844 160 836 q 61 851 113 851 q 58 860 58 851 q 61 868 58 868 l 644 868 q 652 865 650 868 q 654 856 654 863 l 658 736 l 660 686 q 651 681 660 681 q 642 686 642 681 q 606 804 640 760 q 515 849 572 849 l 364 849 q 291 842 314 849 q 260 815 268 835 q 251 754 253 796 l 251 465 l 478 465 q 559 487 536 465 q 581 561 582 508 q 589 567 581 567 q 596 561 597 567 l 596 517 l 596 451 l 597 392 q 600 325 600 350 q 592 319 600 319 q 583 325 583 319 q 558 413 583 388 q 471 439 533 439 l 251 439 l 251 118 q 260 58 251 78 q 291 32 268 39 q 364 25 314 25 l 564 25 q 651 74 614 25 q 699 204 688 124 m 382 981 q 342 995 357 981 q 326 1035 326 1010 q 342 1072 326 1058 q 382 1086 357 1086 q 422 1072 408 1086 q 436 1035 436 1058 q 422 994 436 1008 q 382 981 408 981 z "},"Ẹ":{"ha":764,"x_min":58,"x_max":717,"o":"m 699 204 q 706 208 699 208 q 714 206 710 208 q 717 201 718 204 q 706 21 706 136 q 701 5 706 10 q 683 0 696 0 l 64 0 q 60 8 60 0 q 64 17 60 17 q 139 24 115 17 q 172 51 163 31 q 181 113 181 71 l 181 756 q 169 817 178 797 q 136 844 160 836 q 61 851 113 851 q 58 860 58 851 q 61 868 58 868 l 644 868 q 652 865 650 868 q 654 856 654 863 l 658 736 l 660 686 q 651 681 660 681 q 642 686 642 681 q 606 804 640 760 q 515 849 572 849 l 364 849 q 291 842 314 849 q 260 815 268 835 q 251 754 253 796 l 251 465 l 478 465 q 559 487 536 465 q 581 561 582 508 q 589 567 581 567 q 596 561 597 567 l 596 517 l 596 451 l 597 392 q 600 325 600 350 q 592 319 600 319 q 583 325 583 319 q 558 413 583 388 q 471 439 533 439 l 251 439 l 251 118 q 260 58 251 78 q 291 32 268 39 q 364 25 314 25 l 564 25 q 651 74 614 25 q 699 204 688 124 m 414 -257 q 373 -243 388 -257 q 358 -203 358 -229 q 373 -165 358 -179 q 414 -151 388 -151 q 453 -165 439 -151 q 467 -203 467 -179 q 453 -243 467 -229 q 414 -257 439 -257 z "},"È":{"ha":764,"x_min":58,"x_max":717,"o":"m 699 204 q 706 208 699 208 q 714 206 710 208 q 717 201 718 204 q 706 21 706 136 q 701 5 706 10 q 683 0 696 0 l 64 0 q 60 8 60 0 q 64 17 60 17 q 139 24 115 17 q 172 51 163 31 q 181 113 181 71 l 181 756 q 169 817 178 797 q 136 844 160 836 q 61 851 113 851 q 58 860 58 851 q 61 868 58 868 l 644 868 q 652 865 650 868 q 654 856 654 863 l 658 736 l 660 686 q 651 681 660 681 q 642 686 642 681 q 606 804 640 760 q 515 849 572 849 l 364 849 q 291 842 314 849 q 260 815 268 835 q 251 754 253 796 l 251 465 l 478 465 q 559 487 536 465 q 581 561 582 508 q 589 567 581 567 q 596 561 597 567 l 596 517 l 596 451 l 597 392 q 600 325 600 350 q 592 319 600 319 q 583 325 583 319 q 558 413 583 388 q 471 439 533 439 l 251 439 l 251 118 q 260 58 251 78 q 291 32 268 39 q 364 25 314 25 l 564 25 q 651 74 614 25 q 699 204 688 124 m 514 943 q 236 1050 374 1013 q 245 1062 226 1051 q 290 1081 264 1072 q 321 1086 315 1089 q 350 1067 340 1072 q 518 957 439 1001 q 522 951 522 956 q 519 944 522 947 q 514 943 517 942 z "},"Ẻ":{"ha":764,"x_min":58,"x_max":717,"o":"m 699 204 q 706 208 699 208 q 714 206 710 208 q 717 201 718 204 q 706 21 706 136 q 701 5 706 10 q 683 0 696 0 l 64 0 q 60 8 60 0 q 64 17 60 17 q 139 24 115 17 q 172 51 163 31 q 181 113 181 71 l 181 756 q 169 817 178 797 q 136 844 160 836 q 61 851 113 851 q 58 860 58 851 q 61 868 58 868 l 644 868 q 652 865 650 868 q 654 856 654 863 l 658 736 l 660 686 q 651 681 660 681 q 642 686 642 681 q 606 804 640 760 q 515 849 572 849 l 364 849 q 291 842 314 849 q 260 815 268 835 q 251 754 253 796 l 251 465 l 478 465 q 559 487 536 465 q 581 561 582 508 q 589 567 581 567 q 596 561 597 567 l 596 517 l 596 451 l 597 392 q 600 325 600 350 q 592 319 600 319 q 583 325 583 319 q 558 413 583 388 q 471 439 533 439 l 251 439 l 251 118 q 260 58 251 78 q 291 32 268 39 q 364 25 314 25 l 564 25 q 651 74 614 25 q 699 204 688 124 m 389 901 q 383 899 392 899 q 372 901 375 899 q 368 928 368 917 q 376 965 368 949 q 400 1007 385 982 q 423 1044 415 1031 q 429 1076 431 1058 q 410 1118 429 1103 q 367 1133 392 1133 q 331 1126 347 1133 l 328 1125 q 321 1130 324 1125 q 322 1138 318 1135 q 407 1163 363 1163 q 470 1142 447 1163 q 493 1092 493 1122 q 479 1049 492 1067 q 438 1000 467 1031 q 399 958 413 976 q 386 918 386 939 q 389 901 386 913 z "},"Ē":{"ha":764,"x_min":58,"x_max":717,"o":"m 699 204 q 706 208 699 208 q 714 206 710 208 q 717 201 718 204 q 706 21 706 136 q 701 5 706 10 q 683 0 696 0 l 64 0 q 60 8 60 0 q 64 17 60 17 q 139 24 115 17 q 172 51 163 31 q 181 113 181 71 l 181 756 q 169 817 178 797 q 136 844 160 836 q 61 851 113 851 q 58 860 58 851 q 61 868 58 868 l 644 868 q 652 865 650 868 q 654 856 654 863 l 658 736 l 660 686 q 651 681 660 681 q 642 686 642 681 q 606 804 640 760 q 515 849 572 849 l 364 849 q 291 842 314 849 q 260 815 268 835 q 251 754 253 796 l 251 465 l 478 465 q 559 487 536 465 q 581 561 582 508 q 589 567 581 567 q 596 561 597 567 l 596 517 l 596 451 l 597 392 q 600 325 600 350 q 592 319 600 319 q 583 325 583 319 q 558 413 583 388 q 471 439 533 439 l 251 439 l 251 118 q 260 58 251 78 q 291 32 268 39 q 364 25 314 25 l 564 25 q 651 74 614 25 q 699 204 688 124 m 225 999 q 220 1004 222 999 q 218 1017 218 1010 q 225 1035 218 1035 l 558 1035 q 565 1017 565 1035 q 558 999 565 999 l 225 999 z "},"Ę":{"ha":764,"x_min":58,"x_max":718,"o":"m 622 0 q 542 -108 571 -58 q 514 -208 514 -158 q 541 -309 514 -274 q 622 -344 568 -344 q 665 -335 649 -344 q 701 -307 681 -326 l 703 -307 q 713 -312 708 -307 q 715 -319 718 -317 q 589 -382 654 -382 q 497 -346 532 -382 q 461 -249 463 -310 q 600 0 463 -147 l 64 0 q 60 8 60 0 q 64 17 60 17 q 139 24 115 17 q 172 51 163 31 q 181 113 181 71 l 181 756 q 169 817 178 797 q 136 844 160 836 q 61 851 113 851 q 58 860 58 851 q 61 868 58 868 l 644 868 q 652 865 650 868 q 654 856 654 863 l 658 736 l 660 686 q 651 681 660 681 q 642 686 642 681 q 606 804 640 760 q 515 849 572 849 l 364 849 q 291 842 314 849 q 260 815 268 835 q 251 754 253 796 l 251 465 l 478 465 q 559 487 536 465 q 581 561 582 508 q 589 567 581 567 q 596 561 597 567 l 596 517 l 596 451 l 597 392 q 600 325 600 350 q 592 319 600 319 q 583 325 583 319 q 558 413 583 388 q 471 439 533 439 l 251 439 l 251 118 q 260 58 251 78 q 291 32 268 39 q 364 25 314 25 l 564 25 q 651 74 614 25 q 699 204 688 124 q 706 208 699 208 q 714 206 710 208 q 717 201 718 204 q 706 21 706 136 q 701 5 706 10 q 683 0 696 0 l 622 0 z "},"Ẽ":{"ha":764,"x_min":58,"x_max":717,"o":"m 699 204 q 706 208 699 208 q 714 206 710 208 q 717 201 718 204 q 706 21 706 136 q 701 5 706 10 q 683 0 696 0 l 64 0 q 60 8 60 0 q 64 17 60 17 q 139 24 115 17 q 172 51 163 31 q 181 113 181 71 l 181 756 q 169 817 178 797 q 136 844 160 836 q 61 851 113 851 q 58 860 58 851 q 61 868 58 868 l 644 868 q 652 865 650 868 q 654 856 654 863 l 658 736 l 660 686 q 651 681 660 681 q 642 686 642 681 q 606 804 640 760 q 515 849 572 849 l 364 849 q 291 842 314 849 q 260 815 268 835 q 251 754 253 796 l 251 465 l 478 465 q 559 487 536 465 q 581 561 582 508 q 589 567 581 567 q 596 561 597 567 l 596 517 l 596 451 l 597 392 q 600 325 600 350 q 592 319 600 319 q 583 325 583 319 q 558 413 583 388 q 471 439 533 439 l 251 439 l 251 118 q 260 58 251 78 q 291 32 268 39 q 364 25 314 25 l 564 25 q 651 74 614 25 q 699 204 688 124 m 219 968 q 211 972 215 968 q 210 978 207 975 q 311 1058 257 1058 q 386 1043 335 1058 q 493 1024 453 1024 q 528 1033 517 1024 q 556 1061 540 1042 l 557 1061 q 564 1058 560 1061 q 567 1051 568 1054 q 519 988 539 1004 q 472 972 499 972 q 419 979 447 972 q 385 988 392 986 q 282 1006 325 1006 q 249 998 260 1006 q 231 981 238 990 q 221 968 224 971 l 219 968 z "},"F":{"ha":721,"x_min":54,"x_max":657,"o":"m 651 856 q 653 817 651 831 q 654 749 653 793 q 657 686 656 706 q 649 681 657 681 q 639 686 639 681 q 602 803 636 758 q 511 849 568 849 l 361 849 q 287 842 310 849 q 256 815 264 835 q 247 754 249 796 l 247 449 l 460 449 q 541 470 518 449 q 563 544 564 492 q 572 551 563 551 q 578 544 581 551 q 579 500 579 526 l 578 435 l 579 375 q 582 308 582 333 q 574 303 582 303 q 565 308 565 303 q 540 397 565 371 q 453 422 515 422 l 247 422 l 247 118 q 260 53 250 72 q 305 25 271 33 q 418 17 339 17 q 421 8 421 17 q 418 0 421 0 q 333 1 364 0 l 208 3 l 121 1 q 60 0 99 0 q 57 8 57 0 q 60 17 57 17 q 133 24 110 17 q 166 51 157 31 q 175 113 175 71 l 175 756 q 165 817 174 797 q 133 844 157 836 q 58 851 108 851 q 55 860 56 851 q 58 868 54 868 l 640 868 q 649 865 647 868 q 651 856 651 863 z "},"G":{"ha":947,"x_min":68,"x_max":904,"o":"m 550 -17 q 293 41 403 -17 q 126 200 183 99 q 68 428 68 301 q 135 663 68 560 q 321 825 203 767 q 586 883 439 883 q 705 870 650 883 q 797 831 760 857 q 811 816 808 821 q 815 799 814 811 l 831 653 q 822 647 831 647 q 813 651 814 646 q 717 802 790 750 q 533 854 644 854 q 253 753 353 854 q 153 478 153 651 q 208 233 153 340 q 362 66 264 125 q 583 7 460 7 q 690 19 653 7 q 745 68 728 32 q 763 175 763 104 q 754 276 763 247 q 717 314 746 304 q 613 324 688 324 q 606 335 606 324 q 611 346 606 346 q 771 339 708 339 q 897 343 831 339 q 903 333 903 343 q 897 324 904 324 q 850 315 864 325 q 831 272 836 304 q 826 161 826 239 q 831 70 826 94 q 836 39 836 46 q 833 28 836 32 q 822 22 831 25 q 550 -17 669 -17 z "},"Ğ":{"ha":947,"x_min":68,"x_max":904,"o":"m 550 -17 q 293 41 403 -17 q 126 200 183 99 q 68 428 68 301 q 135 663 68 560 q 321 825 203 767 q 586 883 439 883 q 705 870 650 883 q 797 831 760 857 q 811 816 808 821 q 815 799 814 811 l 831 653 q 822 647 831 647 q 813 651 814 646 q 717 802 790 750 q 533 854 644 854 q 253 753 353 854 q 153 478 153 651 q 208 233 153 340 q 362 66 264 125 q 583 7 460 7 q 690 19 653 7 q 745 68 728 32 q 763 175 763 104 q 754 276 763 247 q 717 314 746 304 q 613 324 688 324 q 606 335 606 324 q 611 346 606 346 q 771 339 708 339 q 897 343 831 339 q 903 333 903 343 q 897 324 904 324 q 850 315 864 325 q 831 272 836 304 q 826 161 826 239 q 831 70 826 94 q 836 39 836 46 q 833 28 836 32 q 822 22 831 25 q 550 -17 669 -17 m 540 924 q 460 955 496 924 q 413 1042 424 986 q 427 1057 411 1050 q 457 1064 443 1064 q 468 1060 468 1064 q 506 992 481 1015 q 564 968 532 968 q 620 990 594 968 q 658 1054 646 1013 q 665 1058 660 1058 q 677 1056 671 1058 q 683 1050 683 1053 q 626 956 667 989 q 540 924 586 924 z "},"Ǧ":{"ha":947,"x_min":68,"x_max":904,"o":"m 550 -17 q 293 41 403 -17 q 126 200 183 99 q 68 428 68 301 q 135 663 68 560 q 321 825 203 767 q 586 883 439 883 q 705 870 650 883 q 797 831 760 857 q 811 816 808 821 q 815 799 814 811 l 831 653 q 822 647 831 647 q 813 651 814 646 q 717 802 790 750 q 533 854 644 854 q 253 753 353 854 q 153 478 153 651 q 208 233 153 340 q 362 66 264 125 q 583 7 460 7 q 690 19 653 7 q 745 68 728 32 q 763 175 763 104 q 754 276 763 247 q 717 314 746 304 q 613 324 688 324 q 606 335 606 324 q 611 346 606 346 q 771 339 708 339 q 897 343 831 339 q 903 333 903 343 q 897 324 904 324 q 850 315 864 325 q 831 272 836 304 q 826 161 826 239 q 831 70 826 94 q 836 39 836 46 q 833 28 836 32 q 822 22 831 25 q 550 -17 669 -17 m 414 1067 l 414 1068 q 417 1074 414 1071 q 422 1076 421 1078 l 553 990 l 675 1078 l 676 1078 q 683 1073 679 1078 q 685 1067 688 1068 l 563 938 q 550 932 558 932 q 536 938 542 932 l 414 1067 z "},"Ĝ":{"ha":947,"x_min":68,"x_max":904,"o":"m 550 -17 q 293 41 403 -17 q 126 200 183 99 q 68 428 68 301 q 135 663 68 560 q 321 825 203 767 q 586 883 439 883 q 705 870 650 883 q 797 831 760 857 q 811 816 808 821 q 815 799 814 811 l 831 653 q 822 647 831 647 q 813 651 814 646 q 717 802 790 750 q 533 854 644 854 q 253 753 353 854 q 153 478 153 651 q 208 233 153 340 q 362 66 264 125 q 583 7 460 7 q 690 19 653 7 q 745 68 728 32 q 763 175 763 104 q 754 276 763 247 q 717 314 746 304 q 613 324 688 324 q 606 335 606 324 q 611 346 606 346 q 771 339 708 339 q 897 343 831 339 q 903 333 903 343 q 897 324 904 324 q 850 315 864 325 q 831 272 836 304 q 826 161 826 239 q 831 70 826 94 q 836 39 836 46 q 833 28 836 32 q 822 22 831 25 q 550 -17 669 -17 m 429 917 q 422 920 425 917 q 421 926 418 924 l 543 1054 q 556 1061 547 1061 q 569 1054 563 1061 l 692 926 l 692 924 q 689 917 692 919 q 683 917 686 914 l 551 1003 l 431 917 l 429 917 z "},"Ģ":{"ha":947,"x_min":68,"x_max":904,"o":"m 550 -17 q 293 41 403 -17 q 126 200 183 99 q 68 428 68 301 q 135 663 68 560 q 321 825 203 767 q 586 883 439 883 q 705 870 650 883 q 797 831 760 857 q 811 816 808 821 q 815 799 814 811 l 831 653 q 822 647 831 647 q 813 651 814 646 q 717 802 790 750 q 533 854 644 854 q 253 753 353 854 q 153 478 153 651 q 208 233 153 340 q 362 66 264 125 q 583 7 460 7 q 690 19 653 7 q 745 68 728 32 q 763 175 763 104 q 754 276 763 247 q 717 314 746 304 q 613 324 688 324 q 606 335 606 324 q 611 346 606 346 q 771 339 708 339 q 897 343 831 339 q 903 333 903 343 q 897 324 904 324 q 850 315 864 325 q 831 272 836 304 q 826 161 826 239 q 831 70 826 94 q 836 39 836 46 q 833 28 836 32 q 822 22 831 25 q 550 -17 669 -17 m 569 -124 q 624 -149 606 -124 q 643 -222 643 -174 q 623 -306 643 -268 q 563 -382 603 -344 l 560 -383 q 552 -379 556 -383 q 551 -372 549 -375 q 613 -240 613 -317 q 606 -201 613 -215 q 567 -221 594 -221 q 529 -208 542 -221 q 517 -172 517 -194 q 569 -124 517 -124 z "},"Ġ":{"ha":947,"x_min":68,"x_max":904,"o":"m 550 -17 q 293 41 403 -17 q 126 200 183 99 q 68 428 68 301 q 135 663 68 560 q 321 825 203 767 q 586 883 439 883 q 705 870 650 883 q 797 831 760 857 q 811 816 808 821 q 815 799 814 811 l 831 653 q 822 647 831 647 q 813 651 814 646 q 717 802 790 750 q 533 854 644 854 q 253 753 353 854 q 153 478 153 651 q 208 233 153 340 q 362 66 264 125 q 583 7 460 7 q 690 19 653 7 q 745 68 728 32 q 763 175 763 104 q 754 276 763 247 q 717 314 746 304 q 613 324 688 324 q 606 335 606 324 q 611 346 606 346 q 771 339 708 339 q 897 343 831 339 q 903 333 903 343 q 897 324 904 324 q 850 315 864 325 q 831 272 836 304 q 826 161 826 239 q 831 70 826 94 q 836 39 836 46 q 833 28 836 32 q 822 22 831 25 q 550 -17 669 -17 m 553 981 q 513 995 528 981 q 497 1035 497 1010 q 513 1072 497 1058 q 553 1086 528 1086 q 593 1072 579 1086 q 607 1035 607 1058 q 593 994 607 1008 q 553 981 579 981 z "},"Ḡ":{"ha":947,"x_min":68,"x_max":904,"o":"m 550 -17 q 293 41 403 -17 q 126 200 183 99 q 68 428 68 301 q 135 663 68 560 q 321 825 203 767 q 586 883 439 883 q 705 870 650 883 q 797 831 760 857 q 811 816 808 821 q 815 799 814 811 l 831 653 q 822 647 831 647 q 813 651 814 646 q 717 802 790 750 q 533 854 644 854 q 253 753 353 854 q 153 478 153 651 q 208 233 153 340 q 362 66 264 125 q 583 7 460 7 q 690 19 653 7 q 745 68 728 32 q 763 175 763 104 q 754 276 763 247 q 717 314 746 304 q 613 324 688 324 q 606 335 606 324 q 611 346 606 346 q 771 339 708 339 q 897 343 831 339 q 903 333 903 343 q 897 324 904 324 q 850 315 864 325 q 831 272 836 304 q 826 161 826 239 q 831 70 826 94 q 836 39 836 46 q 833 28 836 32 q 822 22 831 25 q 550 -17 669 -17 m 386 999 q 379 1017 379 999 q 386 1035 379 1035 l 719 1035 q 726 1017 726 1035 q 724 1004 726 1010 q 719 999 722 999 l 386 999 z "},"H":{"ha":1007,"x_min":51,"x_max":953,"o":"m 949 17 q 953 8 953 17 q 949 0 953 0 q 888 1 911 0 l 797 3 l 710 1 q 644 0 686 0 q 640 8 640 0 q 644 17 640 17 q 719 24 696 17 q 751 50 743 31 q 760 113 760 69 l 758 439 l 246 439 l 246 113 q 253 50 246 69 q 285 24 261 31 q 361 17 308 17 q 364 8 364 17 q 361 0 364 0 q 299 1 321 0 l 204 3 l 118 1 q 57 0 96 0 q 52 8 53 0 q 57 17 51 17 q 131 24 107 17 q 165 51 156 31 q 174 113 174 71 l 174 756 q 164 817 172 797 q 133 844 156 836 q 60 851 110 851 q 56 860 57 851 q 60 868 56 868 l 121 867 q 208 864 174 864 q 299 867 243 864 l 363 868 q 365 860 365 868 q 363 851 365 851 q 288 843 311 851 q 256 815 264 835 q 246 753 247 794 l 246 465 l 758 465 l 758 753 q 752 815 760 794 q 721 843 744 835 q 646 851 697 851 q 642 860 642 851 q 644 868 642 868 l 708 867 q 796 864 764 864 q 885 867 829 864 l 947 868 q 953 860 953 868 q 949 851 953 851 q 874 844 899 851 q 841 817 850 836 q 832 756 832 797 l 832 113 q 842 51 833 71 q 874 24 850 31 q 949 17 897 17 z "},"Ħ":{"ha":1007,"x_min":51,"x_max":953,"o":"m 949 17 q 953 8 953 17 q 949 0 953 0 q 888 1 911 0 l 797 3 l 710 1 q 644 0 686 0 q 640 8 640 0 q 644 17 640 17 q 719 24 696 17 q 751 50 743 31 q 760 113 760 69 l 760 308 l 246 308 l 246 113 q 253 50 246 69 q 285 24 261 31 q 361 17 308 17 q 364 8 364 17 q 361 0 364 0 q 299 1 321 0 l 204 3 l 118 1 q 57 0 96 0 q 52 8 53 0 q 57 17 51 17 q 131 24 107 17 q 165 51 156 31 q 174 113 174 71 l 174 756 q 164 817 172 797 q 133 844 156 836 q 60 851 110 851 q 56 860 57 851 q 60 868 56 868 l 121 867 q 208 864 174 864 q 299 867 243 864 l 363 868 q 365 860 365 868 q 363 851 365 851 q 288 843 311 851 q 256 815 264 835 q 246 753 247 794 l 246 594 l 758 594 l 758 753 q 752 815 760 794 q 721 843 744 835 q 646 851 697 851 q 642 860 642 851 q 644 868 642 868 l 708 867 q 796 864 764 864 q 885 867 829 864 l 947 868 q 953 860 953 868 q 949 851 953 851 q 874 844 899 851 q 841 817 850 836 q 832 756 832 797 l 832 113 q 842 51 833 71 q 874 24 850 31 q 949 17 897 17 m 246 335 l 760 335 l 758 568 l 246 568 l 246 335 z "},"Ḫ":{"ha":1007,"x_min":53,"x_max":953,"o":"m 949 17 q 953 8 953 17 q 949 0 953 0 q 888 1 911 0 l 797 3 l 710 1 q 644 0 686 0 q 640 8 640 0 q 644 17 640 17 q 719 24 696 17 q 751 50 743 31 q 760 113 760 69 l 758 439 l 246 439 l 246 113 q 253 50 246 69 q 285 24 261 31 q 361 17 308 17 q 364 8 364 17 q 361 0 364 0 q 299 1 321 0 l 204 3 l 118 1 q 57 0 96 0 q 52 8 53 0 q 57 17 51 17 q 131 24 107 17 q 165 51 156 31 q 174 113 174 71 l 174 756 q 164 817 172 797 q 133 844 156 836 q 60 851 110 851 q 56 860 57 851 q 60 868 56 868 l 121 867 q 208 864 174 864 q 299 867 243 864 l 363 868 q 365 860 365 868 q 363 851 365 851 q 288 843 311 851 q 256 815 264 835 q 246 753 247 794 l 246 465 l 758 465 l 758 753 q 752 815 760 794 q 721 843 744 835 q 646 851 697 851 q 642 860 642 851 q 644 868 642 868 l 708 867 q 796 864 764 864 q 885 867 829 864 l 947 868 q 953 860 953 868 q 949 851 953 851 q 874 844 899 851 q 841 817 850 836 q 832 756 832 797 l 832 113 q 842 51 833 71 q 874 24 850 31 q 949 17 897 17 m 514 -271 q 433 -240 469 -271 q 386 -153 397 -208 q 401 -137 385 -144 q 431 -131 417 -131 q 442 -135 442 -131 q 480 -203 454 -179 q 538 -226 506 -226 q 594 -204 568 -226 q 632 -140 619 -182 q 639 -136 633 -136 q 651 -139 644 -136 q 657 -144 657 -142 q 600 -238 640 -206 q 514 -271 560 -271 z "},"Ĥ":{"ha":1007,"x_min":53,"x_max":953,"o":"m 949 17 q 953 8 953 17 q 949 0 953 0 q 888 1 911 0 l 797 3 l 710 1 q 644 0 686 0 q 640 8 640 0 q 644 17 640 17 q 719 24 696 17 q 751 50 743 31 q 760 113 760 69 l 758 439 l 246 439 l 246 113 q 253 50 246 69 q 285 24 261 31 q 361 17 308 17 q 364 8 364 17 q 361 0 364 0 q 299 1 321 0 l 204 3 l 118 1 q 57 0 96 0 q 52 8 53 0 q 57 17 51 17 q 131 24 107 17 q 165 51 156 31 q 174 113 174 71 l 174 756 q 164 817 172 797 q 133 844 156 836 q 60 851 110 851 q 56 860 57 851 q 60 868 56 868 l 121 867 q 208 864 174 864 q 299 867 243 864 l 363 868 q 365 860 365 868 q 363 851 365 851 q 288 843 311 851 q 256 815 264 835 q 246 753 247 794 l 246 465 l 758 465 l 758 753 q 752 815 760 794 q 721 843 744 835 q 646 851 697 851 q 642 860 642 851 q 644 868 642 868 l 708 867 q 796 864 764 864 q 885 867 829 864 l 947 868 q 953 860 953 868 q 949 851 953 851 q 874 844 899 851 q 841 817 850 836 q 832 756 832 797 l 832 113 q 842 51 833 71 q 874 24 850 31 q 949 17 897 17 m 382 917 q 374 920 378 917 q 374 926 371 924 l 496 1054 q 508 1061 500 1061 q 522 1054 515 1061 l 644 926 l 644 924 q 642 917 644 919 q 636 917 639 914 l 504 1003 l 383 917 l 382 917 z "},"Ḥ":{"ha":1007,"x_min":53,"x_max":953,"o":"m 949 17 q 953 8 953 17 q 949 0 953 0 q 888 1 911 0 l 797 3 l 710 1 q 644 0 686 0 q 640 8 640 0 q 644 17 640 17 q 719 24 696 17 q 751 50 743 31 q 760 113 760 69 l 758 439 l 246 439 l 246 113 q 253 50 246 69 q 285 24 261 31 q 361 17 308 17 q 364 8 364 17 q 361 0 364 0 q 299 1 321 0 l 204 3 l 118 1 q 57 0 96 0 q 52 8 53 0 q 57 17 51 17 q 131 24 107 17 q 165 51 156 31 q 174 113 174 71 l 174 756 q 164 817 172 797 q 133 844 156 836 q 60 851 110 851 q 56 860 57 851 q 60 868 56 868 l 121 867 q 208 864 174 864 q 299 867 243 864 l 363 868 q 365 860 365 868 q 363 851 365 851 q 288 843 311 851 q 256 815 264 835 q 246 753 247 794 l 246 465 l 758 465 l 758 753 q 752 815 760 794 q 721 843 744 835 q 646 851 697 851 q 642 860 642 851 q 644 868 642 868 l 708 867 q 796 864 764 864 q 885 867 829 864 l 947 868 q 953 860 953 868 q 949 851 953 851 q 874 844 899 851 q 841 817 850 836 q 832 756 832 797 l 832 113 q 842 51 833 71 q 874 24 850 31 q 949 17 897 17 m 529 -257 q 488 -243 503 -257 q 474 -203 474 -229 q 488 -165 474 -179 q 529 -151 503 -151 q 568 -165 554 -151 q 582 -203 582 -179 q 568 -243 582 -229 q 529 -257 554 -257 z "},"I":{"ha":443,"x_min":65,"x_max":379,"o":"m 69 0 q 65 8 65 0 q 68 17 65 17 q 144 24 119 17 q 177 51 168 32 q 185 113 186 71 l 185 756 q 176 817 185 797 q 143 844 167 836 q 68 851 119 851 q 65 860 65 851 q 68 868 65 868 l 131 867 q 219 864 183 864 q 315 867 260 864 l 374 868 q 379 860 379 868 q 374 851 379 851 q 300 843 324 851 q 268 815 276 835 q 258 753 260 794 l 258 113 q 268 50 260 69 q 299 24 276 31 q 374 17 322 17 q 379 8 379 17 q 375 0 379 0 q 315 1 338 0 l 224 3 l 135 1 q 69 0 111 0 z "},"Ĳ":{"ha":929,"x_min":46,"x_max":897,"o":"m 54 374 q 47 382 47 374 q 51 390 46 390 q 130 397 106 390 q 163 424 154 404 q 172 486 172 444 l 172 756 q 163 817 172 797 q 130 844 154 836 q 51 851 106 851 q 46 860 46 851 q 51 868 46 868 l 122 867 q 213 864 181 864 q 313 867 251 864 l 374 868 q 381 860 381 868 q 374 851 381 851 q 296 843 321 851 q 262 815 271 835 q 251 753 253 794 l 251 486 q 260 424 251 443 q 292 397 268 404 q 372 390 317 390 q 378 382 378 390 q 374 374 379 374 q 307 375 332 374 l 210 376 l 119 375 q 54 374 96 374 m 461 -18 q 310 14 378 -18 q 203 94 242 46 q 164 188 164 142 q 200 232 164 232 q 239 213 228 232 q 260 154 250 194 q 284 77 269 108 q 339 24 299 46 q 453 1 379 1 q 644 74 583 1 q 706 278 706 147 l 706 756 q 696 817 706 797 q 658 844 686 836 q 568 851 631 851 q 564 860 564 851 q 568 868 564 868 l 647 867 q 744 864 708 864 q 832 867 779 864 l 890 868 q 897 860 897 868 q 890 851 897 851 q 821 843 843 851 q 791 815 799 835 q 782 753 783 794 l 783 358 q 742 154 783 239 q 629 26 701 69 q 461 -18 557 -18 z "},"Í":{"ha":443,"x_min":65,"x_max":428,"o":"m 69 0 q 65 8 65 0 q 68 17 65 17 q 144 24 119 17 q 177 51 168 32 q 185 113 186 71 l 185 756 q 176 817 185 797 q 143 844 167 836 q 68 851 119 851 q 65 860 65 851 q 68 868 65 868 l 131 867 q 219 864 183 864 q 315 867 260 864 l 374 868 q 379 860 379 868 q 374 851 379 851 q 300 843 324 851 q 268 815 276 835 q 258 753 260 794 l 258 113 q 268 50 260 69 q 299 24 276 31 q 374 17 322 17 q 379 8 379 17 q 375 0 379 0 q 315 1 338 0 l 224 3 l 135 1 q 69 0 111 0 m 133 942 q 125 948 128 942 q 126 957 122 954 q 285 1050 182 985 q 342 1086 314 1071 q 372 1081 347 1089 q 416 1062 397 1072 q 425 1050 435 1051 q 136 943 276 1011 l 133 942 z "},"Ĭ":{"ha":443,"x_min":65,"x_max":379,"o":"m 69 0 q 65 8 65 0 q 68 17 65 17 q 144 24 119 17 q 177 51 168 32 q 185 113 186 71 l 185 756 q 176 817 185 797 q 143 844 167 836 q 68 851 119 851 q 65 860 65 851 q 68 868 65 868 l 131 867 q 219 864 183 864 q 315 867 260 864 l 374 868 q 379 860 379 868 q 374 851 379 851 q 300 843 324 851 q 268 815 276 835 q 258 753 260 794 l 258 113 q 268 50 260 69 q 299 24 276 31 q 374 17 322 17 q 379 8 379 17 q 375 0 379 0 q 315 1 338 0 l 224 3 l 135 1 q 69 0 111 0 m 214 924 q 133 955 169 924 q 86 1042 97 986 q 101 1057 85 1050 q 131 1064 117 1064 q 142 1060 142 1064 q 180 992 154 1015 q 238 968 206 968 q 294 990 268 968 q 332 1054 319 1013 q 339 1058 335 1058 q 351 1056 344 1058 q 357 1050 357 1053 q 300 956 340 989 q 214 924 260 924 z "},"Ǐ":{"ha":443,"x_min":65,"x_max":379,"o":"m 69 0 q 65 8 65 0 q 68 17 65 17 q 144 24 119 17 q 177 51 168 32 q 185 113 186 71 l 185 756 q 176 817 185 797 q 143 844 167 836 q 68 851 119 851 q 65 860 65 851 q 68 868 65 868 l 131 867 q 219 864 183 864 q 315 867 260 864 l 374 868 q 379 860 379 868 q 374 851 379 851 q 300 843 324 851 q 268 815 276 835 q 258 753 260 794 l 258 113 q 268 50 260 69 q 299 24 276 31 q 374 17 322 17 q 379 8 379 17 q 375 0 379 0 q 315 1 338 0 l 224 3 l 135 1 q 69 0 111 0 m 79 1067 l 79 1068 q 83 1074 79 1071 q 88 1076 86 1078 l 218 990 l 340 1078 l 342 1078 q 349 1073 344 1078 q 350 1067 353 1068 l 228 938 q 215 932 224 932 q 201 938 207 932 l 79 1067 z "},"Î":{"ha":443,"x_min":65,"x_max":379,"o":"m 69 0 q 65 8 65 0 q 68 17 65 17 q 144 24 119 17 q 177 51 168 32 q 185 113 186 71 l 185 756 q 176 817 185 797 q 143 844 167 836 q 68 851 119 851 q 65 860 65 851 q 68 868 65 868 l 131 867 q 219 864 183 864 q 315 867 260 864 l 374 868 q 379 860 379 868 q 374 851 379 851 q 300 843 324 851 q 268 815 276 835 q 258 753 260 794 l 258 113 q 268 50 260 69 q 299 24 276 31 q 374 17 322 17 q 379 8 379 17 q 375 0 379 0 q 315 1 338 0 l 224 3 l 135 1 q 69 0 111 0 m 94 917 q 87 920 90 917 q 86 926 83 924 l 208 1054 q 221 1061 213 1061 q 235 1054 228 1061 l 357 926 l 357 924 q 354 917 357 919 q 349 917 351 914 l 217 1003 l 96 917 l 94 917 z "},"Ï":{"ha":443,"x_min":65,"x_max":379,"o":"m 69 0 q 65 8 65 0 q 68 17 65 17 q 144 24 119 17 q 177 51 168 32 q 185 113 186 71 l 185 756 q 176 817 185 797 q 143 844 167 836 q 68 851 119 851 q 65 860 65 851 q 68 868 65 868 l 131 867 q 219 864 183 864 q 315 867 260 864 l 374 868 q 379 860 379 868 q 374 851 379 851 q 300 843 324 851 q 268 815 276 835 q 258 753 260 794 l 258 113 q 268 50 260 69 q 299 24 276 31 q 374 17 322 17 q 379 8 379 17 q 375 0 379 0 q 315 1 338 0 l 224 3 l 135 1 q 69 0 111 0 m 126 1000 q 86 1014 101 1000 q 71 1053 71 1028 q 86 1092 71 1078 q 126 1106 101 1106 q 167 1092 153 1106 q 181 1053 181 1078 q 167 1014 181 1028 q 126 1000 153 1000 m 310 1000 q 270 1014 285 1000 q 256 1053 256 1028 q 270 1092 256 1078 q 310 1106 285 1106 q 350 1092 336 1106 q 364 1053 364 1078 q 350 1014 364 1028 q 310 1000 336 1000 z "},"İ":{"ha":443,"x_min":65,"x_max":379,"o":"m 69 0 q 65 8 65 0 q 68 17 65 17 q 144 24 119 17 q 177 51 168 32 q 185 113 186 71 l 185 756 q 176 817 185 797 q 143 844 167 836 q 68 851 119 851 q 65 860 65 851 q 68 868 65 868 l 131 867 q 219 864 183 864 q 315 867 260 864 l 374 868 q 379 860 379 868 q 374 851 379 851 q 300 843 324 851 q 268 815 276 835 q 258 753 260 794 l 258 113 q 268 50 260 69 q 299 24 276 31 q 374 17 322 17 q 379 8 379 17 q 375 0 379 0 q 315 1 338 0 l 224 3 l 135 1 q 69 0 111 0 m 218 981 q 178 995 193 981 q 163 1035 163 1010 q 178 1072 163 1058 q 218 1086 193 1086 q 258 1072 244 1086 q 272 1035 272 1058 q 258 994 272 1008 q 218 981 244 981 z "},"Ị":{"ha":443,"x_min":65,"x_max":379,"o":"m 69 0 q 65 8 65 0 q 68 17 65 17 q 144 24 119 17 q 177 51 168 32 q 185 113 186 71 l 185 756 q 176 817 185 797 q 143 844 167 836 q 68 851 119 851 q 65 860 65 851 q 68 868 65 868 l 131 867 q 219 864 183 864 q 315 867 260 864 l 374 868 q 379 860 379 868 q 374 851 379 851 q 300 843 324 851 q 268 815 276 835 q 258 753 260 794 l 258 113 q 268 50 260 69 q 299 24 276 31 q 374 17 322 17 q 379 8 379 17 q 375 0 379 0 q 315 1 338 0 l 224 3 l 135 1 q 69 0 111 0 m 228 -257 q 187 -243 201 -257 q 172 -203 172 -229 q 187 -165 172 -179 q 228 -151 201 -151 q 267 -165 253 -151 q 281 -203 281 -179 q 267 -243 281 -229 q 228 -257 253 -257 z "},"Ì":{"ha":443,"x_min":65,"x_max":379,"o":"m 69 0 q 65 8 65 0 q 68 17 65 17 q 144 24 119 17 q 177 51 168 32 q 185 113 186 71 l 185 756 q 176 817 185 797 q 143 844 167 836 q 68 851 119 851 q 65 860 65 851 q 68 868 65 868 l 131 867 q 219 864 183 864 q 315 867 260 864 l 374 868 q 379 860 379 868 q 374 851 379 851 q 300 843 324 851 q 268 815 276 835 q 258 753 260 794 l 258 113 q 268 50 260 69 q 299 24 276 31 q 374 17 322 17 q 379 8 379 17 q 375 0 379 0 q 315 1 338 0 l 224 3 l 135 1 q 69 0 111 0 m 350 943 q 72 1050 210 1013 q 81 1062 63 1051 q 126 1081 100 1072 q 157 1086 151 1089 q 186 1067 176 1072 q 354 957 275 1001 q 358 951 358 956 q 356 944 358 947 q 350 943 353 942 z "},"Ỉ":{"ha":443,"x_min":65,"x_max":379,"o":"m 69 0 q 65 8 65 0 q 68 17 65 17 q 144 24 119 17 q 177 51 168 32 q 185 113 186 71 l 185 756 q 176 817 185 797 q 143 844 167 836 q 68 851 119 851 q 65 860 65 851 q 68 868 65 868 l 131 867 q 219 864 183 864 q 315 867 260 864 l 374 868 q 379 860 379 868 q 374 851 379 851 q 300 843 324 851 q 268 815 276 835 q 258 753 260 794 l 258 113 q 268 50 260 69 q 299 24 276 31 q 374 17 322 17 q 379 8 379 17 q 375 0 379 0 q 315 1 338 0 l 224 3 l 135 1 q 69 0 111 0 m 225 901 q 219 899 228 899 q 208 901 211 899 q 204 928 204 917 q 213 965 204 949 q 236 1007 221 982 q 259 1044 251 1031 q 265 1076 267 1058 q 247 1118 265 1103 q 203 1133 228 1133 q 167 1126 183 1133 l 164 1125 q 157 1130 160 1125 q 158 1138 154 1135 q 243 1163 199 1163 q 306 1142 283 1163 q 329 1092 329 1122 q 315 1049 328 1067 q 274 1000 303 1031 q 235 958 249 976 q 222 918 222 939 q 225 901 222 913 z "},"Ī":{"ha":443,"x_min":54,"x_max":401,"o":"m 69 0 q 65 8 65 0 q 68 17 65 17 q 144 24 119 17 q 177 51 168 32 q 185 113 186 71 l 185 756 q 176 817 185 797 q 143 844 167 836 q 68 851 119 851 q 65 860 65 851 q 68 868 65 868 l 131 867 q 219 864 183 864 q 315 867 260 864 l 374 868 q 379 860 379 868 q 374 851 379 851 q 300 843 324 851 q 268 815 276 835 q 258 753 260 794 l 258 113 q 268 50 260 69 q 299 24 276 31 q 374 17 322 17 q 379 8 379 17 q 375 0 379 0 q 315 1 338 0 l 224 3 l 135 1 q 69 0 111 0 m 61 999 q 56 1004 58 999 q 54 1017 54 1010 q 61 1035 54 1035 l 394 1035 q 401 1017 401 1035 q 394 999 401 999 l 61 999 z "},"Į":{"ha":443,"x_min":65,"x_max":379,"o":"m 374 17 q 379 8 379 17 q 375 0 379 0 q 315 1 338 0 l 224 3 q 157 -208 157 -93 q 180 -308 157 -272 q 244 -344 203 -344 q 284 -335 268 -344 q 318 -308 300 -326 l 319 -308 q 328 -312 324 -308 q 331 -319 332 -317 q 276 -367 301 -353 q 221 -382 251 -382 q 136 -345 168 -382 q 104 -249 104 -308 q 204 3 104 -136 l 128 1 q 69 0 107 0 q 65 8 65 0 q 68 17 65 17 q 144 24 119 17 q 177 51 168 32 q 185 113 186 71 l 185 756 q 176 817 185 797 q 143 844 167 836 q 68 851 119 851 q 65 860 65 851 q 68 868 65 868 l 131 867 q 219 864 183 864 q 315 867 260 864 l 374 868 q 379 860 379 868 q 374 851 379 851 q 300 843 324 851 q 268 815 276 835 q 258 753 260 794 l 258 113 q 268 50 260 69 q 299 24 276 31 q 374 17 322 17 z "},"Ĩ":{"ha":443,"x_min":42,"x_max":399,"o":"m 69 0 q 65 8 65 0 q 68 17 65 17 q 144 24 119 17 q 177 51 168 32 q 185 113 186 71 l 185 756 q 176 817 185 797 q 143 844 167 836 q 68 851 119 851 q 65 860 65 851 q 68 868 65 868 l 131 867 q 219 864 183 864 q 315 867 260 864 l 374 868 q 379 860 379 868 q 374 851 379 851 q 300 843 324 851 q 268 815 276 835 q 258 753 260 794 l 258 113 q 268 50 260 69 q 299 24 276 31 q 374 17 322 17 q 379 8 379 17 q 375 0 379 0 q 315 1 338 0 l 224 3 l 135 1 q 69 0 111 0 m 51 968 q 44 972 49 968 q 42 978 40 975 q 85 1033 58 1008 q 144 1058 113 1058 q 219 1043 168 1058 q 325 1024 283 1024 q 360 1033 349 1024 q 388 1061 372 1042 l 389 1061 q 397 1058 393 1061 q 399 1051 400 1054 q 351 989 372 1006 q 304 972 331 972 q 249 979 278 972 q 215 988 221 986 q 114 1006 156 1006 q 82 999 93 1006 q 63 982 71 992 q 53 968 56 972 l 51 968 z "},"J":{"ha":399,"x_min":49,"x_max":364,"o":"m 65 -269 q 56 -263 61 -271 q 57 -253 51 -256 q 144 -139 118 -215 q 169 56 171 -62 l 169 756 q 160 817 169 797 q 127 844 151 836 q 51 851 103 851 q 49 860 49 851 q 51 868 49 868 l 115 867 q 203 864 171 864 q 300 867 242 864 l 358 868 q 363 860 364 868 q 358 851 363 851 q 284 843 308 851 q 251 815 260 835 q 242 753 243 794 l 242 93 q 225 -83 242 -17 q 171 -193 208 -150 q 65 -269 133 -236 z "},"Ĵ":{"ha":399,"x_min":49,"x_max":363,"o":"m 65 -269 q 56 -263 61 -271 q 57 -253 51 -256 q 144 -139 118 -215 q 169 56 171 -62 l 169 756 q 160 817 169 797 q 127 844 151 836 q 51 851 103 851 q 49 860 49 851 q 51 868 49 868 l 115 867 q 203 864 171 864 q 300 867 242 864 l 358 868 q 363 860 364 868 q 358 851 363 851 q 284 843 308 851 q 251 815 260 835 q 242 753 243 794 l 242 93 q 225 -83 242 -17 q 171 -193 208 -150 q 65 -269 133 -236 m 76 917 q 69 920 72 917 q 68 926 65 924 l 190 1054 q 203 1061 194 1061 q 217 1054 210 1061 l 339 926 l 339 924 q 336 917 339 919 q 331 917 333 914 l 199 1003 l 78 917 l 76 917 z "},"K":{"ha":881,"x_min":51,"x_max":869,"o":"m 865 17 q 869 8 869 17 q 865 0 869 0 l 743 0 q 681 6 696 0 q 594 103 667 13 q 515 201 522 193 l 293 472 l 246 428 l 246 113 q 249 47 246 64 q 272 24 253 31 q 343 17 292 17 q 346 8 346 17 q 343 0 346 0 q 289 1 308 0 l 204 3 l 118 1 q 57 0 96 0 q 52 8 53 0 q 57 17 51 17 q 131 24 107 17 q 165 51 156 31 q 174 113 174 71 l 174 756 q 164 817 172 797 q 133 844 156 836 q 60 851 110 851 q 56 860 57 851 q 60 868 56 868 l 121 867 q 208 864 174 864 q 299 867 243 864 l 363 868 q 365 860 365 868 q 363 851 365 851 q 288 843 311 851 q 256 815 264 835 q 246 753 247 794 l 246 458 l 564 764 q 608 829 608 811 q 590 847 608 842 q 533 851 572 851 q 529 860 529 851 q 533 868 529 868 l 585 867 q 678 864 635 864 q 764 867 719 864 l 811 868 q 814 860 814 868 q 811 851 814 851 q 594 756 686 851 l 344 519 l 546 276 q 704 97 650 151 q 789 30 758 43 q 865 17 819 17 z "},"Ḱ":{"ha":881,"x_min":53,"x_max":869,"o":"m 865 17 q 869 8 869 17 q 865 0 869 0 l 743 0 q 681 6 696 0 q 594 103 667 13 q 515 201 522 193 l 293 472 l 246 428 l 246 113 q 249 47 246 64 q 272 24 253 31 q 343 17 292 17 q 346 8 346 17 q 343 0 346 0 q 289 1 308 0 l 204 3 l 118 1 q 57 0 96 0 q 52 8 53 0 q 57 17 51 17 q 131 24 107 17 q 165 51 156 31 q 174 113 174 71 l 174 756 q 164 817 172 797 q 133 844 156 836 q 60 851 110 851 q 56 860 57 851 q 60 868 56 868 l 121 867 q 208 864 174 864 q 299 867 243 864 l 363 868 q 365 860 365 868 q 363 851 365 851 q 288 843 311 851 q 256 815 264 835 q 246 753 247 794 l 246 458 l 564 764 q 608 829 608 811 q 590 847 608 842 q 533 851 572 851 q 529 860 529 851 q 533 868 529 868 l 585 867 q 678 864 635 864 q 764 867 719 864 l 811 868 q 814 860 814 868 q 811 851 814 851 q 594 756 686 851 l 344 519 l 546 276 q 704 97 650 151 q 789 30 758 43 q 865 17 819 17 m 369 942 q 361 948 364 942 q 363 957 358 954 q 521 1050 418 985 q 578 1086 550 1071 q 608 1081 583 1089 q 652 1062 633 1072 q 661 1050 671 1051 q 372 943 513 1011 l 369 942 z "},"Ǩ":{"ha":881,"x_min":53,"x_max":869,"o":"m 865 17 q 869 8 869 17 q 865 0 869 0 l 743 0 q 681 6 696 0 q 594 103 667 13 q 515 201 522 193 l 293 472 l 246 428 l 246 113 q 249 47 246 64 q 272 24 253 31 q 343 17 292 17 q 346 8 346 17 q 343 0 346 0 q 289 1 308 0 l 204 3 l 118 1 q 57 0 96 0 q 52 8 53 0 q 57 17 51 17 q 131 24 107 17 q 165 51 156 31 q 174 113 174 71 l 174 756 q 164 817 172 797 q 133 844 156 836 q 60 851 110 851 q 56 860 57 851 q 60 868 56 868 l 121 867 q 208 864 174 864 q 299 867 243 864 l 363 868 q 365 860 365 868 q 363 851 365 851 q 288 843 311 851 q 256 815 264 835 q 246 753 247 794 l 246 458 l 564 764 q 608 829 608 811 q 590 847 608 842 q 533 851 572 851 q 529 860 529 851 q 533 868 529 868 l 585 867 q 678 864 635 864 q 764 867 719 864 l 811 868 q 814 860 814 868 q 811 851 814 851 q 594 756 686 851 l 344 519 l 546 276 q 704 97 650 151 q 789 30 758 43 q 865 17 819 17 m 315 1067 l 315 1068 q 319 1074 315 1071 q 324 1076 322 1078 l 454 990 l 576 1078 l 578 1078 q 585 1073 581 1078 q 586 1067 589 1068 l 464 938 q 451 932 460 932 q 438 938 443 932 l 315 1067 z "},"Ķ":{"ha":881,"x_min":53,"x_max":869,"o":"m 865 17 q 869 8 869 17 q 865 0 869 0 l 743 0 q 681 6 696 0 q 594 103 667 13 q 515 201 522 193 l 293 472 l 246 428 l 246 113 q 249 47 246 64 q 272 24 253 31 q 343 17 292 17 q 346 8 346 17 q 343 0 346 0 q 289 1 308 0 l 204 3 l 118 1 q 57 0 96 0 q 52 8 53 0 q 57 17 51 17 q 131 24 107 17 q 165 51 156 31 q 174 113 174 71 l 174 756 q 164 817 172 797 q 133 844 156 836 q 60 851 110 851 q 56 860 57 851 q 60 868 56 868 l 121 867 q 208 864 174 864 q 299 867 243 864 l 363 868 q 365 860 365 868 q 363 851 365 851 q 288 843 311 851 q 256 815 264 835 q 246 753 247 794 l 246 458 l 564 764 q 608 829 608 811 q 590 847 608 842 q 533 851 572 851 q 529 860 529 851 q 533 868 529 868 l 585 867 q 678 864 635 864 q 764 867 719 864 l 811 868 q 814 860 814 868 q 811 851 814 851 q 594 756 686 851 l 344 519 l 546 276 q 704 97 650 151 q 789 30 758 43 q 865 17 819 17 m 489 -124 q 544 -149 525 -124 q 563 -222 563 -174 q 542 -306 563 -268 q 482 -382 522 -344 l 479 -383 q 472 -379 475 -383 q 471 -372 468 -375 q 532 -240 532 -317 q 525 -201 532 -215 q 486 -221 514 -221 q 449 -208 461 -221 q 436 -172 436 -194 q 489 -124 436 -124 z "},"L":{"ha":738,"x_min":54,"x_max":726,"o":"m 58 0 q 55 8 56 0 q 58 17 54 17 q 132 24 108 17 q 165 51 156 31 q 174 113 174 71 l 174 756 q 164 817 172 797 q 133 844 156 836 q 60 851 110 851 q 56 860 57 851 q 60 868 56 868 l 121 867 q 208 864 174 864 q 299 867 243 864 l 363 868 q 365 860 365 868 q 363 851 365 851 q 288 844 311 851 q 256 816 264 836 q 246 754 247 796 l 246 118 q 255 58 247 76 q 285 32 263 39 q 358 25 308 25 l 540 25 q 658 72 619 25 q 708 204 696 118 q 715 208 708 208 q 723 207 719 208 q 726 203 726 206 q 717 21 717 118 q 711 5 717 10 q 693 0 706 0 l 58 0 z "},"Ĺ":{"ha":738,"x_min":54,"x_max":726,"o":"m 58 0 q 55 8 56 0 q 58 17 54 17 q 132 24 108 17 q 165 51 156 31 q 174 113 174 71 l 174 756 q 164 817 172 797 q 133 844 156 836 q 60 851 110 851 q 56 860 57 851 q 60 868 56 868 l 121 867 q 208 864 174 864 q 299 867 243 864 l 363 868 q 365 860 365 868 q 363 851 365 851 q 288 844 311 851 q 256 816 264 836 q 246 754 247 796 l 246 118 q 255 58 247 76 q 285 32 263 39 q 358 25 308 25 l 540 25 q 658 72 619 25 q 708 204 696 118 q 715 208 708 208 q 723 207 719 208 q 726 203 726 206 q 717 21 717 118 q 711 5 717 10 q 693 0 706 0 l 58 0 m 122 942 q 114 948 117 942 q 115 957 111 954 q 274 1050 171 985 q 331 1086 303 1071 q 361 1081 336 1089 q 405 1062 386 1072 q 414 1050 424 1051 q 125 943 265 1011 l 122 942 z "},"Ľ":{"ha":738,"x_min":54,"x_max":726,"o":"m 58 0 q 55 8 56 0 q 58 17 54 17 q 132 24 108 17 q 165 51 156 31 q 174 113 174 71 l 174 756 q 164 817 172 797 q 133 844 156 836 q 60 851 110 851 q 56 860 57 851 q 60 868 56 868 l 121 867 q 208 864 174 864 q 299 867 243 864 l 363 868 q 365 860 365 868 q 363 851 365 851 q 288 844 311 851 q 256 816 264 836 q 246 754 247 796 l 246 118 q 255 58 247 76 q 285 32 263 39 q 358 25 308 25 l 540 25 q 658 72 619 25 q 708 204 696 118 q 715 208 708 208 q 723 207 719 208 q 726 203 726 206 q 717 21 717 118 q 711 5 717 10 q 693 0 706 0 l 58 0 m 550 868 q 566 867 550 875 q 597 847 582 860 q 610 829 611 835 l 575 490 q 568 488 575 488 q 560 490 561 488 l 550 868 z "},"Ļ":{"ha":738,"x_min":54,"x_max":726,"o":"m 58 0 q 55 8 56 0 q 58 17 54 17 q 132 24 108 17 q 165 51 156 31 q 174 113 174 71 l 174 756 q 164 817 172 797 q 133 844 156 836 q 60 851 110 851 q 56 860 57 851 q 60 868 56 868 l 121 867 q 208 864 174 864 q 299 867 243 864 l 363 868 q 365 860 365 868 q 363 851 365 851 q 288 844 311 851 q 256 816 264 836 q 246 754 247 796 l 246 118 q 255 58 247 76 q 285 32 263 39 q 358 25 308 25 l 540 25 q 658 72 619 25 q 708 204 696 118 q 715 208 708 208 q 723 207 719 208 q 726 203 726 206 q 717 21 717 118 q 711 5 717 10 q 693 0 706 0 l 58 0 m 422 -124 q 477 -149 458 -124 q 496 -222 496 -174 q 476 -306 496 -268 q 415 -382 456 -344 l 413 -383 q 405 -379 408 -383 q 404 -372 401 -375 q 465 -240 465 -317 q 458 -201 465 -215 q 419 -221 447 -221 q 382 -208 394 -221 q 369 -172 369 -194 q 422 -124 369 -124 z "},"Ŀ":{"ha":738,"x_min":54,"x_max":726,"o":"m 58 0 q 55 8 56 0 q 58 17 54 17 q 132 24 108 17 q 165 51 156 31 q 174 113 174 71 l 174 756 q 164 817 172 797 q 133 844 156 836 q 60 851 110 851 q 56 860 57 851 q 60 868 56 868 l 121 867 q 208 864 174 864 q 299 867 243 864 l 363 868 q 365 860 365 868 q 363 851 365 851 q 288 844 311 851 q 256 816 264 836 q 246 754 247 796 l 246 118 q 255 58 247 76 q 285 32 263 39 q 358 25 308 25 l 540 25 q 658 72 619 25 q 708 204 696 118 q 715 208 708 208 q 723 207 719 208 q 726 203 726 206 q 717 21 717 118 q 711 5 717 10 q 693 0 706 0 l 58 0 m 601 399 q 561 413 576 399 q 546 453 546 428 q 561 490 546 476 q 601 504 576 504 q 642 490 628 504 q 656 453 656 476 q 642 413 656 428 q 601 399 628 399 z "},"Ḷ":{"ha":738,"x_min":54,"x_max":726,"o":"m 58 0 q 55 8 56 0 q 58 17 54 17 q 132 24 108 17 q 165 51 156 31 q 174 113 174 71 l 174 756 q 164 817 172 797 q 133 844 156 836 q 60 851 110 851 q 56 860 57 851 q 60 868 56 868 l 121 867 q 208 864 174 864 q 299 867 243 864 l 363 868 q 365 860 365 868 q 363 851 365 851 q 288 844 311 851 q 256 816 264 836 q 246 754 247 796 l 246 118 q 255 58 247 76 q 285 32 263 39 q 358 25 308 25 l 540 25 q 658 72 619 25 q 708 204 696 118 q 715 208 708 208 q 723 207 719 208 q 726 203 726 206 q 717 21 717 118 q 711 5 717 10 q 693 0 706 0 l 58 0 m 426 -257 q 385 -243 400 -257 q 371 -203 371 -229 q 385 -165 371 -179 q 426 -151 400 -151 q 465 -165 451 -151 q 479 -203 479 -179 q 465 -243 479 -229 q 426 -257 451 -257 z "},"Ḹ":{"ha":738,"x_min":33,"x_max":726,"o":"m 58 0 q 55 8 56 0 q 58 17 54 17 q 132 24 108 17 q 165 51 156 31 q 174 113 174 71 l 174 756 q 164 817 172 797 q 133 844 156 836 q 60 851 110 851 q 56 860 57 851 q 60 868 56 868 l 121 867 q 208 864 174 864 q 299 867 243 864 l 363 868 q 365 860 365 868 q 363 851 365 851 q 288 844 311 851 q 256 816 264 836 q 246 754 247 796 l 246 118 q 255 58 247 76 q 285 32 263 39 q 358 25 308 25 l 540 25 q 658 72 619 25 q 708 204 696 118 q 715 208 708 208 q 723 207 719 208 q 726 203 726 206 q 717 21 717 118 q 711 5 717 10 q 693 0 706 0 l 58 0 m 426 -257 q 385 -243 400 -257 q 371 -203 371 -229 q 385 -165 371 -179 q 426 -151 400 -151 q 465 -165 451 -151 q 479 -203 479 -179 q 465 -243 479 -229 q 426 -257 451 -257 m 40 999 q 33 1017 33 999 q 40 1035 33 1035 l 374 1035 q 381 1017 381 1035 q 378 1004 381 1010 q 374 999 376 999 l 40 999 z "},"Ḻ":{"ha":738,"x_min":54,"x_max":726,"o":"m 58 0 q 55 8 56 0 q 58 17 54 17 q 132 24 108 17 q 165 51 156 31 q 174 113 174 71 l 174 756 q 164 817 172 797 q 133 844 156 836 q 60 851 110 851 q 56 860 57 851 q 60 868 56 868 l 121 867 q 208 864 174 864 q 299 867 243 864 l 363 868 q 365 860 365 868 q 363 851 365 851 q 288 844 311 851 q 256 816 264 836 q 246 754 247 796 l 246 118 q 255 58 247 76 q 285 32 263 39 q 358 25 308 25 l 540 25 q 658 72 619 25 q 708 204 696 118 q 715 208 708 208 q 723 207 719 208 q 726 203 726 206 q 717 21 717 118 q 711 5 717 10 q 693 0 706 0 l 58 0 m 253 -161 q 246 -143 246 -161 q 253 -125 246 -125 l 586 -125 q 591 -131 589 -125 q 593 -143 593 -136 q 586 -161 593 -161 l 253 -161 z "},"Ł":{"ha":785,"x_min":94,"x_max":767,"o":"m 749 204 q 756 208 749 208 q 763 207 760 208 q 767 203 767 206 q 757 21 757 118 q 751 5 757 10 q 733 0 746 0 l 99 0 q 95 8 96 0 q 99 17 94 17 q 172 24 149 17 q 205 51 196 31 q 214 113 214 71 l 214 386 l 132 333 l 131 333 q 117 343 125 333 q 114 356 110 353 l 214 419 l 214 756 q 204 817 213 797 q 173 844 196 836 q 100 851 150 851 q 97 860 97 851 q 100 868 96 868 l 161 867 q 249 864 214 864 q 339 867 283 864 l 403 868 q 406 860 406 868 q 403 851 406 851 q 328 844 351 851 q 296 816 304 836 q 286 754 288 796 l 286 467 l 386 531 l 388 531 q 402 520 394 531 q 404 508 410 510 l 286 432 l 286 118 q 295 58 288 76 q 326 32 303 39 q 399 25 349 25 l 581 25 q 698 72 660 25 q 749 204 736 118 z "},"M":{"ha":1099,"x_min":65,"x_max":1061,"o":"m 1057 17 q 1061 8 1061 17 q 1057 0 1061 0 q 997 1 1019 0 l 904 3 l 815 1 q 754 0 793 0 q 749 8 750 0 q 754 17 749 17 q 830 24 806 17 q 863 51 854 32 q 869 113 871 71 l 850 772 l 544 10 q 535 4 544 4 q 524 11 526 4 l 207 753 l 203 763 l 200 144 q 222 44 201 72 q 296 17 242 17 q 301 8 300 17 q 296 0 301 0 q 250 1 265 0 l 183 3 l 121 1 q 69 0 103 0 q 65 8 65 0 q 68 17 65 17 q 147 45 124 17 q 171 144 171 74 l 175 807 q 71 851 138 851 q 67 860 67 851 q 69 868 67 868 l 117 867 q 151 865 131 865 q 187 867 172 865 q 208 868 201 868 q 237 854 225 868 q 269 796 249 840 l 558 118 l 846 833 q 863 858 851 849 q 889 868 875 868 q 909 867 896 868 q 942 865 922 865 l 1004 867 q 1046 868 1019 868 q 1050 860 1050 868 q 1046 851 1050 851 q 948 833 978 851 q 921 758 918 814 l 940 113 q 951 50 943 69 q 983 24 960 31 q 1057 17 1006 17 z "},"Ṁ":{"ha":1099,"x_min":65,"x_max":1061,"o":"m 1057 17 q 1061 8 1061 17 q 1057 0 1061 0 q 997 1 1019 0 l 904 3 l 815 1 q 754 0 793 0 q 749 8 750 0 q 754 17 749 17 q 830 24 806 17 q 863 51 854 32 q 869 113 871 71 l 850 772 l 544 10 q 535 4 544 4 q 524 11 526 4 l 207 753 l 203 763 l 200 144 q 222 44 201 72 q 296 17 242 17 q 301 8 300 17 q 296 0 301 0 q 250 1 265 0 l 183 3 l 121 1 q 69 0 103 0 q 65 8 65 0 q 68 17 65 17 q 147 45 124 17 q 171 144 171 74 l 175 807 q 71 851 138 851 q 67 860 67 851 q 69 868 67 868 l 117 867 q 151 865 131 865 q 187 867 172 865 q 208 868 201 868 q 237 854 225 868 q 269 796 249 840 l 558 118 l 846 833 q 863 858 851 849 q 889 868 875 868 q 909 867 896 868 q 942 865 922 865 l 1004 867 q 1046 868 1019 868 q 1050 860 1050 868 q 1046 851 1050 851 q 948 833 978 851 q 921 758 918 814 l 940 113 q 951 50 943 69 q 983 24 960 31 q 1057 17 1006 17 m 547 981 q 507 995 522 981 q 492 1035 492 1010 q 507 1072 492 1058 q 547 1086 522 1086 q 588 1072 574 1086 q 601 1035 601 1058 q 588 994 601 1008 q 547 981 574 981 z "},"Ṃ":{"ha":1099,"x_min":65,"x_max":1061,"o":"m 1057 17 q 1061 8 1061 17 q 1057 0 1061 0 q 997 1 1019 0 l 904 3 l 815 1 q 754 0 793 0 q 749 8 750 0 q 754 17 749 17 q 830 24 806 17 q 863 51 854 32 q 869 113 871 71 l 850 772 l 544 10 q 535 4 544 4 q 524 11 526 4 l 207 753 l 203 763 l 200 144 q 222 44 201 72 q 296 17 242 17 q 301 8 300 17 q 296 0 301 0 q 250 1 265 0 l 183 3 l 121 1 q 69 0 103 0 q 65 8 65 0 q 68 17 65 17 q 147 45 124 17 q 171 144 171 74 l 175 807 q 71 851 138 851 q 67 860 67 851 q 69 868 67 868 l 117 867 q 151 865 131 865 q 187 867 172 865 q 208 868 201 868 q 237 854 225 868 q 269 796 249 840 l 558 118 l 846 833 q 863 858 851 849 q 889 868 875 868 q 909 867 896 868 q 942 865 922 865 l 1004 867 q 1046 868 1019 868 q 1050 860 1050 868 q 1046 851 1050 851 q 948 833 978 851 q 921 758 918 814 l 940 113 q 951 50 943 69 q 983 24 960 31 q 1057 17 1006 17 m 554 -257 q 513 -243 528 -257 q 499 -203 499 -229 q 513 -165 499 -179 q 554 -151 528 -151 q 593 -165 579 -151 q 607 -203 607 -179 q 593 -243 607 -229 q 554 -257 579 -257 z "},"N":{"ha":978,"x_min":60,"x_max":922,"o":"m 919 868 q 922 860 922 868 q 919 851 922 851 q 840 822 864 851 q 817 722 815 792 l 817 -15 q 810 -19 815 -19 q 799 -15 803 -19 l 213 754 l 192 781 l 193 144 q 215 45 194 74 q 290 17 236 17 q 294 8 294 17 q 290 0 294 0 q 244 1 260 0 l 179 3 l 114 1 q 64 0 96 0 q 60 8 60 0 q 64 17 60 17 q 143 46 119 17 q 165 144 167 75 l 165 807 q 65 851 117 851 q 61 860 61 851 q 65 868 61 868 l 115 867 q 156 865 131 865 q 193 867 178 865 q 217 868 208 868 q 231 863 226 868 q 244 843 236 858 q 275 796 268 806 l 792 110 l 789 722 q 767 823 788 794 q 692 851 746 851 q 689 860 689 851 q 692 868 689 868 l 739 867 q 804 864 778 864 q 867 867 828 864 l 919 868 z "},"Ń":{"ha":978,"x_min":60,"x_max":922,"o":"m 919 868 q 922 860 922 868 q 919 851 922 851 q 840 822 864 851 q 817 722 815 792 l 817 -15 q 810 -19 815 -19 q 799 -15 803 -19 l 213 754 l 192 781 l 193 144 q 215 45 194 74 q 290 17 236 17 q 294 8 294 17 q 290 0 294 0 q 244 1 260 0 l 179 3 l 114 1 q 64 0 96 0 q 60 8 60 0 q 64 17 60 17 q 143 46 119 17 q 165 144 167 75 l 165 807 q 65 851 117 851 q 61 860 61 851 q 65 868 61 868 l 115 867 q 156 865 131 865 q 193 867 178 865 q 217 868 208 868 q 231 863 226 868 q 244 843 236 858 q 275 796 268 806 l 792 110 l 789 722 q 767 823 788 794 q 692 851 746 851 q 689 860 689 851 q 692 868 689 868 l 739 867 q 804 864 778 864 q 867 867 828 864 l 919 868 m 386 942 q 378 948 381 942 q 379 957 375 954 q 538 1050 435 985 q 594 1086 567 1071 q 625 1081 600 1089 q 669 1062 650 1072 q 678 1050 688 1051 q 389 943 529 1011 l 386 942 z "},"Ň":{"ha":978,"x_min":60,"x_max":922,"o":"m 919 868 q 922 860 922 868 q 919 851 922 851 q 840 822 864 851 q 817 722 815 792 l 817 -15 q 810 -19 815 -19 q 799 -15 803 -19 l 213 754 l 192 781 l 193 144 q 215 45 194 74 q 290 17 236 17 q 294 8 294 17 q 290 0 294 0 q 244 1 260 0 l 179 3 l 114 1 q 64 0 96 0 q 60 8 60 0 q 64 17 60 17 q 143 46 119 17 q 165 144 167 75 l 165 807 q 65 851 117 851 q 61 860 61 851 q 65 868 61 868 l 115 867 q 156 865 131 865 q 193 867 178 865 q 217 868 208 868 q 231 863 226 868 q 244 843 236 858 q 275 796 268 806 l 792 110 l 789 722 q 767 823 788 794 q 692 851 746 851 q 689 860 689 851 q 692 868 689 868 l 739 867 q 804 864 778 864 q 867 867 828 864 l 919 868 m 332 1067 l 332 1068 q 335 1074 332 1071 q 340 1076 339 1078 l 471 990 l 593 1078 l 594 1078 q 601 1073 597 1078 q 603 1067 606 1068 l 481 938 q 468 932 476 932 q 454 938 460 932 l 332 1067 z "},"Ņ":{"ha":978,"x_min":60,"x_max":922,"o":"m 919 868 q 922 860 922 868 q 919 851 922 851 q 840 822 864 851 q 817 722 815 792 l 817 -15 q 810 -19 815 -19 q 799 -15 803 -19 l 213 754 l 192 781 l 193 144 q 215 45 194 74 q 290 17 236 17 q 294 8 294 17 q 290 0 294 0 q 244 1 260 0 l 179 3 l 114 1 q 64 0 96 0 q 60 8 60 0 q 64 17 60 17 q 143 46 119 17 q 165 144 167 75 l 165 807 q 65 851 117 851 q 61 860 61 851 q 65 868 61 868 l 115 867 q 156 865 131 865 q 193 867 178 865 q 217 868 208 868 q 231 863 226 868 q 244 843 236 858 q 275 796 268 806 l 792 110 l 789 722 q 767 823 788 794 q 692 851 746 851 q 689 860 689 851 q 692 868 689 868 l 739 867 q 804 864 778 864 q 867 867 828 864 l 919 868 m 517 -124 q 572 -149 553 -124 q 590 -222 590 -174 q 570 -306 590 -268 q 510 -382 550 -344 l 507 -383 q 499 -379 503 -383 q 499 -372 496 -375 q 560 -240 560 -317 q 553 -201 560 -215 q 514 -221 542 -221 q 476 -208 489 -221 q 464 -172 464 -194 q 517 -124 464 -124 z "},"Ṅ":{"ha":978,"x_min":60,"x_max":922,"o":"m 919 868 q 922 860 922 868 q 919 851 922 851 q 840 822 864 851 q 817 722 815 792 l 817 -15 q 810 -19 815 -19 q 799 -15 803 -19 l 213 754 l 192 781 l 193 144 q 215 45 194 74 q 290 17 236 17 q 294 8 294 17 q 290 0 294 0 q 244 1 260 0 l 179 3 l 114 1 q 64 0 96 0 q 60 8 60 0 q 64 17 60 17 q 143 46 119 17 q 165 144 167 75 l 165 807 q 65 851 117 851 q 61 860 61 851 q 65 868 61 868 l 115 867 q 156 865 131 865 q 193 867 178 865 q 217 868 208 868 q 231 863 226 868 q 244 843 236 858 q 275 796 268 806 l 792 110 l 789 722 q 767 823 788 794 q 692 851 746 851 q 689 860 689 851 q 692 868 689 868 l 739 867 q 804 864 778 864 q 867 867 828 864 l 919 868 m 471 981 q 431 995 446 981 q 415 1035 415 1010 q 431 1072 415 1058 q 471 1086 446 1086 q 511 1072 497 1086 q 525 1035 525 1058 q 511 994 525 1008 q 471 981 497 981 z "},"Ṇ":{"ha":978,"x_min":60,"x_max":922,"o":"m 919 868 q 922 860 922 868 q 919 851 922 851 q 840 822 864 851 q 817 722 815 792 l 817 -15 q 810 -19 815 -19 q 799 -15 803 -19 l 213 754 l 192 781 l 193 144 q 215 45 194 74 q 290 17 236 17 q 294 8 294 17 q 290 0 294 0 q 244 1 260 0 l 179 3 l 114 1 q 64 0 96 0 q 60 8 60 0 q 64 17 60 17 q 143 46 119 17 q 165 144 167 75 l 165 807 q 65 851 117 851 q 61 860 61 851 q 65 868 61 868 l 115 867 q 156 865 131 865 q 193 867 178 865 q 217 868 208 868 q 231 863 226 868 q 244 843 236 858 q 275 796 268 806 l 792 110 l 789 722 q 767 823 788 794 q 692 851 746 851 q 689 860 689 851 q 692 868 689 868 l 739 867 q 804 864 778 864 q 867 867 828 864 l 919 868 m 521 -257 q 480 -243 494 -257 q 465 -203 465 -229 q 480 -165 465 -179 q 521 -151 494 -151 q 560 -165 546 -151 q 574 -203 574 -179 q 560 -243 574 -229 q 521 -257 546 -257 z "},"Ŋ":{"ha":978,"x_min":60,"x_max":922,"o":"m 919 868 q 922 860 922 868 q 919 851 922 851 q 840 822 864 851 q 817 722 815 792 l 817 -15 q 776 -201 815 -137 q 667 -265 738 -265 q 588 -240 619 -265 q 556 -182 556 -214 q 566 -153 556 -162 q 593 -144 576 -144 q 624 -156 614 -144 q 642 -192 633 -168 q 658 -228 649 -215 q 692 -240 668 -240 q 765 -181 739 -240 q 793 -8 792 -122 l 213 754 l 192 781 l 193 144 q 215 45 194 74 q 290 17 236 17 q 294 8 294 17 q 290 0 294 0 q 244 1 260 0 l 179 3 l 114 1 q 64 0 96 0 q 60 8 60 0 q 64 17 60 17 q 143 46 119 17 q 165 144 167 75 l 165 807 q 65 851 117 851 q 61 860 61 851 q 65 868 61 868 l 115 867 q 156 865 131 865 q 193 867 178 865 q 217 868 208 868 q 231 863 226 868 q 244 843 236 858 q 275 796 268 806 l 792 110 l 789 722 q 767 823 788 794 q 692 851 746 851 q 689 860 689 851 q 692 868 689 868 l 739 867 q 804 864 778 864 q 867 867 828 864 l 919 868 z "},"Ṉ":{"ha":978,"x_min":60,"x_max":922,"o":"m 919 868 q 922 860 922 868 q 919 851 922 851 q 840 822 864 851 q 817 722 815 792 l 817 -15 q 810 -19 815 -19 q 799 -15 803 -19 l 213 754 l 192 781 l 193 144 q 215 45 194 74 q 290 17 236 17 q 294 8 294 17 q 290 0 294 0 q 244 1 260 0 l 179 3 l 114 1 q 64 0 96 0 q 60 8 60 0 q 64 17 60 17 q 143 46 119 17 q 165 144 167 75 l 165 807 q 65 851 117 851 q 61 860 61 851 q 65 868 61 868 l 115 867 q 156 865 131 865 q 193 867 178 865 q 217 868 208 868 q 231 863 226 868 q 244 843 236 858 q 275 796 268 806 l 792 110 l 789 722 q 767 823 788 794 q 692 851 746 851 q 689 860 689 851 q 692 868 689 868 l 739 867 q 804 864 778 864 q 867 867 828 864 l 919 868 m 347 -161 q 340 -143 340 -161 q 347 -125 340 -125 l 681 -125 q 685 -131 683 -125 q 688 -143 688 -136 q 681 -161 688 -161 l 347 -161 z "},"Ñ":{"ha":978,"x_min":60,"x_max":922,"o":"m 919 868 q 922 860 922 868 q 919 851 922 851 q 840 822 864 851 q 817 722 815 792 l 817 -15 q 810 -19 815 -19 q 799 -15 803 -19 l 213 754 l 192 781 l 193 144 q 215 45 194 74 q 290 17 236 17 q 294 8 294 17 q 290 0 294 0 q 244 1 260 0 l 179 3 l 114 1 q 64 0 96 0 q 60 8 60 0 q 64 17 60 17 q 143 46 119 17 q 165 144 167 75 l 165 807 q 65 851 117 851 q 61 860 61 851 q 65 868 61 868 l 115 867 q 156 865 131 865 q 193 867 178 865 q 217 868 208 868 q 231 863 226 868 q 244 843 236 858 q 275 796 268 806 l 792 110 l 789 722 q 767 823 788 794 q 692 851 746 851 q 689 860 689 851 q 692 868 689 868 l 739 867 q 804 864 778 864 q 867 867 828 864 l 919 868 m 308 968 q 300 972 304 968 q 299 978 296 975 q 400 1058 346 1058 q 475 1043 424 1058 q 582 1024 542 1024 q 617 1033 606 1024 q 644 1061 629 1042 l 646 1061 q 653 1058 649 1061 q 656 1051 657 1054 q 608 988 628 1004 q 561 972 588 972 q 508 979 536 972 q 474 988 481 986 q 371 1006 414 1006 q 338 998 349 1006 q 319 981 326 990 q 310 968 313 971 l 308 968 z "},"O":{"ha":1014,"x_min":68,"x_max":951,"o":"m 481 -17 q 265 40 358 -17 q 119 193 171 96 q 68 410 68 290 q 131 650 68 542 q 303 821 194 758 q 543 883 411 883 q 759 828 667 883 q 901 677 851 774 q 951 460 951 581 q 888 213 951 322 q 716 44 824 104 q 481 -17 608 -17 m 543 19 q 722 67 646 19 q 840 201 799 115 q 882 400 882 288 q 831 631 882 528 q 689 792 779 733 q 486 850 599 850 q 305 803 385 850 q 181 668 225 756 q 136 464 136 581 q 190 236 136 338 q 336 77 243 135 q 543 19 429 19 z "},"Ó":{"ha":1014,"x_min":68,"x_max":951,"o":"m 481 -17 q 265 40 358 -17 q 119 193 171 96 q 68 410 68 290 q 131 650 68 542 q 303 821 194 758 q 543 883 411 883 q 759 828 667 883 q 901 677 851 774 q 951 460 951 581 q 888 213 951 322 q 716 44 824 104 q 481 -17 608 -17 m 543 19 q 722 67 646 19 q 840 201 799 115 q 882 400 882 288 q 831 631 882 528 q 689 792 779 733 q 486 850 599 850 q 305 803 385 850 q 181 668 225 756 q 136 464 136 581 q 190 236 136 338 q 336 77 243 135 q 543 19 429 19 m 419 942 q 411 948 414 942 q 413 957 408 954 q 571 1050 468 985 q 628 1086 600 1071 q 658 1081 633 1089 q 702 1062 683 1072 q 711 1050 721 1051 q 422 943 563 1011 l 419 942 z "},"Ŏ":{"ha":1014,"x_min":68,"x_max":951,"o":"m 481 -17 q 265 40 358 -17 q 119 193 171 96 q 68 410 68 290 q 131 650 68 542 q 303 821 194 758 q 543 883 411 883 q 759 828 667 883 q 901 677 851 774 q 951 460 951 581 q 888 213 951 322 q 716 44 824 104 q 481 -17 608 -17 m 543 19 q 722 67 646 19 q 840 201 799 115 q 882 400 882 288 q 831 631 882 528 q 689 792 779 733 q 486 850 599 850 q 305 803 385 850 q 181 668 225 756 q 136 464 136 581 q 190 236 136 338 q 336 77 243 135 q 543 19 429 19 m 500 924 q 419 955 456 924 q 372 1042 383 986 q 387 1057 371 1050 q 417 1064 403 1064 q 428 1060 428 1064 q 466 992 440 1015 q 524 968 492 968 q 580 990 554 968 q 618 1054 606 1013 q 625 1058 621 1058 q 637 1056 631 1058 q 643 1050 643 1053 q 586 956 626 989 q 500 924 546 924 z "},"Ǒ":{"ha":1014,"x_min":68,"x_max":951,"o":"m 481 -17 q 265 40 358 -17 q 119 193 171 96 q 68 410 68 290 q 131 650 68 542 q 303 821 194 758 q 543 883 411 883 q 759 828 667 883 q 901 677 851 774 q 951 460 951 581 q 888 213 951 322 q 716 44 824 104 q 481 -17 608 -17 m 543 19 q 722 67 646 19 q 840 201 799 115 q 882 400 882 288 q 831 631 882 528 q 689 792 779 733 q 486 850 599 850 q 305 803 385 850 q 181 668 225 756 q 136 464 136 581 q 190 236 136 338 q 336 77 243 135 q 543 19 429 19 m 365 1067 l 365 1068 q 369 1074 365 1071 q 374 1076 372 1078 l 504 990 l 626 1078 l 628 1078 q 635 1073 631 1078 q 636 1067 639 1068 l 514 938 q 501 932 510 932 q 488 938 493 932 l 365 1067 z "},"Ô":{"ha":1014,"x_min":68,"x_max":951,"o":"m 481 -17 q 265 40 358 -17 q 119 193 171 96 q 68 410 68 290 q 131 650 68 542 q 303 821 194 758 q 543 883 411 883 q 759 828 667 883 q 901 677 851 774 q 951 460 951 581 q 888 213 951 322 q 716 44 824 104 q 481 -17 608 -17 m 543 19 q 722 67 646 19 q 840 201 799 115 q 882 400 882 288 q 831 631 882 528 q 689 792 779 733 q 486 850 599 850 q 305 803 385 850 q 181 668 225 756 q 136 464 136 581 q 190 236 136 338 q 336 77 243 135 q 543 19 429 19 m 381 917 q 373 920 376 917 q 372 926 369 924 l 494 1054 q 507 1061 499 1061 q 521 1054 514 1061 l 643 926 l 643 924 q 640 917 643 919 q 635 917 638 914 l 503 1003 l 382 917 l 381 917 z "},"Ố":{"ha":1014,"x_min":68,"x_max":951,"o":"m 481 -17 q 265 40 358 -17 q 119 193 171 96 q 68 410 68 290 q 131 650 68 542 q 303 821 194 758 q 543 883 411 883 q 759 828 667 883 q 901 677 851 774 q 951 460 951 581 q 888 213 951 322 q 716 44 824 104 q 481 -17 608 -17 m 543 19 q 722 67 646 19 q 840 201 799 115 q 882 400 882 288 q 831 631 882 528 q 689 792 779 733 q 486 850 599 850 q 305 803 385 850 q 181 668 225 756 q 136 464 136 581 q 190 236 136 338 q 336 77 243 135 q 543 19 429 19 m 381 917 q 373 920 376 917 q 372 926 369 924 l 494 1054 q 507 1061 499 1061 q 521 1054 514 1061 l 643 926 l 643 924 q 640 917 643 919 q 635 917 638 914 l 503 1003 l 382 917 l 381 917 m 596 1013 q 592 1011 594 1011 q 585 1016 588 1011 q 586 1024 583 1021 q 699 1156 644 1079 q 726 1151 703 1160 q 767 1132 749 1143 q 775 1119 785 1121 q 684 1074 725 1099 q 596 1013 643 1049 z "},"Ộ":{"ha":1014,"x_min":68,"x_max":951,"o":"m 481 -17 q 265 40 358 -17 q 119 193 171 96 q 68 410 68 290 q 131 650 68 542 q 303 821 194 758 q 543 883 411 883 q 759 828 667 883 q 901 677 851 774 q 951 460 951 581 q 888 213 951 322 q 716 44 824 104 q 481 -17 608 -17 m 543 19 q 722 67 646 19 q 840 201 799 115 q 882 400 882 288 q 831 631 882 528 q 689 792 779 733 q 486 850 599 850 q 305 803 385 850 q 181 668 225 756 q 136 464 136 581 q 190 236 136 338 q 336 77 243 135 q 543 19 429 19 m 529 -257 q 488 -243 503 -257 q 474 -203 474 -229 q 488 -165 474 -179 q 529 -151 503 -151 q 568 -165 554 -151 q 582 -203 582 -179 q 568 -243 582 -229 q 529 -257 554 -257 m 381 917 q 373 920 376 917 q 372 926 369 924 l 494 1054 q 507 1061 499 1061 q 521 1054 514 1061 l 643 926 l 643 924 q 640 917 643 919 q 635 917 638 914 l 503 1003 l 382 917 l 381 917 z "},"Ồ":{"ha":1014,"x_min":68,"x_max":951,"o":"m 481 -17 q 265 40 358 -17 q 119 193 171 96 q 68 410 68 290 q 131 650 68 542 q 303 821 194 758 q 543 883 411 883 q 759 828 667 883 q 901 677 851 774 q 951 460 951 581 q 888 213 951 322 q 716 44 824 104 q 481 -17 608 -17 m 543 19 q 722 67 646 19 q 840 201 799 115 q 882 400 882 288 q 831 631 882 528 q 689 792 779 733 q 486 850 599 850 q 305 803 385 850 q 181 668 225 756 q 136 464 136 581 q 190 236 136 338 q 336 77 243 135 q 543 19 429 19 m 381 917 q 373 920 376 917 q 372 926 369 924 l 494 1054 q 507 1061 499 1061 q 521 1054 514 1061 l 643 926 l 643 924 q 640 917 643 919 q 635 917 638 914 l 503 1003 l 382 917 l 381 917 m 706 976 q 526 1083 613 1046 q 535 1096 517 1085 q 576 1115 553 1107 q 603 1119 599 1124 q 715 989 649 1056 q 717 983 717 988 q 713 977 717 979 q 706 976 710 975 z "},"Ổ":{"ha":1014,"x_min":68,"x_max":951,"o":"m 481 -17 q 265 40 358 -17 q 119 193 171 96 q 68 410 68 290 q 131 650 68 542 q 303 821 194 758 q 543 883 411 883 q 759 828 667 883 q 901 677 851 774 q 951 460 951 581 q 888 213 951 322 q 716 44 824 104 q 481 -17 608 -17 m 543 19 q 722 67 646 19 q 840 201 799 115 q 882 400 882 288 q 831 631 882 528 q 689 792 779 733 q 486 850 599 850 q 305 803 385 850 q 181 668 225 756 q 136 464 136 581 q 190 236 136 338 q 336 77 243 135 q 543 19 429 19 m 381 900 q 373 903 376 900 q 372 910 369 907 l 494 1038 q 507 1044 499 1044 q 521 1038 514 1044 l 643 910 l 643 907 q 640 900 643 903 q 635 900 638 897 l 503 986 l 382 900 l 381 900 m 601 985 q 599 1003 599 992 q 619 1054 599 1024 q 636 1083 631 1071 q 642 1108 642 1094 q 626 1141 642 1129 q 593 1153 611 1153 q 560 1144 576 1153 l 558 1144 q 549 1149 553 1144 q 549 1156 544 1154 q 593 1175 569 1168 q 633 1182 617 1182 q 678 1165 663 1182 q 694 1124 694 1147 q 683 1087 694 1103 q 651 1050 672 1071 q 622 1016 631 1031 q 617 985 613 1001 q 610 982 618 982 q 601 985 603 982 z "},"Ỗ":{"ha":1014,"x_min":68,"x_max":951,"o":"m 481 -17 q 265 40 358 -17 q 119 193 171 96 q 68 410 68 290 q 131 650 68 542 q 303 821 194 758 q 543 883 411 883 q 759 828 667 883 q 901 677 851 774 q 951 460 951 581 q 888 213 951 322 q 716 44 824 104 q 481 -17 608 -17 m 543 19 q 722 67 646 19 q 840 201 799 115 q 882 400 882 288 q 831 631 882 528 q 689 792 779 733 q 486 850 599 850 q 305 803 385 850 q 181 668 225 756 q 136 464 136 581 q 190 236 136 338 q 336 77 243 135 q 543 19 429 19 m 383 917 q 376 920 379 917 q 375 926 372 924 l 497 1054 q 510 1061 501 1061 q 524 1054 517 1061 l 646 926 l 646 924 q 643 917 646 919 q 638 917 640 914 l 506 1003 l 385 917 l 383 917 m 354 1072 q 347 1076 351 1072 q 344 1082 343 1079 q 390 1137 364 1113 q 449 1161 417 1161 q 522 1147 469 1161 q 629 1128 586 1128 q 665 1138 653 1128 q 690 1165 678 1147 l 692 1165 q 700 1162 696 1165 q 701 1156 704 1158 q 654 1092 675 1108 q 607 1075 633 1075 q 564 1080 588 1075 q 518 1092 540 1085 q 468 1104 494 1099 q 418 1110 442 1110 q 386 1103 397 1110 q 367 1086 375 1096 q 356 1072 360 1076 l 354 1072 z "},"Ö":{"ha":1014,"x_min":68,"x_max":951,"o":"m 481 -17 q 265 40 358 -17 q 119 193 171 96 q 68 410 68 290 q 131 650 68 542 q 303 821 194 758 q 543 883 411 883 q 759 828 667 883 q 901 677 851 774 q 951 460 951 581 q 888 213 951 322 q 716 44 824 104 q 481 -17 608 -17 m 543 19 q 722 67 646 19 q 840 201 799 115 q 882 400 882 288 q 831 631 882 528 q 689 792 779 733 q 486 850 599 850 q 305 803 385 850 q 181 668 225 756 q 136 464 136 581 q 190 236 136 338 q 336 77 243 135 q 543 19 429 19 m 401 1000 q 361 1014 376 1000 q 346 1053 346 1028 q 361 1092 346 1078 q 401 1106 376 1106 q 442 1092 428 1106 q 456 1053 456 1078 q 442 1014 456 1028 q 401 1000 428 1000 m 608 1000 q 567 1014 582 1000 q 553 1053 553 1028 q 567 1092 553 1078 q 608 1106 582 1106 q 647 1092 633 1106 q 661 1053 661 1078 q 647 1014 661 1028 q 608 1000 633 1000 z "},"Ọ":{"ha":1014,"x_min":68,"x_max":951,"o":"m 481 -17 q 265 40 358 -17 q 119 193 171 96 q 68 410 68 290 q 131 650 68 542 q 303 821 194 758 q 543 883 411 883 q 759 828 667 883 q 901 677 851 774 q 951 460 951 581 q 888 213 951 322 q 716 44 824 104 q 481 -17 608 -17 m 543 19 q 722 67 646 19 q 840 201 799 115 q 882 400 882 288 q 831 631 882 528 q 689 792 779 733 q 486 850 599 850 q 305 803 385 850 q 181 668 225 756 q 136 464 136 581 q 190 236 136 338 q 336 77 243 135 q 543 19 429 19 m 529 -257 q 488 -243 503 -257 q 474 -203 474 -229 q 488 -165 474 -179 q 529 -151 503 -151 q 568 -165 554 -151 q 582 -203 582 -179 q 568 -243 582 -229 q 529 -257 554 -257 z "},"Ò":{"ha":1014,"x_min":68,"x_max":951,"o":"m 481 -17 q 265 40 358 -17 q 119 193 171 96 q 68 410 68 290 q 131 650 68 542 q 303 821 194 758 q 543 883 411 883 q 759 828 667 883 q 901 677 851 774 q 951 460 951 581 q 888 213 951 322 q 716 44 824 104 q 481 -17 608 -17 m 543 19 q 722 67 646 19 q 840 201 799 115 q 882 400 882 288 q 831 631 882 528 q 689 792 779 733 q 486 850 599 850 q 305 803 385 850 q 181 668 225 756 q 136 464 136 581 q 190 236 136 338 q 336 77 243 135 q 543 19 429 19 m 636 943 q 358 1050 496 1013 q 367 1062 349 1051 q 412 1081 386 1072 q 443 1086 438 1089 q 472 1067 463 1072 q 640 957 561 1001 q 644 951 644 956 q 642 944 644 947 q 636 943 639 942 z "},"Ỏ":{"ha":1014,"x_min":68,"x_max":951,"o":"m 481 -17 q 265 40 358 -17 q 119 193 171 96 q 68 410 68 290 q 131 650 68 542 q 303 821 194 758 q 543 883 411 883 q 759 828 667 883 q 901 677 851 774 q 951 460 951 581 q 888 213 951 322 q 716 44 824 104 q 481 -17 608 -17 m 543 19 q 722 67 646 19 q 840 201 799 115 q 882 400 882 288 q 831 631 882 528 q 689 792 779 733 q 486 850 599 850 q 305 803 385 850 q 181 668 225 756 q 136 464 136 581 q 190 236 136 338 q 336 77 243 135 q 543 19 429 19 m 511 901 q 506 899 514 899 q 494 901 497 899 q 490 928 490 917 q 499 965 490 949 q 522 1007 507 982 q 545 1044 538 1031 q 551 1076 553 1058 q 533 1118 551 1103 q 489 1133 514 1133 q 453 1126 469 1133 l 450 1125 q 443 1130 446 1125 q 444 1138 440 1135 q 529 1163 485 1163 q 592 1142 569 1163 q 615 1092 615 1122 q 601 1049 614 1067 q 560 1000 589 1031 q 522 958 535 976 q 508 918 508 939 q 511 901 508 913 z "},"Ơ":{"ha":1014,"x_min":68,"x_max":976,"o":"m 976 914 q 846 757 976 824 q 924 624 897 700 q 951 460 951 549 q 888 213 951 322 q 716 44 824 104 q 481 -17 608 -17 q 265 40 358 -17 q 119 193 171 96 q 68 410 68 290 q 131 650 68 542 q 303 821 194 758 q 543 883 411 883 q 831 774 718 883 q 900 857 900 813 q 888 886 900 874 q 876 903 881 894 q 872 925 872 911 q 888 960 872 947 q 925 974 904 974 q 963 956 950 974 q 976 914 976 938 m 882 400 q 831 631 882 528 q 689 792 779 733 q 486 850 599 850 q 305 803 385 850 q 181 668 225 756 q 136 464 136 581 q 190 236 136 338 q 336 77 243 135 q 543 19 429 19 q 722 67 646 19 q 840 201 799 115 q 882 400 882 288 z "},"Ớ":{"ha":1014,"x_min":68,"x_max":976,"o":"m 976 914 q 846 757 976 824 q 924 624 897 700 q 951 460 951 549 q 888 213 951 322 q 716 44 824 104 q 481 -17 608 -17 q 265 40 358 -17 q 119 193 171 96 q 68 410 68 290 q 131 650 68 542 q 303 821 194 758 q 543 883 411 883 q 831 774 718 883 q 900 857 900 813 q 888 886 900 874 q 876 903 881 894 q 872 925 872 911 q 888 960 872 947 q 925 974 904 974 q 963 956 950 974 q 976 914 976 938 m 882 400 q 831 631 882 528 q 689 792 779 733 q 486 850 599 850 q 305 803 385 850 q 181 668 225 756 q 136 464 136 581 q 190 236 136 338 q 336 77 243 135 q 543 19 429 19 q 722 67 646 19 q 840 201 799 115 q 882 400 882 288 m 356 942 q 347 948 350 942 q 347 957 343 954 q 496 1043 410 988 l 563 1085 q 592 1080 568 1088 q 636 1062 617 1072 q 646 1050 656 1051 q 357 942 486 1007 l 356 942 z "},"Ợ":{"ha":1014,"x_min":68,"x_max":976,"o":"m 976 914 q 846 757 976 824 q 924 624 897 700 q 951 460 951 549 q 888 213 951 322 q 716 44 824 104 q 481 -17 608 -17 q 265 40 358 -17 q 119 193 171 96 q 68 410 68 290 q 131 650 68 542 q 303 821 194 758 q 543 883 411 883 q 831 774 718 883 q 900 857 900 813 q 888 886 900 874 q 876 903 881 894 q 872 925 872 911 q 888 960 872 947 q 925 974 904 974 q 963 956 950 974 q 976 914 976 938 m 882 400 q 831 631 882 528 q 689 792 779 733 q 486 850 599 850 q 305 803 385 850 q 181 668 225 756 q 136 464 136 581 q 190 236 136 338 q 336 77 243 135 q 543 19 429 19 q 722 67 646 19 q 840 201 799 115 q 882 400 882 288 m 529 -257 q 488 -243 503 -257 q 474 -203 474 -229 q 488 -165 474 -179 q 529 -151 503 -151 q 568 -165 554 -151 q 582 -203 582 -179 q 568 -243 582 -229 q 529 -257 554 -257 z "},"Ờ":{"ha":1014,"x_min":68,"x_max":976,"o":"m 976 914 q 846 757 976 824 q 924 624 897 700 q 951 460 951 549 q 888 213 951 322 q 716 44 824 104 q 481 -17 608 -17 q 265 40 358 -17 q 119 193 171 96 q 68 410 68 290 q 131 650 68 542 q 303 821 194 758 q 543 883 411 883 q 831 774 718 883 q 900 857 900 813 q 888 886 900 874 q 876 903 881 894 q 872 925 872 911 q 888 960 872 947 q 925 974 904 974 q 963 956 950 974 q 976 914 976 938 m 882 400 q 831 631 882 528 q 689 792 779 733 q 486 850 599 850 q 305 803 385 850 q 181 668 225 756 q 136 464 136 581 q 190 236 136 338 q 336 77 243 135 q 543 19 429 19 q 722 67 646 19 q 840 201 799 115 q 882 400 882 288 m 661 943 q 499 1003 575 978 q 332 1050 422 1029 q 338 1062 322 1051 q 376 1081 354 1072 q 403 1086 397 1089 q 664 957 567 1000 q 669 947 671 954 q 661 943 667 940 z "},"Ở":{"ha":1014,"x_min":68,"x_max":976,"o":"m 976 914 q 846 757 976 824 q 924 624 897 700 q 951 460 951 549 q 888 213 951 322 q 716 44 824 104 q 481 -17 608 -17 q 265 40 358 -17 q 119 193 171 96 q 68 410 68 290 q 131 650 68 542 q 303 821 194 758 q 543 883 411 883 q 831 774 718 883 q 900 857 900 813 q 888 886 900 874 q 876 903 881 894 q 872 925 872 911 q 888 960 872 947 q 925 974 904 974 q 963 956 950 974 q 976 914 976 938 m 882 400 q 831 631 882 528 q 689 792 779 733 q 486 850 599 850 q 305 803 385 850 q 181 668 225 756 q 136 464 136 581 q 190 236 136 338 q 336 77 243 135 q 543 19 429 19 q 722 67 646 19 q 840 201 799 115 q 882 400 882 288 m 511 901 q 506 899 514 899 q 494 901 497 899 q 490 928 490 917 q 499 965 490 949 q 522 1007 507 982 q 545 1044 538 1031 q 551 1076 553 1058 q 533 1118 551 1103 q 489 1133 514 1133 q 453 1126 469 1133 l 450 1125 q 443 1130 446 1125 q 444 1138 440 1135 q 529 1163 485 1163 q 592 1142 569 1163 q 615 1092 615 1122 q 601 1049 614 1067 q 560 1000 589 1031 q 522 958 535 976 q 508 918 508 939 q 511 901 508 913 z "},"Ỡ":{"ha":1014,"x_min":68,"x_max":976,"o":"m 976 914 q 846 757 976 824 q 924 624 897 700 q 951 460 951 549 q 888 213 951 322 q 716 44 824 104 q 481 -17 608 -17 q 265 40 358 -17 q 119 193 171 96 q 68 410 68 290 q 131 650 68 542 q 303 821 194 758 q 543 883 411 883 q 831 774 718 883 q 900 857 900 813 q 888 886 900 874 q 876 903 881 894 q 872 925 872 911 q 888 960 872 947 q 925 974 904 974 q 963 956 950 974 q 976 914 976 938 m 882 400 q 831 631 882 528 q 689 792 779 733 q 486 850 599 850 q 305 803 385 850 q 181 668 225 756 q 136 464 136 581 q 190 236 136 338 q 336 77 243 135 q 543 19 429 19 q 722 67 646 19 q 840 201 799 115 q 882 400 882 288 m 333 1001 q 326 1005 331 1001 q 324 1011 322 1008 q 369 1066 343 1042 q 428 1090 396 1090 q 501 1076 449 1090 q 608 1057 565 1057 q 644 1067 632 1057 q 669 1094 657 1076 l 671 1094 q 679 1091 675 1094 q 681 1085 683 1088 q 633 1021 654 1038 q 586 1004 613 1004 q 543 1009 567 1004 q 497 1021 519 1014 q 447 1033 474 1028 q 397 1039 421 1039 q 365 1032 376 1039 q 347 1015 354 1025 q 335 1001 339 1006 l 333 1001 z "},"Ő":{"ha":1014,"x_min":68,"x_max":951,"o":"m 481 -17 q 265 40 358 -17 q 119 193 171 96 q 68 410 68 290 q 131 650 68 542 q 303 821 194 758 q 543 883 411 883 q 759 828 667 883 q 901 677 851 774 q 951 460 951 581 q 888 213 951 322 q 716 44 824 104 q 481 -17 608 -17 m 543 19 q 722 67 646 19 q 840 201 799 115 q 882 400 882 288 q 831 631 882 528 q 689 792 779 733 q 486 850 599 850 q 305 803 385 850 q 181 668 225 756 q 136 464 136 581 q 190 236 136 338 q 336 77 243 135 q 543 19 429 19 m 396 933 q 389 940 390 933 q 392 949 388 946 l 497 1051 l 549 1101 q 577 1099 554 1104 q 617 1085 600 1093 q 625 1074 635 1076 q 508 1012 561 1044 q 399 935 456 979 l 396 933 m 558 933 q 551 940 553 933 q 554 949 550 946 l 660 1051 l 711 1101 q 740 1099 717 1104 q 780 1085 763 1093 q 788 1074 797 1076 q 671 1012 724 1044 q 561 935 618 979 l 558 933 z "},"Ō":{"ha":1014,"x_min":68,"x_max":951,"o":"m 481 -17 q 265 40 358 -17 q 119 193 171 96 q 68 410 68 290 q 131 650 68 542 q 303 821 194 758 q 543 883 411 883 q 759 828 667 883 q 901 677 851 774 q 951 460 951 581 q 888 213 951 322 q 716 44 824 104 q 481 -17 608 -17 m 543 19 q 722 67 646 19 q 840 201 799 115 q 882 400 882 288 q 831 631 882 528 q 689 792 779 733 q 486 850 599 850 q 305 803 385 850 q 181 668 225 756 q 136 464 136 581 q 190 236 136 338 q 336 77 243 135 q 543 19 429 19 m 347 999 q 342 1004 344 999 q 340 1017 340 1010 q 347 1035 340 1035 l 681 1035 q 688 1017 688 1035 q 681 999 688 999 l 347 999 z "},"Ǫ":{"ha":1014,"x_min":68,"x_max":951,"o":"m 951 460 q 909 254 951 347 q 792 97 867 161 q 621 4 717 32 q 538 -106 568 -54 q 508 -208 508 -158 q 535 -309 508 -274 q 617 -344 563 -344 q 659 -335 643 -344 q 696 -307 675 -326 l 697 -307 q 708 -312 703 -307 q 710 -319 713 -317 q 583 -382 649 -382 q 492 -346 526 -382 q 456 -249 457 -310 q 590 -4 457 -147 q 481 -17 536 -17 q 265 40 358 -17 q 119 193 171 96 q 68 410 68 290 q 131 650 68 542 q 303 821 194 758 q 543 883 411 883 q 759 828 667 883 q 901 677 851 774 q 951 460 951 581 m 136 464 q 190 236 136 338 q 336 77 243 135 q 543 19 429 19 q 722 67 646 19 q 840 201 799 115 q 882 400 882 288 q 831 631 882 528 q 689 792 779 733 q 486 850 599 850 q 305 803 385 850 q 181 668 225 756 q 136 464 136 581 z "},"Ø":{"ha":1014,"x_min":68,"x_max":951,"o":"m 803 799 q 913 653 874 742 q 951 460 951 565 q 888 213 951 322 q 716 44 824 104 q 481 -17 608 -17 q 338 6 404 -17 q 218 72 271 29 l 151 -10 q 149 -11 151 -11 q 135 -3 143 -11 q 131 10 128 6 l 196 92 q 101 232 135 150 q 68 410 68 314 q 131 650 68 542 q 303 821 194 758 q 543 883 411 883 q 781 815 679 883 l 828 874 q 832 875 829 875 q 846 868 838 875 q 851 858 854 861 l 803 799 m 136 464 q 165 294 136 374 q 246 153 193 214 l 735 758 q 621 826 685 803 q 486 850 557 850 q 305 803 385 850 q 181 668 225 756 q 136 464 136 581 m 543 19 q 722 67 646 19 q 840 201 799 115 q 882 399 882 286 q 849 590 882 503 q 754 739 815 678 l 265 132 q 392 49 321 78 q 543 19 463 19 z "},"Ǿ":{"ha":1014,"x_min":68,"x_max":951,"o":"m 803 799 q 913 653 874 742 q 951 460 951 565 q 888 213 951 322 q 716 44 824 104 q 481 -17 608 -17 q 338 6 404 -17 q 218 72 271 29 l 151 -10 q 149 -11 151 -11 q 135 -3 143 -11 q 131 10 128 6 l 196 92 q 101 232 135 150 q 68 410 68 314 q 131 650 68 542 q 303 821 194 758 q 543 883 411 883 q 781 815 679 883 l 828 874 q 832 875 829 875 q 846 868 838 875 q 851 858 854 861 l 803 799 m 136 464 q 165 294 136 374 q 246 153 193 214 l 735 758 q 621 826 685 803 q 486 850 557 850 q 305 803 385 850 q 181 668 225 756 q 136 464 136 581 m 543 19 q 722 67 646 19 q 840 201 799 115 q 882 399 882 286 q 849 590 882 503 q 754 739 815 678 l 265 132 q 392 49 321 78 q 543 19 463 19 m 407 942 q 399 948 401 942 q 400 957 396 954 q 558 1050 456 985 q 615 1086 588 1071 q 646 1081 621 1089 q 690 1062 671 1072 q 699 1050 708 1051 q 410 943 550 1011 l 407 942 z "},"Õ":{"ha":1014,"x_min":68,"x_max":951,"o":"m 481 -17 q 265 40 358 -17 q 119 193 171 96 q 68 410 68 290 q 131 650 68 542 q 303 821 194 758 q 543 883 411 883 q 759 828 667 883 q 901 677 851 774 q 951 460 951 581 q 888 213 951 322 q 716 44 824 104 q 481 -17 608 -17 m 543 19 q 722 67 646 19 q 840 201 799 115 q 882 400 882 288 q 831 631 882 528 q 689 792 779 733 q 486 850 599 850 q 305 803 385 850 q 181 668 225 756 q 136 464 136 581 q 190 236 136 338 q 336 77 243 135 q 543 19 429 19 m 342 968 q 333 972 338 968 q 332 978 329 975 q 433 1058 379 1058 q 508 1043 457 1058 q 615 1024 575 1024 q 651 1033 639 1024 q 678 1061 663 1042 l 679 1061 q 686 1058 682 1061 q 689 1051 690 1054 q 641 988 661 1004 q 594 972 621 972 q 542 979 569 972 q 507 988 514 986 q 404 1006 447 1006 q 371 998 382 1006 q 353 981 360 990 q 343 968 346 971 l 342 968 z "},"Œ":{"ha":1226,"x_min":61,"x_max":1179,"o":"m 1160 204 q 1167 207 1160 207 q 1178 201 1179 207 q 1168 21 1168 133 q 1163 5 1168 10 q 1147 0 1158 0 l 744 0 q 639 -3 708 0 q 557 -6 578 -6 q 299 50 413 -6 q 124 202 186 106 q 61 418 61 299 q 126 656 61 553 q 301 815 192 758 q 538 871 410 871 q 625 869 592 871 l 736 868 l 1121 868 q 1130 865 1128 868 q 1132 856 1132 863 l 1138 686 q 1128 681 1138 681 q 1119 686 1119 682 q 1081 803 1118 758 q 988 849 1044 849 l 890 849 q 815 842 839 849 q 783 815 792 835 q 774 754 774 796 l 774 465 l 956 465 q 1038 487 1015 465 q 1057 561 1060 508 q 1066 567 1057 567 q 1074 561 1075 567 l 1074 517 l 1074 451 q 1075 392 1074 413 l 1076 325 q 1069 319 1076 319 q 1061 325 1061 319 q 1036 413 1061 388 q 949 439 1011 439 l 774 439 l 774 118 q 782 58 774 76 q 814 32 790 39 q 890 25 838 25 l 1026 25 q 1113 75 1076 25 q 1160 204 1150 125 m 543 13 q 635 20 603 13 q 683 49 668 28 q 699 114 699 71 l 696 738 q 685 805 696 781 q 642 841 674 829 q 550 853 611 853 q 344 806 433 853 q 204 667 254 758 q 154 449 154 576 q 202 227 154 326 q 338 70 250 128 q 543 13 426 13 z "},"P":{"ha":740,"x_min":54,"x_max":686,"o":"m 58 0 q 55 8 56 0 q 58 17 54 17 q 133 24 108 17 q 166 51 157 31 q 175 113 175 71 l 175 756 q 165 817 174 797 q 133 844 157 836 q 58 851 108 851 q 55 860 56 851 q 58 868 54 868 l 119 867 q 207 864 172 864 q 276 867 224 864 q 394 872 346 872 q 602 815 518 872 q 686 644 686 758 q 635 490 686 553 q 510 395 585 426 q 361 364 435 364 q 296 371 319 364 q 293 378 293 371 q 295 386 293 382 q 299 389 297 390 q 344 383 319 383 q 467 409 408 383 q 563 488 526 435 q 600 617 600 540 q 567 743 600 689 q 479 826 533 797 q 364 854 425 854 q 286 849 308 854 q 256 824 264 844 q 246 753 247 803 l 247 113 q 255 50 247 69 q 286 24 263 31 q 363 17 310 17 q 365 8 365 17 q 363 0 365 0 q 300 1 324 0 l 207 3 l 119 1 q 58 0 97 0 z "},"Þ":{"ha":794,"x_min":54,"x_max":740,"o":"m 347 197 q 494 223 424 197 q 609 302 564 249 q 654 433 654 356 q 614 565 654 508 q 508 653 574 622 q 364 683 442 683 q 246 674 294 683 l 247 113 q 256 49 247 68 q 296 24 265 31 q 399 17 326 17 q 401 8 401 17 q 399 0 401 0 q 322 1 350 0 l 210 3 l 121 1 q 58 0 97 0 q 55 8 56 0 q 58 17 54 17 q 133 24 108 17 q 166 51 157 31 q 175 113 175 71 l 175 756 q 166 817 174 797 q 135 844 158 836 q 61 851 111 851 q 58 860 58 851 q 61 868 57 868 l 122 867 q 210 864 178 864 q 328 867 258 864 l 401 868 q 404 860 404 868 q 401 851 404 851 q 297 845 328 851 q 257 819 267 839 q 246 753 247 800 l 246 692 q 394 701 308 701 q 641 638 542 701 q 740 454 740 575 q 681 299 740 363 q 535 206 622 236 q 363 176 449 176 q 297 183 332 176 q 294 190 294 183 q 297 199 294 194 q 300 201 299 203 q 347 197 324 197 z "},"Q":{"ha":1014,"x_min":68,"x_max":1099,"o":"m 1089 -247 q 1095 -253 1092 -246 q 1094 -261 1099 -260 q 979 -278 1028 -278 q 799 -203 900 -278 q 614 1 697 -129 q 481 -17 546 -17 q 265 40 358 -17 q 119 193 171 96 q 68 410 68 290 q 131 650 68 542 q 303 821 194 758 q 543 883 411 883 q 759 828 667 883 q 901 677 851 774 q 951 460 951 581 q 880 199 951 313 q 689 29 808 86 q 800 -115 738 -51 q 925 -215 863 -179 q 1038 -251 988 -251 q 1089 -247 1068 -251 m 136 464 q 190 236 136 338 q 336 77 243 135 q 543 19 429 19 q 722 67 646 19 q 840 201 799 115 q 882 400 882 288 q 831 631 882 528 q 689 792 779 733 q 486 850 599 850 q 305 803 385 850 q 181 668 225 756 q 136 464 136 581 z "},"R":{"ha":914,"x_min":58,"x_max":938,"o":"m 932 17 q 938 8 938 17 q 932 0 938 0 l 786 0 q 652 120 750 0 q 414 456 554 240 q 322 442 365 442 q 265 444 296 442 l 263 113 q 272 50 264 69 q 304 24 281 31 q 382 17 328 17 q 388 8 388 17 q 383 0 388 0 q 318 1 342 0 l 224 3 l 132 1 q 64 0 107 0 q 58 8 58 0 q 64 17 58 17 q 144 24 118 17 q 181 51 171 32 q 192 113 192 71 l 192 756 q 181 817 190 797 q 147 844 172 836 q 68 851 122 851 q 63 860 63 851 q 68 868 63 868 l 136 867 q 226 864 192 864 q 272 865 250 864 q 311 868 294 867 q 386 872 353 872 q 553 826 494 872 q 611 699 611 781 q 573 574 611 632 q 471 479 535 515 q 670 203 590 301 q 812 60 750 104 q 932 17 874 17 m 263 478 q 346 472 318 472 q 490 515 446 472 q 533 651 533 557 q 485 806 533 758 q 354 854 438 854 q 298 849 315 854 q 272 822 281 843 q 263 753 264 801 l 263 478 z "},"Ŕ":{"ha":914,"x_min":58,"x_max":938,"o":"m 932 17 q 938 8 938 17 q 932 0 938 0 l 786 0 q 652 120 750 0 q 414 456 554 240 q 322 442 365 442 q 265 444 296 442 l 263 113 q 272 50 264 69 q 304 24 281 31 q 382 17 328 17 q 388 8 388 17 q 383 0 388 0 q 318 1 342 0 l 224 3 l 132 1 q 64 0 107 0 q 58 8 58 0 q 64 17 58 17 q 144 24 118 17 q 181 51 171 32 q 192 113 192 71 l 192 756 q 181 817 190 797 q 147 844 172 836 q 68 851 122 851 q 63 860 63 851 q 68 868 63 868 l 136 867 q 226 864 192 864 q 272 865 250 864 q 311 868 294 867 q 386 872 353 872 q 553 826 494 872 q 611 699 611 781 q 573 574 611 632 q 471 479 535 515 q 670 203 590 301 q 812 60 750 104 q 932 17 874 17 m 263 478 q 346 472 318 472 q 490 515 446 472 q 533 651 533 557 q 485 806 533 758 q 354 854 438 854 q 298 849 315 854 q 272 822 281 843 q 263 753 264 801 l 263 478 m 269 942 q 261 948 264 942 q 263 957 258 954 q 421 1050 318 985 q 478 1086 450 1071 q 508 1081 483 1089 q 552 1062 533 1072 q 561 1050 571 1051 q 272 943 413 1011 l 269 942 z "},"Ř":{"ha":914,"x_min":58,"x_max":938,"o":"m 932 17 q 938 8 938 17 q 932 0 938 0 l 786 0 q 652 120 750 0 q 414 456 554 240 q 322 442 365 442 q 265 444 296 442 l 263 113 q 272 50 264 69 q 304 24 281 31 q 382 17 328 17 q 388 8 388 17 q 383 0 388 0 q 318 1 342 0 l 224 3 l 132 1 q 64 0 107 0 q 58 8 58 0 q 64 17 58 17 q 144 24 118 17 q 181 51 171 32 q 192 113 192 71 l 192 756 q 181 817 190 797 q 147 844 172 836 q 68 851 122 851 q 63 860 63 851 q 68 868 63 868 l 136 867 q 226 864 192 864 q 272 865 250 864 q 311 868 294 867 q 386 872 353 872 q 553 826 494 872 q 611 699 611 781 q 573 574 611 632 q 471 479 535 515 q 670 203 590 301 q 812 60 750 104 q 932 17 874 17 m 263 478 q 346 472 318 472 q 490 515 446 472 q 533 651 533 557 q 485 806 533 758 q 354 854 438 854 q 298 849 315 854 q 272 822 281 843 q 263 753 264 801 l 263 478 m 215 1067 l 215 1068 q 219 1074 215 1071 q 224 1076 222 1078 l 354 990 l 476 1078 l 478 1078 q 485 1073 481 1078 q 486 1067 489 1068 l 364 938 q 351 932 360 932 q 338 938 343 932 l 215 1067 z "},"Ŗ":{"ha":914,"x_min":58,"x_max":938,"o":"m 932 17 q 938 8 938 17 q 932 0 938 0 l 786 0 q 652 120 750 0 q 414 456 554 240 q 322 442 365 442 q 265 444 296 442 l 263 113 q 272 50 264 69 q 304 24 281 31 q 382 17 328 17 q 388 8 388 17 q 383 0 388 0 q 318 1 342 0 l 224 3 l 132 1 q 64 0 107 0 q 58 8 58 0 q 64 17 58 17 q 144 24 118 17 q 181 51 171 32 q 192 113 192 71 l 192 756 q 181 817 190 797 q 147 844 172 836 q 68 851 122 851 q 63 860 63 851 q 68 868 63 868 l 136 867 q 226 864 192 864 q 272 865 250 864 q 311 868 294 867 q 386 872 353 872 q 553 826 494 872 q 611 699 611 781 q 573 574 611 632 q 471 479 535 515 q 670 203 590 301 q 812 60 750 104 q 932 17 874 17 m 263 478 q 346 472 318 472 q 490 515 446 472 q 533 651 533 557 q 485 806 533 758 q 354 854 438 854 q 298 849 315 854 q 272 822 281 843 q 263 753 264 801 l 263 478 m 482 -124 q 537 -149 518 -124 q 556 -222 556 -174 q 535 -306 556 -268 q 475 -382 515 -344 l 472 -383 q 465 -379 468 -383 q 464 -372 461 -375 q 525 -240 525 -317 q 518 -201 525 -215 q 479 -221 507 -221 q 442 -208 454 -221 q 429 -172 429 -194 q 482 -124 429 -124 z "},"Ṛ":{"ha":914,"x_min":58,"x_max":938,"o":"m 932 17 q 938 8 938 17 q 932 0 938 0 l 786 0 q 652 120 750 0 q 414 456 554 240 q 322 442 365 442 q 265 444 296 442 l 263 113 q 272 50 264 69 q 304 24 281 31 q 382 17 328 17 q 388 8 388 17 q 383 0 388 0 q 318 1 342 0 l 224 3 l 132 1 q 64 0 107 0 q 58 8 58 0 q 64 17 58 17 q 144 24 118 17 q 181 51 171 32 q 192 113 192 71 l 192 756 q 181 817 190 797 q 147 844 172 836 q 68 851 122 851 q 63 860 63 851 q 68 868 63 868 l 136 867 q 226 864 192 864 q 272 865 250 864 q 311 868 294 867 q 386 872 353 872 q 553 826 494 872 q 611 699 611 781 q 573 574 611 632 q 471 479 535 515 q 670 203 590 301 q 812 60 750 104 q 932 17 874 17 m 263 478 q 346 472 318 472 q 490 515 446 472 q 533 651 533 557 q 485 806 533 758 q 354 854 438 854 q 298 849 315 854 q 272 822 281 843 q 263 753 264 801 l 263 478 m 486 -257 q 445 -243 460 -257 q 431 -203 431 -229 q 445 -165 431 -179 q 486 -151 460 -151 q 525 -165 511 -151 q 539 -203 539 -179 q 525 -243 539 -229 q 486 -257 511 -257 z "},"Ṝ":{"ha":914,"x_min":58,"x_max":938,"o":"m 932 17 q 938 8 938 17 q 932 0 938 0 l 786 0 q 652 120 750 0 q 414 456 554 240 q 322 442 365 442 q 265 444 296 442 l 263 113 q 272 50 264 69 q 304 24 281 31 q 382 17 328 17 q 388 8 388 17 q 383 0 388 0 q 318 1 342 0 l 224 3 l 132 1 q 64 0 107 0 q 58 8 58 0 q 64 17 58 17 q 144 24 118 17 q 181 51 171 32 q 192 113 192 71 l 192 756 q 181 817 190 797 q 147 844 172 836 q 68 851 122 851 q 63 860 63 851 q 68 868 63 868 l 136 867 q 226 864 192 864 q 272 865 250 864 q 311 868 294 867 q 386 872 353 872 q 553 826 494 872 q 611 699 611 781 q 573 574 611 632 q 471 479 535 515 q 670 203 590 301 q 812 60 750 104 q 932 17 874 17 m 263 478 q 346 472 318 472 q 490 515 446 472 q 533 651 533 557 q 485 806 533 758 q 354 854 438 854 q 298 849 315 854 q 272 822 281 843 q 263 753 264 801 l 263 478 m 486 -257 q 445 -243 460 -257 q 431 -203 431 -229 q 445 -165 431 -179 q 486 -151 460 -151 q 525 -165 511 -151 q 539 -203 539 -179 q 525 -243 539 -229 q 486 -257 511 -257 m 188 999 q 181 1017 181 999 q 188 1035 181 1035 l 521 1035 q 528 1017 528 1035 q 526 1004 528 1010 q 521 999 524 999 l 188 999 z "},"Ṟ":{"ha":914,"x_min":58,"x_max":938,"o":"m 932 17 q 938 8 938 17 q 932 0 938 0 l 786 0 q 652 120 750 0 q 414 456 554 240 q 322 442 365 442 q 265 444 296 442 l 263 113 q 272 50 264 69 q 304 24 281 31 q 382 17 328 17 q 388 8 388 17 q 383 0 388 0 q 318 1 342 0 l 224 3 l 132 1 q 64 0 107 0 q 58 8 58 0 q 64 17 58 17 q 144 24 118 17 q 181 51 171 32 q 192 113 192 71 l 192 756 q 181 817 190 797 q 147 844 172 836 q 68 851 122 851 q 63 860 63 851 q 68 868 63 868 l 136 867 q 226 864 192 864 q 272 865 250 864 q 311 868 294 867 q 386 872 353 872 q 553 826 494 872 q 611 699 611 781 q 573 574 611 632 q 471 479 535 515 q 670 203 590 301 q 812 60 750 104 q 932 17 874 17 m 263 478 q 346 472 318 472 q 490 515 446 472 q 533 651 533 557 q 485 806 533 758 q 354 854 438 854 q 298 849 315 854 q 272 822 281 843 q 263 753 264 801 l 263 478 m 313 -161 q 306 -143 306 -161 q 313 -125 306 -125 l 646 -125 q 651 -131 649 -125 q 653 -143 653 -136 q 646 -161 653 -161 l 313 -161 z "},"S":{"ha":686,"x_min":96,"x_max":606,"o":"m 193 700 q 220 604 193 644 q 287 535 247 564 q 393 471 326 507 q 506 401 464 431 q 576 326 547 371 q 606 218 606 281 q 574 99 606 153 q 478 15 542 46 q 324 -17 414 -17 q 228 -6 274 -17 q 132 31 183 4 q 122 42 125 35 q 118 57 119 49 l 97 238 q 104 244 96 243 q 114 240 113 246 q 150 126 121 181 q 231 38 179 72 q 354 3 283 3 q 478 43 428 3 q 529 169 529 83 q 501 277 529 232 q 433 352 474 322 q 324 422 392 382 q 216 492 256 463 q 149 565 176 521 q 122 668 122 608 q 158 786 122 738 q 250 859 193 835 q 372 883 307 883 q 531 850 449 883 q 553 826 553 842 l 564 679 q 556 673 564 674 q 547 678 547 672 q 492 808 540 750 q 354 865 444 865 q 232 817 271 865 q 193 700 193 768 z "},"Ś":{"ha":686,"x_min":97,"x_max":606,"o":"m 193 700 q 220 604 193 644 q 287 535 247 564 q 393 471 326 507 q 506 401 464 431 q 576 326 547 371 q 606 218 606 281 q 574 99 606 153 q 478 15 542 46 q 324 -17 414 -17 q 228 -6 274 -17 q 132 31 183 4 q 122 42 125 35 q 118 57 119 49 l 97 238 q 104 244 96 243 q 114 240 113 246 q 150 126 121 181 q 231 38 179 72 q 354 3 283 3 q 478 43 428 3 q 529 169 529 83 q 501 277 529 232 q 433 352 474 322 q 324 422 392 382 q 216 492 256 463 q 149 565 176 521 q 122 668 122 608 q 158 786 122 738 q 250 859 193 835 q 372 883 307 883 q 531 850 449 883 q 553 826 553 842 l 564 679 q 556 673 564 674 q 547 678 547 672 q 492 808 540 750 q 354 865 444 865 q 232 817 271 865 q 193 700 193 768 m 278 942 q 269 948 272 942 q 271 957 267 954 q 429 1050 326 985 q 486 1086 458 1071 q 517 1081 492 1089 q 560 1062 542 1072 q 569 1050 579 1051 q 281 943 421 1011 l 278 942 z "},"Š":{"ha":686,"x_min":97,"x_max":606,"o":"m 193 700 q 220 604 193 644 q 287 535 247 564 q 393 471 326 507 q 506 401 464 431 q 576 326 547 371 q 606 218 606 281 q 574 99 606 153 q 478 15 542 46 q 324 -17 414 -17 q 228 -6 274 -17 q 132 31 183 4 q 122 42 125 35 q 118 57 119 49 l 97 238 q 104 244 96 243 q 114 240 113 246 q 150 126 121 181 q 231 38 179 72 q 354 3 283 3 q 478 43 428 3 q 529 169 529 83 q 501 277 529 232 q 433 352 474 322 q 324 422 392 382 q 216 492 256 463 q 149 565 176 521 q 122 668 122 608 q 158 786 122 738 q 250 859 193 835 q 372 883 307 883 q 531 850 449 883 q 553 826 553 842 l 564 679 q 556 673 564 674 q 547 678 547 672 q 492 808 540 750 q 354 865 444 865 q 232 817 271 865 q 193 700 193 768 m 224 1067 l 224 1068 q 227 1074 224 1071 q 232 1076 231 1078 l 363 990 l 485 1078 l 486 1078 q 493 1073 489 1078 q 494 1067 497 1068 l 372 938 q 360 932 368 932 q 346 938 351 932 l 224 1067 z "},"Ş":{"ha":686,"x_min":96,"x_max":606,"o":"m 606 218 q 543 60 606 125 q 367 -15 481 -4 q 361 -60 361 -37 q 371 -103 361 -83 q 401 -144 381 -122 q 450 -206 433 -179 q 465 -261 467 -233 q 437 -343 467 -304 q 350 -382 407 -382 q 295 -367 318 -382 q 272 -322 272 -351 q 301 -294 272 -294 q 323 -302 314 -294 q 346 -326 332 -310 q 365 -348 357 -340 q 385 -356 374 -356 q 428 -299 426 -356 q 361 -192 426 -254 q 324 -112 324 -154 q 329 -83 324 -103 l 350 -15 q 324 -17 342 -17 q 228 -6 274 -17 q 132 31 183 4 q 122 42 125 35 q 118 57 119 49 l 97 238 q 104 244 96 243 q 114 240 113 246 q 150 126 121 181 q 231 38 179 72 q 354 3 283 3 q 478 43 428 3 q 529 169 529 83 q 501 277 529 232 q 433 352 474 322 q 324 422 392 382 q 216 492 256 463 q 149 565 176 521 q 122 668 122 608 q 158 786 122 738 q 250 859 193 835 q 372 883 307 883 q 531 850 449 883 q 553 826 553 842 l 564 679 q 556 673 564 674 q 547 678 547 672 q 492 808 540 750 q 354 865 444 865 q 232 817 271 865 q 193 700 193 768 q 220 604 193 644 q 287 535 247 564 q 393 471 326 507 q 506 401 464 431 q 576 326 547 371 q 606 218 606 281 z "},"Ŝ":{"ha":686,"x_min":97,"x_max":606,"o":"m 193 700 q 220 604 193 644 q 287 535 247 564 q 393 471 326 507 q 506 401 464 431 q 576 326 547 371 q 606 218 606 281 q 574 99 606 153 q 478 15 542 46 q 324 -17 414 -17 q 228 -6 274 -17 q 132 31 183 4 q 122 42 125 35 q 118 57 119 49 l 97 238 q 104 244 96 243 q 114 240 113 246 q 150 126 121 181 q 231 38 179 72 q 354 3 283 3 q 478 43 428 3 q 529 169 529 83 q 501 277 529 232 q 433 352 474 322 q 324 422 392 382 q 216 492 256 463 q 149 565 176 521 q 122 668 122 608 q 158 786 122 738 q 250 859 193 835 q 372 883 307 883 q 531 850 449 883 q 553 826 553 842 l 564 679 q 556 673 564 674 q 547 678 547 672 q 492 808 540 750 q 354 865 444 865 q 232 817 271 865 q 193 700 193 768 m 239 917 q 231 920 235 917 q 231 926 228 924 l 353 1054 q 365 1061 357 1061 q 379 1054 372 1061 l 501 926 l 501 924 q 499 917 501 919 q 493 917 496 914 l 361 1003 l 240 917 l 239 917 z "},"Ș":{"ha":686,"x_min":97,"x_max":606,"o":"m 193 700 q 220 604 193 644 q 287 535 247 564 q 393 471 326 507 q 506 401 464 431 q 576 326 547 371 q 606 218 606 281 q 574 99 606 153 q 478 15 542 46 q 324 -17 414 -17 q 228 -6 274 -17 q 132 31 183 4 q 122 42 125 35 q 118 57 119 49 l 97 238 q 104 244 96 243 q 114 240 113 246 q 150 126 121 181 q 231 38 179 72 q 354 3 283 3 q 478 43 428 3 q 529 169 529 83 q 501 277 529 232 q 433 352 474 322 q 324 422 392 382 q 216 492 256 463 q 149 565 176 521 q 122 668 122 608 q 158 786 122 738 q 250 859 193 835 q 372 883 307 883 q 531 850 449 883 q 553 826 553 842 l 564 679 q 556 673 564 674 q 547 678 547 672 q 492 808 540 750 q 354 865 444 865 q 232 817 271 865 q 193 700 193 768 m 349 -124 q 403 -149 385 -124 q 422 -222 422 -174 q 402 -306 422 -268 q 342 -382 382 -344 l 339 -383 q 331 -379 335 -383 q 331 -372 328 -375 q 392 -240 392 -317 q 385 -201 392 -215 q 346 -221 374 -221 q 308 -208 321 -221 q 296 -172 296 -194 q 349 -124 296 -124 z "},"Ṡ":{"ha":686,"x_min":97,"x_max":606,"o":"m 193 700 q 220 604 193 644 q 287 535 247 564 q 393 471 326 507 q 506 401 464 431 q 576 326 547 371 q 606 218 606 281 q 574 99 606 153 q 478 15 542 46 q 324 -17 414 -17 q 228 -6 274 -17 q 132 31 183 4 q 122 42 125 35 q 118 57 119 49 l 97 238 q 104 244 96 243 q 114 240 113 246 q 150 126 121 181 q 231 38 179 72 q 354 3 283 3 q 478 43 428 3 q 529 169 529 83 q 501 277 529 232 q 433 352 474 322 q 324 422 392 382 q 216 492 256 463 q 149 565 176 521 q 122 668 122 608 q 158 786 122 738 q 250 859 193 835 q 372 883 307 883 q 531 850 449 883 q 553 826 553 842 l 564 679 q 556 673 564 674 q 547 678 547 672 q 492 808 540 750 q 354 865 444 865 q 232 817 271 865 q 193 700 193 768 m 363 981 q 322 995 338 981 q 307 1035 307 1010 q 322 1072 307 1058 q 363 1086 338 1086 q 403 1072 389 1086 q 417 1035 417 1058 q 403 994 417 1008 q 363 981 389 981 z "},"Ṣ":{"ha":686,"x_min":97,"x_max":606,"o":"m 193 700 q 220 604 193 644 q 287 535 247 564 q 393 471 326 507 q 506 401 464 431 q 576 326 547 371 q 606 218 606 281 q 574 99 606 153 q 478 15 542 46 q 324 -17 414 -17 q 228 -6 274 -17 q 132 31 183 4 q 122 42 125 35 q 118 57 119 49 l 97 238 q 104 244 96 243 q 114 240 113 246 q 150 126 121 181 q 231 38 179 72 q 354 3 283 3 q 478 43 428 3 q 529 169 529 83 q 501 277 529 232 q 433 352 474 322 q 324 422 392 382 q 216 492 256 463 q 149 565 176 521 q 122 668 122 608 q 158 786 122 738 q 250 859 193 835 q 372 883 307 883 q 531 850 449 883 q 553 826 553 842 l 564 679 q 556 673 564 674 q 547 678 547 672 q 492 808 540 750 q 354 865 444 865 q 232 817 271 865 q 193 700 193 768 m 353 -257 q 312 -243 326 -257 q 297 -203 297 -229 q 312 -165 297 -179 q 353 -151 326 -151 q 392 -165 378 -151 q 406 -203 406 -179 q 392 -243 406 -229 q 353 -257 378 -257 z "},"ẞ":{"ha":947,"x_min":15,"x_max":885,"o":"m 622 -17 q 453 31 532 -17 q 442 42 444 36 q 438 57 439 47 l 419 189 l 419 190 q 426 197 419 197 q 435 190 433 197 q 483 106 446 147 q 572 38 521 64 q 672 11 624 11 q 784 53 743 11 q 824 172 825 94 q 763 317 824 246 q 561 481 701 388 q 556 501 543 490 l 721 750 q 555 817 635 794 q 414 840 475 840 q 269 778 315 840 q 224 561 224 717 l 224 113 q 233 50 224 69 q 269 24 242 31 q 354 17 296 17 q 360 8 360 17 q 356 0 361 0 l 183 1 l 21 0 q 15 8 15 0 q 21 17 15 17 q 102 24 75 17 q 140 52 129 32 q 150 113 151 72 l 150 531 q 189 699 150 618 q 303 832 228 781 q 481 883 379 883 q 597 869 535 883 q 710 835 658 854 q 734 827 717 832 q 760 822 751 822 q 783 832 774 822 q 815 874 792 842 q 819 875 815 875 q 828 872 824 875 q 831 865 832 868 l 606 535 q 821 374 758 442 q 883 231 883 307 q 856 111 885 168 q 767 19 826 54 q 622 -17 707 -17 z "},"Ə":{"ha":888,"x_min":79,"x_max":817,"o":"m 401 883 q 644 820 551 883 q 777 660 738 757 q 817 450 817 563 q 758 200 817 306 q 601 39 700 94 q 382 -17 501 -17 q 212 22 281 -17 q 111 117 143 61 q 79 226 79 174 q 83 240 79 236 q 96 243 88 243 l 711 246 q 728 400 728 315 q 688 638 728 532 q 575 806 649 744 q 403 868 501 868 q 285 847 346 868 q 176 782 225 825 q 108 676 128 739 q 100 672 107 672 q 91 675 96 672 q 88 681 86 678 l 144 888 q 150 892 144 892 q 159 889 154 892 q 163 882 164 886 q 161 868 161 876 q 168 848 161 856 q 186 840 175 840 q 201 843 190 840 q 306 874 264 865 q 401 883 349 883 m 431 10 q 603 64 533 10 q 704 219 672 118 l 171 213 q 251 65 181 121 q 431 10 322 10 z "},"T":{"ha":828,"x_min":35,"x_max":797,"o":"m 268 0 q 263 8 263 0 q 267 17 263 17 q 342 24 318 17 q 376 51 367 31 q 383 113 385 71 l 383 756 q 376 813 383 794 q 347 839 368 832 q 279 846 325 846 l 239 846 q 137 828 174 846 q 81 768 100 810 q 51 651 61 726 q 46 649 51 649 q 35 653 35 649 q 56 899 42 697 q 63 903 56 903 q 70 901 67 903 q 74 897 74 900 q 136 868 74 868 q 418 864 249 864 q 589 867 494 864 l 686 868 q 753 875 732 868 q 779 903 774 882 q 790 906 782 907 q 796 900 797 906 q 788 765 792 846 q 785 654 783 683 q 776 650 785 650 q 767 654 767 650 q 752 769 767 729 q 701 828 738 810 q 594 846 664 846 l 553 846 q 489 838 510 846 q 461 811 468 831 q 454 753 454 792 l 457 113 q 466 50 458 69 q 497 24 474 31 q 574 17 521 17 q 576 8 576 17 q 574 0 576 0 q 511 1 533 0 l 419 3 l 331 1 q 268 0 308 0 z "},"Ŧ":{"ha":828,"x_min":35,"x_max":797,"o":"m 779 903 q 790 906 782 907 q 796 900 797 906 q 788 765 792 846 q 785 654 783 683 q 776 650 785 650 q 767 654 767 650 q 752 769 767 729 q 701 828 738 810 q 594 846 664 846 l 553 846 q 489 838 510 846 q 461 811 468 831 q 454 753 454 792 l 456 461 l 597 461 q 602 457 600 461 q 604 449 604 453 q 602 439 604 443 q 597 435 600 435 l 456 435 l 457 113 q 466 50 458 69 q 497 24 474 31 q 574 17 521 17 q 576 8 576 17 q 574 0 576 0 q 511 1 533 0 l 419 3 l 331 1 q 268 0 308 0 q 263 8 263 0 q 267 17 263 17 q 342 24 318 17 q 376 51 367 31 q 383 113 385 71 l 383 435 l 240 435 q 235 449 235 435 q 240 461 235 461 l 383 461 l 383 756 q 376 813 383 794 q 347 839 368 832 q 279 846 325 846 l 239 846 q 137 828 174 846 q 81 768 100 810 q 51 651 61 726 q 46 649 51 649 q 35 653 35 649 q 56 899 42 697 q 63 903 56 903 q 70 901 67 903 q 74 897 74 900 q 136 868 74 868 q 418 864 249 864 q 589 867 494 864 l 686 868 q 753 875 732 868 q 779 903 774 882 z "},"Ť":{"ha":828,"x_min":35,"x_max":796,"o":"m 268 0 q 263 8 263 0 q 267 17 263 17 q 342 24 318 17 q 376 51 367 31 q 383 113 385 71 l 383 756 q 376 813 383 794 q 347 839 368 832 q 279 846 325 846 l 239 846 q 137 828 174 846 q 81 768 100 810 q 51 651 61 726 q 46 649 51 649 q 35 653 35 649 q 56 899 42 697 q 63 903 56 903 q 70 901 67 903 q 74 897 74 900 q 136 868 74 868 q 418 864 249 864 q 589 867 494 864 l 686 868 q 753 875 732 868 q 779 903 774 882 q 790 906 782 907 q 796 900 797 906 q 788 765 792 846 q 785 654 783 683 q 776 650 785 650 q 767 654 767 650 q 752 769 767 729 q 701 828 738 810 q 594 846 664 846 l 553 846 q 489 838 510 846 q 461 811 468 831 q 454 753 454 792 l 457 113 q 466 50 458 69 q 497 24 474 31 q 574 17 521 17 q 576 8 576 17 q 574 0 576 0 q 511 1 533 0 l 419 3 l 331 1 q 268 0 308 0 m 276 1067 l 276 1068 q 280 1074 276 1071 q 285 1076 283 1078 l 415 990 l 538 1078 l 539 1078 q 546 1073 542 1078 q 547 1067 550 1068 l 425 938 q 413 932 421 932 q 399 938 404 932 l 276 1067 z "},"Ţ":{"ha":828,"x_min":35,"x_max":797,"o":"m 779 903 q 790 906 782 907 q 796 900 797 906 q 788 765 792 846 q 785 654 783 683 q 776 650 785 650 q 767 654 767 650 q 752 769 767 729 q 701 828 738 810 q 594 846 664 846 l 553 846 q 489 838 510 846 q 461 811 468 831 q 454 753 454 792 l 457 113 q 466 50 458 69 q 497 24 474 31 q 574 17 521 17 q 576 8 576 17 q 574 0 576 0 q 515 1 536 0 l 432 3 q 424 -58 424 -31 q 458 -144 424 -110 q 507 -206 490 -179 q 522 -261 524 -233 q 494 -343 524 -304 q 407 -382 464 -382 q 352 -367 375 -382 q 329 -322 329 -351 q 358 -294 329 -294 q 380 -302 371 -294 q 403 -326 389 -310 q 422 -348 414 -340 q 442 -356 431 -356 q 485 -299 483 -356 q 418 -192 483 -254 q 381 -112 381 -154 q 386 -83 381 -96 l 415 3 l 329 1 q 268 0 307 0 q 263 8 263 0 q 267 17 263 17 q 342 24 318 17 q 376 51 367 31 q 383 113 385 71 l 383 756 q 376 813 383 794 q 347 839 368 832 q 279 846 325 846 l 239 846 q 137 828 174 846 q 81 768 100 810 q 51 651 61 726 q 46 649 51 649 q 35 653 35 649 q 56 899 42 697 q 63 903 56 903 q 70 901 67 903 q 74 897 74 900 q 136 868 74 868 q 418 864 249 864 q 589 867 494 864 l 686 868 q 753 875 732 868 q 779 903 774 882 z "},"Ț":{"ha":828,"x_min":35,"x_max":796,"o":"m 268 0 q 263 8 263 0 q 267 17 263 17 q 342 24 318 17 q 376 51 367 31 q 383 113 385 71 l 383 756 q 376 813 383 794 q 347 839 368 832 q 279 846 325 846 l 239 846 q 137 828 174 846 q 81 768 100 810 q 51 651 61 726 q 46 649 51 649 q 35 653 35 649 q 56 899 42 697 q 63 903 56 903 q 70 901 67 903 q 74 897 74 900 q 136 868 74 868 q 418 864 249 864 q 589 867 494 864 l 686 868 q 753 875 732 868 q 779 903 774 882 q 790 906 782 907 q 796 900 797 906 q 788 765 792 846 q 785 654 783 683 q 776 650 785 650 q 767 654 767 650 q 752 769 767 729 q 701 828 738 810 q 594 846 664 846 l 553 846 q 489 838 510 846 q 461 811 468 831 q 454 753 454 792 l 457 113 q 466 50 458 69 q 497 24 474 31 q 574 17 521 17 q 576 8 576 17 q 574 0 576 0 q 511 1 533 0 l 419 3 l 331 1 q 268 0 308 0 m 421 -124 q 476 -149 457 -124 q 494 -222 494 -174 q 474 -306 494 -268 q 414 -382 454 -344 l 411 -383 q 403 -379 407 -383 q 403 -372 400 -375 q 464 -240 464 -317 q 457 -201 464 -215 q 418 -221 446 -221 q 381 -208 393 -221 q 368 -172 368 -194 q 421 -124 368 -124 z "},"Ṭ":{"ha":828,"x_min":35,"x_max":796,"o":"m 268 0 q 263 8 263 0 q 267 17 263 17 q 342 24 318 17 q 376 51 367 31 q 383 113 385 71 l 383 756 q 376 813 383 794 q 347 839 368 832 q 279 846 325 846 l 239 846 q 137 828 174 846 q 81 768 100 810 q 51 651 61 726 q 46 649 51 649 q 35 653 35 649 q 56 899 42 697 q 63 903 56 903 q 70 901 67 903 q 74 897 74 900 q 136 868 74 868 q 418 864 249 864 q 589 867 494 864 l 686 868 q 753 875 732 868 q 779 903 774 882 q 790 906 782 907 q 796 900 797 906 q 788 765 792 846 q 785 654 783 683 q 776 650 785 650 q 767 654 767 650 q 752 769 767 729 q 701 828 738 810 q 594 846 664 846 l 553 846 q 489 838 510 846 q 461 811 468 831 q 454 753 454 792 l 457 113 q 466 50 458 69 q 497 24 474 31 q 574 17 521 17 q 576 8 576 17 q 574 0 576 0 q 511 1 533 0 l 419 3 l 331 1 q 268 0 308 0 m 425 -257 q 384 -243 399 -257 q 369 -203 369 -229 q 384 -165 369 -179 q 425 -151 399 -151 q 464 -165 450 -151 q 478 -203 478 -179 q 464 -243 478 -229 q 425 -257 450 -257 z "},"Ṯ":{"ha":828,"x_min":35,"x_max":796,"o":"m 268 0 q 263 8 263 0 q 267 17 263 17 q 342 24 318 17 q 376 51 367 31 q 383 113 385 71 l 383 756 q 376 813 383 794 q 347 839 368 832 q 279 846 325 846 l 239 846 q 137 828 174 846 q 81 768 100 810 q 51 651 61 726 q 46 649 51 649 q 35 653 35 649 q 56 899 42 697 q 63 903 56 903 q 70 901 67 903 q 74 897 74 900 q 136 868 74 868 q 418 864 249 864 q 589 867 494 864 l 686 868 q 753 875 732 868 q 779 903 774 882 q 790 906 782 907 q 796 900 797 906 q 788 765 792 846 q 785 654 783 683 q 776 650 785 650 q 767 654 767 650 q 752 769 767 729 q 701 828 738 810 q 594 846 664 846 l 553 846 q 489 838 510 846 q 461 811 468 831 q 454 753 454 792 l 457 113 q 466 50 458 69 q 497 24 474 31 q 574 17 521 17 q 576 8 576 17 q 574 0 576 0 q 511 1 533 0 l 419 3 l 331 1 q 268 0 308 0 m 251 -161 q 244 -143 244 -161 q 251 -125 244 -125 l 585 -125 q 590 -131 588 -125 q 592 -143 592 -136 q 585 -161 592 -161 l 251 -161 z "},"U":{"ha":1042,"x_min":46,"x_max":999,"o":"m 993 17 q 998 8 997 17 q 993 0 999 0 l 878 1 l 811 0 q 792 5 796 0 q 788 26 788 10 l 788 129 q 633 18 707 53 q 475 -17 560 -17 q 315 17 386 -17 q 204 113 244 50 q 164 258 164 175 l 164 756 q 154 817 163 797 q 122 844 146 836 q 49 851 99 851 q 46 860 46 851 q 49 868 46 868 l 110 867 q 197 864 163 864 q 289 867 233 864 l 351 868 q 354 860 354 868 q 351 851 354 851 q 278 843 301 851 q 246 815 254 835 q 236 753 238 794 l 238 307 q 306 94 238 169 q 504 18 375 18 q 647 49 581 18 q 788 154 713 79 l 785 753 q 778 815 786 794 q 747 843 771 835 q 672 851 724 851 q 669 860 669 851 q 672 868 669 868 l 733 867 q 822 864 789 864 q 913 867 854 864 l 975 868 q 978 860 978 868 q 975 851 978 851 q 901 844 925 851 q 869 817 878 836 q 860 756 860 797 l 860 113 q 869 51 860 71 q 906 24 879 31 q 993 17 933 17 z "},"Ú":{"ha":1042,"x_min":46,"x_max":997,"o":"m 993 17 q 998 8 997 17 q 993 0 999 0 l 878 1 l 811 0 q 792 5 796 0 q 788 26 788 10 l 788 129 q 633 18 707 53 q 475 -17 560 -17 q 315 17 386 -17 q 204 113 244 50 q 164 258 164 175 l 164 756 q 154 817 163 797 q 122 844 146 836 q 49 851 99 851 q 46 860 46 851 q 49 868 46 868 l 110 867 q 197 864 163 864 q 289 867 233 864 l 351 868 q 354 860 354 868 q 351 851 354 851 q 278 843 301 851 q 246 815 254 835 q 236 753 238 794 l 238 307 q 306 94 238 169 q 504 18 375 18 q 647 49 581 18 q 788 154 713 79 l 785 753 q 778 815 786 794 q 747 843 771 835 q 672 851 724 851 q 669 860 669 851 q 672 868 669 868 l 733 867 q 822 864 789 864 q 913 867 854 864 l 975 868 q 978 860 978 868 q 975 851 978 851 q 901 844 925 851 q 869 817 878 836 q 860 756 860 797 l 860 113 q 869 51 860 71 q 906 24 879 31 q 993 17 933 17 m 425 942 q 417 948 419 942 q 418 957 414 954 q 576 1050 474 985 q 633 1086 606 1071 q 664 1081 639 1089 q 708 1062 689 1072 q 717 1050 726 1051 q 428 943 568 1011 l 425 942 z "},"Ŭ":{"ha":1042,"x_min":46,"x_max":997,"o":"m 993 17 q 998 8 997 17 q 993 0 999 0 l 878 1 l 811 0 q 792 5 796 0 q 788 26 788 10 l 788 129 q 633 18 707 53 q 475 -17 560 -17 q 315 17 386 -17 q 204 113 244 50 q 164 258 164 175 l 164 756 q 154 817 163 797 q 122 844 146 836 q 49 851 99 851 q 46 860 46 851 q 49 868 46 868 l 110 867 q 197 864 163 864 q 289 867 233 864 l 351 868 q 354 860 354 868 q 351 851 354 851 q 278 843 301 851 q 246 815 254 835 q 236 753 238 794 l 238 307 q 306 94 238 169 q 504 18 375 18 q 647 49 581 18 q 788 154 713 79 l 785 753 q 778 815 786 794 q 747 843 771 835 q 672 851 724 851 q 669 860 669 851 q 672 868 669 868 l 733 867 q 822 864 789 864 q 913 867 854 864 l 975 868 q 978 860 978 868 q 975 851 978 851 q 901 844 925 851 q 869 817 878 836 q 860 756 860 797 l 860 113 q 869 51 860 71 q 906 24 879 31 q 993 17 933 17 m 506 924 q 425 955 461 924 q 378 1042 389 986 q 392 1057 376 1050 q 422 1064 408 1064 q 433 1060 433 1064 q 472 992 446 1015 q 529 968 497 968 q 585 990 560 968 q 624 1054 611 1013 q 631 1058 626 1058 q 642 1056 636 1058 q 649 1050 649 1053 q 592 956 632 989 q 506 924 551 924 z "},"Ǔ":{"ha":1042,"x_min":46,"x_max":997,"o":"m 993 17 q 998 8 997 17 q 993 0 999 0 l 878 1 l 811 0 q 792 5 796 0 q 788 26 788 10 l 788 129 q 633 18 707 53 q 475 -17 560 -17 q 315 17 386 -17 q 204 113 244 50 q 164 258 164 175 l 164 756 q 154 817 163 797 q 122 844 146 836 q 49 851 99 851 q 46 860 46 851 q 49 868 46 868 l 110 867 q 197 864 163 864 q 289 867 233 864 l 351 868 q 354 860 354 868 q 351 851 354 851 q 278 843 301 851 q 246 815 254 835 q 236 753 238 794 l 238 307 q 306 94 238 169 q 504 18 375 18 q 647 49 581 18 q 788 154 713 79 l 785 753 q 778 815 786 794 q 747 843 771 835 q 672 851 724 851 q 669 860 669 851 q 672 868 669 868 l 733 867 q 822 864 789 864 q 913 867 854 864 l 975 868 q 978 860 978 868 q 975 851 978 851 q 901 844 925 851 q 869 817 878 836 q 860 756 860 797 l 860 113 q 869 51 860 71 q 906 24 879 31 q 993 17 933 17 m 371 1067 l 371 1068 q 374 1074 371 1071 q 379 1076 378 1078 l 510 990 l 632 1078 l 633 1078 q 640 1073 636 1078 q 642 1067 644 1068 l 519 938 q 507 932 515 932 q 493 938 499 932 l 371 1067 z "},"Û":{"ha":1042,"x_min":46,"x_max":997,"o":"m 993 17 q 998 8 997 17 q 993 0 999 0 l 878 1 l 811 0 q 792 5 796 0 q 788 26 788 10 l 788 129 q 633 18 707 53 q 475 -17 560 -17 q 315 17 386 -17 q 204 113 244 50 q 164 258 164 175 l 164 756 q 154 817 163 797 q 122 844 146 836 q 49 851 99 851 q 46 860 46 851 q 49 868 46 868 l 110 867 q 197 864 163 864 q 289 867 233 864 l 351 868 q 354 860 354 868 q 351 851 354 851 q 278 843 301 851 q 246 815 254 835 q 236 753 238 794 l 238 307 q 306 94 238 169 q 504 18 375 18 q 647 49 581 18 q 788 154 713 79 l 785 753 q 778 815 786 794 q 747 843 771 835 q 672 851 724 851 q 669 860 669 851 q 672 868 669 868 l 733 867 q 822 864 789 864 q 913 867 854 864 l 975 868 q 978 860 978 868 q 975 851 978 851 q 901 844 925 851 q 869 817 878 836 q 860 756 860 797 l 860 113 q 869 51 860 71 q 906 24 879 31 q 993 17 933 17 m 386 917 q 378 920 382 917 q 378 926 375 924 l 500 1054 q 513 1061 504 1061 q 526 1054 519 1061 l 649 926 l 649 924 q 646 917 649 919 q 640 917 643 914 l 508 1003 l 388 917 l 386 917 z "},"Ü":{"ha":1042,"x_min":46,"x_max":997,"o":"m 993 17 q 998 8 997 17 q 993 0 999 0 l 878 1 l 811 0 q 792 5 796 0 q 788 26 788 10 l 788 129 q 633 18 707 53 q 475 -17 560 -17 q 315 17 386 -17 q 204 113 244 50 q 164 258 164 175 l 164 756 q 154 817 163 797 q 122 844 146 836 q 49 851 99 851 q 46 860 46 851 q 49 868 46 868 l 110 867 q 197 864 163 864 q 289 867 233 864 l 351 868 q 354 860 354 868 q 351 851 354 851 q 278 843 301 851 q 246 815 254 835 q 236 753 238 794 l 238 307 q 306 94 238 169 q 504 18 375 18 q 647 49 581 18 q 788 154 713 79 l 785 753 q 778 815 786 794 q 747 843 771 835 q 672 851 724 851 q 669 860 669 851 q 672 868 669 868 l 733 867 q 822 864 789 864 q 913 867 854 864 l 975 868 q 978 860 978 868 q 975 851 978 851 q 901 844 925 851 q 869 817 878 836 q 860 756 860 797 l 860 113 q 869 51 860 71 q 906 24 879 31 q 993 17 933 17 m 407 1000 q 367 1014 382 1000 q 351 1053 351 1028 q 367 1092 351 1078 q 407 1106 382 1106 q 447 1092 433 1106 q 461 1053 461 1078 q 447 1014 461 1028 q 407 1000 433 1000 m 614 1000 q 573 1014 588 1000 q 558 1053 558 1028 q 573 1092 558 1078 q 614 1106 588 1106 q 653 1092 639 1106 q 667 1053 667 1078 q 653 1014 667 1028 q 614 1000 639 1000 z "},"Ǘ":{"ha":1042,"x_min":46,"x_max":997,"o":"m 993 17 q 998 8 997 17 q 993 0 999 0 l 878 1 l 811 0 q 792 5 796 0 q 788 26 788 10 l 788 129 q 633 18 707 53 q 475 -17 560 -17 q 315 17 386 -17 q 204 113 244 50 q 164 258 164 175 l 164 756 q 154 817 163 797 q 122 844 146 836 q 49 851 99 851 q 46 860 46 851 q 49 868 46 868 l 110 867 q 197 864 163 864 q 289 867 233 864 l 351 868 q 354 860 354 868 q 351 851 354 851 q 278 843 301 851 q 246 815 254 835 q 236 753 238 794 l 238 307 q 306 94 238 169 q 504 18 375 18 q 647 49 581 18 q 788 154 713 79 l 785 753 q 778 815 786 794 q 747 843 771 835 q 672 851 724 851 q 669 860 669 851 q 672 868 669 868 l 733 867 q 822 864 789 864 q 913 867 854 864 l 975 868 q 978 860 978 868 q 975 851 978 851 q 901 844 925 851 q 869 817 878 836 q 860 756 860 797 l 860 113 q 869 51 860 71 q 906 24 879 31 q 993 17 933 17 m 404 968 q 364 982 379 968 q 349 1021 349 996 q 364 1060 349 1046 q 404 1074 379 1074 q 444 1060 431 1074 q 458 1021 458 1046 q 444 982 458 996 q 404 968 431 968 m 611 968 q 570 982 585 968 q 556 1021 556 996 q 570 1060 556 1046 q 611 1074 585 1074 q 650 1060 636 1074 q 664 1021 664 1046 q 650 982 664 996 q 611 968 636 968 m 369 1104 q 361 1110 364 1104 q 363 1119 358 1117 q 521 1213 418 1147 q 578 1249 550 1233 q 608 1243 583 1251 q 652 1224 633 1235 q 661 1213 671 1214 q 372 1106 513 1174 l 369 1104 z "},"Ǚ":{"ha":1042,"x_min":46,"x_max":997,"o":"m 993 17 q 998 8 997 17 q 993 0 999 0 l 878 1 l 811 0 q 792 5 796 0 q 788 26 788 10 l 788 129 q 633 18 707 53 q 475 -17 560 -17 q 315 17 386 -17 q 204 113 244 50 q 164 258 164 175 l 164 756 q 154 817 163 797 q 122 844 146 836 q 49 851 99 851 q 46 860 46 851 q 49 868 46 868 l 110 867 q 197 864 163 864 q 289 867 233 864 l 351 868 q 354 860 354 868 q 351 851 354 851 q 278 843 301 851 q 246 815 254 835 q 236 753 238 794 l 238 307 q 306 94 238 169 q 504 18 375 18 q 647 49 581 18 q 788 154 713 79 l 785 753 q 778 815 786 794 q 747 843 771 835 q 672 851 724 851 q 669 860 669 851 q 672 868 669 868 l 733 867 q 822 864 789 864 q 913 867 854 864 l 975 868 q 978 860 978 868 q 975 851 978 851 q 901 844 925 851 q 869 817 878 836 q 860 756 860 797 l 860 113 q 869 51 860 71 q 906 24 879 31 q 993 17 933 17 m 404 968 q 364 982 379 968 q 349 1021 349 996 q 364 1060 349 1046 q 404 1074 379 1074 q 444 1060 431 1074 q 458 1021 458 1046 q 444 982 458 996 q 404 968 431 968 m 611 968 q 570 982 585 968 q 556 1021 556 996 q 570 1060 556 1046 q 611 1074 585 1074 q 650 1060 636 1074 q 664 1021 664 1046 q 650 982 664 996 q 611 968 636 968 m 383 1096 q 376 1099 381 1094 q 374 1106 371 1103 l 496 1233 q 508 1240 503 1240 q 522 1233 515 1240 l 643 1106 q 642 1098 646 1103 q 636 1096 639 1093 l 506 1182 l 383 1096 z "},"Ǜ":{"ha":1042,"x_min":46,"x_max":997,"o":"m 993 17 q 998 8 997 17 q 993 0 999 0 l 878 1 l 811 0 q 792 5 796 0 q 788 26 788 10 l 788 129 q 633 18 707 53 q 475 -17 560 -17 q 315 17 386 -17 q 204 113 244 50 q 164 258 164 175 l 164 756 q 154 817 163 797 q 122 844 146 836 q 49 851 99 851 q 46 860 46 851 q 49 868 46 868 l 110 867 q 197 864 163 864 q 289 867 233 864 l 351 868 q 354 860 354 868 q 351 851 354 851 q 278 843 301 851 q 246 815 254 835 q 236 753 238 794 l 238 307 q 306 94 238 169 q 504 18 375 18 q 647 49 581 18 q 788 154 713 79 l 785 753 q 778 815 786 794 q 747 843 771 835 q 672 851 724 851 q 669 860 669 851 q 672 868 669 868 l 733 867 q 822 864 789 864 q 913 867 854 864 l 975 868 q 978 860 978 868 q 975 851 978 851 q 901 844 925 851 q 869 817 878 836 q 860 756 860 797 l 860 113 q 869 51 860 71 q 906 24 879 31 q 993 17 933 17 m 408 968 q 368 982 383 968 q 353 1021 353 996 q 368 1060 353 1046 q 408 1074 383 1074 q 449 1060 435 1074 q 463 1021 463 1046 q 449 982 463 996 q 408 968 435 968 m 615 968 q 574 982 589 968 q 560 1021 560 996 q 574 1060 560 1046 q 615 1074 589 1074 q 654 1060 640 1074 q 668 1021 668 1046 q 654 982 668 996 q 615 968 640 968 m 650 1097 q 372 1204 510 1167 q 381 1216 363 1206 q 426 1235 400 1226 q 457 1240 451 1243 q 486 1221 476 1226 q 654 1111 575 1156 q 658 1106 658 1110 q 656 1099 658 1101 q 650 1097 653 1096 z "},"Ǖ":{"ha":1042,"x_min":46,"x_max":997,"o":"m 993 17 q 998 8 997 17 q 993 0 999 0 l 878 1 l 811 0 q 792 5 796 0 q 788 26 788 10 l 788 129 q 633 18 707 53 q 475 -17 560 -17 q 315 17 386 -17 q 204 113 244 50 q 164 258 164 175 l 164 756 q 154 817 163 797 q 122 844 146 836 q 49 851 99 851 q 46 860 46 851 q 49 868 46 868 l 110 867 q 197 864 163 864 q 289 867 233 864 l 351 868 q 354 860 354 868 q 351 851 354 851 q 278 843 301 851 q 246 815 254 835 q 236 753 238 794 l 238 307 q 306 94 238 169 q 504 18 375 18 q 647 49 581 18 q 788 154 713 79 l 785 753 q 778 815 786 794 q 747 843 771 835 q 672 851 724 851 q 669 860 669 851 q 672 868 669 868 l 733 867 q 822 864 789 864 q 913 867 854 864 l 975 868 q 978 860 978 868 q 975 851 978 851 q 901 844 925 851 q 869 817 878 836 q 860 756 860 797 l 860 113 q 869 51 860 71 q 906 24 879 31 q 993 17 933 17 m 403 968 q 363 982 378 968 q 347 1021 347 996 q 363 1060 347 1046 q 403 1074 378 1074 q 443 1060 429 1074 q 457 1021 457 1046 q 443 982 457 996 q 403 968 429 968 m 610 968 q 569 982 583 968 q 554 1021 554 996 q 569 1060 554 1046 q 610 1074 583 1074 q 649 1060 635 1074 q 663 1021 663 1046 q 649 982 663 996 q 610 968 635 968 m 336 1129 q 331 1135 333 1129 q 329 1147 329 1140 q 336 1165 329 1165 l 669 1165 q 676 1147 676 1165 q 669 1129 676 1129 l 336 1129 z "},"Ụ":{"ha":1042,"x_min":46,"x_max":997,"o":"m 993 17 q 998 8 997 17 q 993 0 999 0 l 878 1 l 811 0 q 792 5 796 0 q 788 26 788 10 l 788 129 q 633 18 707 53 q 475 -17 560 -17 q 315 17 386 -17 q 204 113 244 50 q 164 258 164 175 l 164 756 q 154 817 163 797 q 122 844 146 836 q 49 851 99 851 q 46 860 46 851 q 49 868 46 868 l 110 867 q 197 864 163 864 q 289 867 233 864 l 351 868 q 354 860 354 868 q 351 851 354 851 q 278 843 301 851 q 246 815 254 835 q 236 753 238 794 l 238 307 q 306 94 238 169 q 504 18 375 18 q 647 49 581 18 q 788 154 713 79 l 785 753 q 778 815 786 794 q 747 843 771 835 q 672 851 724 851 q 669 860 669 851 q 672 868 669 868 l 733 867 q 822 864 789 864 q 913 867 854 864 l 975 868 q 978 860 978 868 q 975 851 978 851 q 901 844 925 851 q 869 817 878 836 q 860 756 860 797 l 860 113 q 869 51 860 71 q 906 24 879 31 q 993 17 933 17 m 526 -257 q 485 -243 500 -257 q 471 -203 471 -229 q 485 -165 471 -179 q 526 -151 500 -151 q 565 -165 551 -151 q 579 -203 579 -179 q 565 -243 579 -229 q 526 -257 551 -257 z "},"Ù":{"ha":1042,"x_min":46,"x_max":997,"o":"m 993 17 q 998 8 997 17 q 993 0 999 0 l 878 1 l 811 0 q 792 5 796 0 q 788 26 788 10 l 788 129 q 633 18 707 53 q 475 -17 560 -17 q 315 17 386 -17 q 204 113 244 50 q 164 258 164 175 l 164 756 q 154 817 163 797 q 122 844 146 836 q 49 851 99 851 q 46 860 46 851 q 49 868 46 868 l 110 867 q 197 864 163 864 q 289 867 233 864 l 351 868 q 354 860 354 868 q 351 851 354 851 q 278 843 301 851 q 246 815 254 835 q 236 753 238 794 l 238 307 q 306 94 238 169 q 504 18 375 18 q 647 49 581 18 q 788 154 713 79 l 785 753 q 778 815 786 794 q 747 843 771 835 q 672 851 724 851 q 669 860 669 851 q 672 868 669 868 l 733 867 q 822 864 789 864 q 913 867 854 864 l 975 868 q 978 860 978 868 q 975 851 978 851 q 901 844 925 851 q 869 817 878 836 q 860 756 860 797 l 860 113 q 869 51 860 71 q 906 24 879 31 q 993 17 933 17 m 642 943 q 364 1050 501 1013 q 373 1062 354 1051 q 417 1081 392 1072 q 449 1086 443 1089 q 478 1067 468 1072 q 646 957 567 1001 q 650 951 650 956 q 647 944 650 947 q 642 943 644 942 z "},"Ủ":{"ha":1042,"x_min":46,"x_max":997,"o":"m 993 17 q 998 8 997 17 q 993 0 999 0 l 878 1 l 811 0 q 792 5 796 0 q 788 26 788 10 l 788 129 q 633 18 707 53 q 475 -17 560 -17 q 315 17 386 -17 q 204 113 244 50 q 164 258 164 175 l 164 756 q 154 817 163 797 q 122 844 146 836 q 49 851 99 851 q 46 860 46 851 q 49 868 46 868 l 110 867 q 197 864 163 864 q 289 867 233 864 l 351 868 q 354 860 354 868 q 351 851 354 851 q 278 843 301 851 q 246 815 254 835 q 236 753 238 794 l 238 307 q 306 94 238 169 q 504 18 375 18 q 647 49 581 18 q 788 154 713 79 l 785 753 q 778 815 786 794 q 747 843 771 835 q 672 851 724 851 q 669 860 669 851 q 672 868 669 868 l 733 867 q 822 864 789 864 q 913 867 854 864 l 975 868 q 978 860 978 868 q 975 851 978 851 q 901 844 925 851 q 869 817 878 836 q 860 756 860 797 l 860 113 q 869 51 860 71 q 906 24 879 31 q 993 17 933 17 m 517 901 q 511 899 519 899 q 500 901 503 899 q 496 928 496 917 q 504 965 496 949 q 528 1007 513 982 q 551 1044 543 1031 q 557 1076 558 1058 q 538 1118 557 1103 q 494 1133 519 1133 q 458 1126 475 1133 l 456 1125 q 449 1130 451 1125 q 450 1138 446 1135 q 535 1163 490 1163 q 598 1142 575 1163 q 621 1092 621 1122 q 607 1049 619 1067 q 565 1000 594 1031 q 527 958 540 976 q 514 918 514 939 q 517 901 514 913 z "},"Ư":{"ha":1042,"x_min":46,"x_max":1064,"o":"m 908 851 q 867 824 875 843 q 860 756 860 806 l 860 113 q 869 51 860 71 q 906 24 879 31 q 993 17 933 17 q 998 8 997 17 q 993 0 999 0 l 878 1 l 811 0 q 792 4 796 0 q 788 26 789 8 l 788 129 q 633 18 707 53 q 476 -17 560 -17 q 315 17 386 -17 q 203 113 243 50 q 164 258 164 175 l 164 756 q 154 817 163 797 q 122 844 146 836 q 49 851 99 851 q 46 860 46 851 q 49 868 46 868 l 110 867 q 197 864 163 864 q 289 867 233 864 l 351 868 q 354 860 354 868 q 351 851 354 851 q 278 843 301 851 q 246 815 254 835 q 236 753 238 794 l 238 307 q 308 92 238 165 q 506 18 378 18 q 646 49 579 18 q 788 154 713 81 l 785 753 q 778 815 786 794 q 744 843 769 835 q 664 851 718 851 q 660 860 660 851 q 664 868 660 868 l 728 867 q 821 864 783 864 q 942 883 896 864 q 988 935 988 903 q 982 956 988 946 q 975 969 976 967 q 961 1007 961 992 q 976 1040 961 1028 q 1008 1051 990 1051 q 1049 1031 1035 1051 q 1064 979 1064 1010 q 1023 900 1064 926 q 949 864 982 874 q 908 851 915 854 z "},"Ứ":{"ha":1042,"x_min":46,"x_max":1064,"o":"m 908 851 q 867 824 875 843 q 860 756 860 806 l 860 113 q 869 51 860 71 q 906 24 879 31 q 993 17 933 17 q 998 8 997 17 q 993 0 999 0 l 878 1 l 811 0 q 792 4 796 0 q 788 26 789 8 l 788 129 q 633 18 707 53 q 476 -17 560 -17 q 315 17 386 -17 q 203 113 243 50 q 164 258 164 175 l 164 756 q 154 817 163 797 q 122 844 146 836 q 49 851 99 851 q 46 860 46 851 q 49 868 46 868 l 110 867 q 197 864 163 864 q 289 867 233 864 l 351 868 q 354 860 354 868 q 351 851 354 851 q 278 843 301 851 q 246 815 254 835 q 236 753 238 794 l 238 307 q 308 92 238 165 q 506 18 378 18 q 646 49 579 18 q 788 154 713 81 l 785 753 q 778 815 786 794 q 744 843 769 835 q 664 851 718 851 q 660 860 660 851 q 664 868 660 868 l 728 867 q 821 864 783 864 q 942 883 896 864 q 988 935 988 903 q 982 956 988 946 q 975 969 976 967 q 961 1007 961 992 q 976 1040 961 1028 q 1008 1051 990 1051 q 1049 1031 1035 1051 q 1064 979 1064 1010 q 1023 900 1064 926 q 949 864 982 874 q 908 851 915 854 m 372 942 q 363 948 367 942 q 364 957 360 954 q 513 1043 426 988 l 579 1085 q 609 1080 585 1088 q 653 1062 633 1072 q 663 1050 672 1051 q 374 942 503 1007 l 372 942 z "},"Ự":{"ha":1042,"x_min":46,"x_max":1064,"o":"m 908 851 q 867 824 875 843 q 860 756 860 806 l 860 113 q 869 51 860 71 q 906 24 879 31 q 993 17 933 17 q 998 8 997 17 q 993 0 999 0 l 878 1 l 811 0 q 792 4 796 0 q 788 26 789 8 l 788 129 q 633 18 707 53 q 476 -17 560 -17 q 315 17 386 -17 q 203 113 243 50 q 164 258 164 175 l 164 756 q 154 817 163 797 q 122 844 146 836 q 49 851 99 851 q 46 860 46 851 q 49 868 46 868 l 110 867 q 197 864 163 864 q 289 867 233 864 l 351 868 q 354 860 354 868 q 351 851 354 851 q 278 843 301 851 q 246 815 254 835 q 236 753 238 794 l 238 307 q 308 92 238 165 q 506 18 378 18 q 646 49 579 18 q 788 154 713 81 l 785 753 q 778 815 786 794 q 744 843 769 835 q 664 851 718 851 q 660 860 660 851 q 664 868 660 868 l 728 867 q 821 864 783 864 q 942 883 896 864 q 988 935 988 903 q 982 956 988 946 q 975 969 976 967 q 961 1007 961 992 q 976 1040 961 1028 q 1008 1051 990 1051 q 1049 1031 1035 1051 q 1064 979 1064 1010 q 1023 900 1064 926 q 949 864 982 874 q 908 851 915 854 m 546 -257 q 505 -243 519 -257 q 490 -203 490 -229 q 505 -165 490 -179 q 546 -151 519 -151 q 585 -165 571 -151 q 599 -203 599 -179 q 585 -243 599 -229 q 546 -257 571 -257 z "},"Ừ":{"ha":1042,"x_min":46,"x_max":1064,"o":"m 908 851 q 867 824 875 843 q 860 756 860 806 l 860 113 q 869 51 860 71 q 906 24 879 31 q 993 17 933 17 q 998 8 997 17 q 993 0 999 0 l 878 1 l 811 0 q 792 4 796 0 q 788 26 789 8 l 788 129 q 633 18 707 53 q 476 -17 560 -17 q 315 17 386 -17 q 203 113 243 50 q 164 258 164 175 l 164 756 q 154 817 163 797 q 122 844 146 836 q 49 851 99 851 q 46 860 46 851 q 49 868 46 868 l 110 867 q 197 864 163 864 q 289 867 233 864 l 351 868 q 354 860 354 868 q 351 851 354 851 q 278 843 301 851 q 246 815 254 835 q 236 753 238 794 l 238 307 q 308 92 238 165 q 506 18 378 18 q 646 49 579 18 q 788 154 713 81 l 785 753 q 778 815 786 794 q 744 843 769 835 q 664 851 718 851 q 660 860 660 851 q 664 868 660 868 l 728 867 q 821 864 783 864 q 942 883 896 864 q 988 935 988 903 q 982 956 988 946 q 975 969 976 967 q 961 1007 961 992 q 976 1040 961 1028 q 1008 1051 990 1051 q 1049 1031 1035 1051 q 1064 979 1064 1010 q 1023 900 1064 926 q 949 864 982 874 q 908 851 915 854 m 678 943 q 515 1003 592 978 q 349 1050 439 1029 q 355 1062 339 1051 q 392 1081 371 1072 q 419 1086 414 1089 q 681 957 583 1000 q 685 947 688 954 q 678 943 683 940 z "},"Ử":{"ha":1042,"x_min":46,"x_max":1064,"o":"m 908 851 q 867 824 875 843 q 860 756 860 806 l 860 113 q 869 51 860 71 q 906 24 879 31 q 993 17 933 17 q 998 8 997 17 q 993 0 999 0 l 878 1 l 811 0 q 792 4 796 0 q 788 26 789 8 l 788 129 q 633 18 707 53 q 476 -17 560 -17 q 315 17 386 -17 q 203 113 243 50 q 164 258 164 175 l 164 756 q 154 817 163 797 q 122 844 146 836 q 49 851 99 851 q 46 860 46 851 q 49 868 46 868 l 110 867 q 197 864 163 864 q 289 867 233 864 l 351 868 q 354 860 354 868 q 351 851 354 851 q 278 843 301 851 q 246 815 254 835 q 236 753 238 794 l 238 307 q 308 92 238 165 q 506 18 378 18 q 646 49 579 18 q 788 154 713 81 l 785 753 q 778 815 786 794 q 744 843 769 835 q 664 851 718 851 q 660 860 660 851 q 664 868 660 868 l 728 867 q 821 864 783 864 q 942 883 896 864 q 988 935 988 903 q 982 956 988 946 q 975 969 976 967 q 961 1007 961 992 q 976 1040 961 1028 q 1008 1051 990 1051 q 1049 1031 1035 1051 q 1064 979 1064 1010 q 1023 900 1064 926 q 949 864 982 874 q 908 851 915 854 m 528 901 q 522 899 531 899 q 511 901 514 899 q 507 928 507 917 q 515 965 507 949 q 539 1007 524 982 q 562 1044 554 1031 q 568 1076 569 1058 q 549 1118 568 1103 q 506 1133 531 1133 q 469 1126 486 1133 l 467 1125 q 460 1130 463 1125 q 461 1138 457 1135 q 546 1163 501 1163 q 609 1142 586 1163 q 632 1092 632 1122 q 618 1049 631 1067 q 576 1000 606 1031 q 538 958 551 976 q 525 918 525 939 q 528 901 525 913 z "},"Ữ":{"ha":1042,"x_min":46,"x_max":1064,"o":"m 908 851 q 867 824 875 843 q 860 756 860 806 l 860 113 q 869 51 860 71 q 906 24 879 31 q 993 17 933 17 q 998 8 997 17 q 993 0 999 0 l 878 1 l 811 0 q 792 4 796 0 q 788 26 789 8 l 788 129 q 633 18 707 53 q 476 -17 560 -17 q 315 17 386 -17 q 203 113 243 50 q 164 258 164 175 l 164 756 q 154 817 163 797 q 122 844 146 836 q 49 851 99 851 q 46 860 46 851 q 49 868 46 868 l 110 867 q 197 864 163 864 q 289 867 233 864 l 351 868 q 354 860 354 868 q 351 851 354 851 q 278 843 301 851 q 246 815 254 835 q 236 753 238 794 l 238 307 q 308 92 238 165 q 506 18 378 18 q 646 49 579 18 q 788 154 713 81 l 785 753 q 778 815 786 794 q 744 843 769 835 q 664 851 718 851 q 660 860 660 851 q 664 868 660 868 l 728 867 q 821 864 783 864 q 942 883 896 864 q 988 935 988 903 q 982 956 988 946 q 975 969 976 967 q 961 1007 961 992 q 976 1040 961 1028 q 1008 1051 990 1051 q 1049 1031 1035 1051 q 1064 979 1064 1010 q 1023 900 1064 926 q 949 864 982 874 q 908 851 915 854 m 350 1001 q 343 1005 347 1001 q 340 1011 339 1008 q 386 1066 360 1042 q 444 1090 413 1090 q 518 1076 465 1090 q 625 1057 582 1057 q 661 1067 649 1057 q 686 1094 674 1076 l 688 1094 q 696 1091 692 1094 q 697 1085 700 1088 q 650 1021 671 1038 q 603 1004 629 1004 q 560 1009 583 1004 q 514 1021 536 1014 q 464 1033 490 1028 q 414 1039 438 1039 q 382 1032 393 1039 q 363 1015 371 1025 q 351 1001 356 1006 l 350 1001 z "},"Ű":{"ha":1042,"x_min":46,"x_max":997,"o":"m 993 17 q 998 8 997 17 q 993 0 999 0 l 878 1 l 811 0 q 792 5 796 0 q 788 26 788 10 l 788 129 q 633 18 707 53 q 475 -17 560 -17 q 315 17 386 -17 q 204 113 244 50 q 164 258 164 175 l 164 756 q 154 817 163 797 q 122 844 146 836 q 49 851 99 851 q 46 860 46 851 q 49 868 46 868 l 110 867 q 197 864 163 864 q 289 867 233 864 l 351 868 q 354 860 354 868 q 351 851 354 851 q 278 843 301 851 q 246 815 254 835 q 236 753 238 794 l 238 307 q 306 94 238 169 q 504 18 375 18 q 647 49 581 18 q 788 154 713 79 l 785 753 q 778 815 786 794 q 747 843 771 835 q 672 851 724 851 q 669 860 669 851 q 672 868 669 868 l 733 867 q 822 864 789 864 q 913 867 854 864 l 975 868 q 978 860 978 868 q 975 851 978 851 q 901 844 925 851 q 869 817 878 836 q 860 756 860 797 l 860 113 q 869 51 860 71 q 906 24 879 31 q 993 17 933 17 m 401 933 q 394 940 396 933 q 397 949 393 946 l 503 1051 l 554 1101 q 583 1099 560 1104 q 623 1085 606 1093 q 631 1074 640 1076 q 514 1012 567 1044 q 404 935 461 979 l 401 933 m 564 933 q 557 940 558 933 q 560 949 556 946 l 665 1051 l 717 1101 q 745 1099 722 1104 q 785 1085 768 1093 q 793 1074 803 1076 q 676 1012 729 1044 q 567 935 624 979 l 564 933 z "},"Ū":{"ha":1042,"x_min":46,"x_max":997,"o":"m 993 17 q 998 8 997 17 q 993 0 999 0 l 878 1 l 811 0 q 792 5 796 0 q 788 26 788 10 l 788 129 q 633 18 707 53 q 475 -17 560 -17 q 315 17 386 -17 q 204 113 244 50 q 164 258 164 175 l 164 756 q 154 817 163 797 q 122 844 146 836 q 49 851 99 851 q 46 860 46 851 q 49 868 46 868 l 110 867 q 197 864 163 864 q 289 867 233 864 l 351 868 q 354 860 354 868 q 351 851 354 851 q 278 843 301 851 q 246 815 254 835 q 236 753 238 794 l 238 307 q 306 94 238 169 q 504 18 375 18 q 647 49 581 18 q 788 154 713 79 l 785 753 q 778 815 786 794 q 747 843 771 835 q 672 851 724 851 q 669 860 669 851 q 672 868 669 868 l 733 867 q 822 864 789 864 q 913 867 854 864 l 975 868 q 978 860 978 868 q 975 851 978 851 q 901 844 925 851 q 869 817 878 836 q 860 756 860 797 l 860 113 q 869 51 860 71 q 906 24 879 31 q 993 17 933 17 m 353 999 q 348 1004 350 999 q 346 1017 346 1010 q 353 1035 346 1035 l 686 1035 q 693 1017 693 1035 q 686 999 693 999 l 353 999 z "},"Ų":{"ha":1042,"x_min":46,"x_max":999,"o":"m 993 17 q 998 8 997 17 q 993 0 999 0 l 878 1 l 811 0 l 806 0 q 724 -108 753 -57 q 696 -208 696 -158 q 723 -309 696 -274 q 804 -344 750 -344 q 847 -335 831 -344 q 883 -307 863 -326 l 885 -307 q 895 -312 890 -307 q 897 -319 900 -317 q 771 -382 836 -382 q 679 -346 714 -382 q 643 -249 644 -310 q 789 8 644 -146 q 788 26 788 13 l 788 129 q 633 18 707 53 q 475 -17 560 -17 q 315 17 386 -17 q 204 113 244 50 q 164 258 164 175 l 164 756 q 154 817 163 797 q 122 844 146 836 q 49 851 99 851 q 46 860 46 851 q 49 868 46 868 l 110 867 q 197 864 163 864 q 289 867 233 864 l 351 868 q 354 860 354 868 q 351 851 354 851 q 278 843 301 851 q 246 815 254 835 q 236 753 238 794 l 238 307 q 306 94 238 169 q 504 18 375 18 q 647 49 581 18 q 788 154 713 79 l 785 753 q 778 815 786 794 q 747 843 771 835 q 672 851 724 851 q 669 860 669 851 q 672 868 669 868 l 733 867 q 822 864 789 864 q 913 867 854 864 l 975 868 q 978 860 978 868 q 975 851 978 851 q 901 844 925 851 q 869 817 878 836 q 860 756 860 797 l 860 113 q 869 51 860 71 q 906 24 879 31 q 993 17 933 17 z "},"Ů":{"ha":1042,"x_min":46,"x_max":997,"o":"m 993 17 q 998 8 997 17 q 993 0 999 0 l 878 1 l 811 0 q 792 5 796 0 q 788 26 788 10 l 788 129 q 633 18 707 53 q 475 -17 560 -17 q 315 17 386 -17 q 204 113 244 50 q 164 258 164 175 l 164 756 q 154 817 163 797 q 122 844 146 836 q 49 851 99 851 q 46 860 46 851 q 49 868 46 868 l 110 867 q 197 864 163 864 q 289 867 233 864 l 351 868 q 354 860 354 868 q 351 851 354 851 q 278 843 301 851 q 246 815 254 835 q 236 753 238 794 l 238 307 q 306 94 238 169 q 504 18 375 18 q 647 49 581 18 q 788 154 713 79 l 785 753 q 778 815 786 794 q 747 843 771 835 q 672 851 724 851 q 669 860 669 851 q 672 868 669 868 l 733 867 q 822 864 789 864 q 913 867 854 864 l 975 868 q 978 860 978 868 q 975 851 978 851 q 901 844 925 851 q 869 817 878 836 q 860 756 860 797 l 860 113 q 869 51 860 71 q 906 24 879 31 q 993 17 933 17 m 504 924 q 421 957 453 924 q 389 1035 389 990 q 429 1113 389 1085 q 518 1142 469 1142 q 599 1110 565 1142 q 633 1032 633 1078 q 594 953 633 983 q 504 924 554 924 m 526 938 q 567 954 554 938 q 579 1007 579 971 q 553 1093 579 1057 q 490 1129 528 1129 q 453 1113 464 1129 q 442 1063 442 1097 q 465 976 442 1015 q 526 938 488 938 z "},"Ũ":{"ha":1042,"x_min":46,"x_max":997,"o":"m 993 17 q 998 8 997 17 q 993 0 999 0 l 878 1 l 811 0 q 792 5 796 0 q 788 26 788 10 l 788 129 q 633 18 707 53 q 475 -17 560 -17 q 315 17 386 -17 q 204 113 244 50 q 164 258 164 175 l 164 756 q 154 817 163 797 q 122 844 146 836 q 49 851 99 851 q 46 860 46 851 q 49 868 46 868 l 110 867 q 197 864 163 864 q 289 867 233 864 l 351 868 q 354 860 354 868 q 351 851 354 851 q 278 843 301 851 q 246 815 254 835 q 236 753 238 794 l 238 307 q 306 94 238 169 q 504 18 375 18 q 647 49 581 18 q 788 154 713 79 l 785 753 q 778 815 786 794 q 747 843 771 835 q 672 851 724 851 q 669 860 669 851 q 672 868 669 868 l 733 867 q 822 864 789 864 q 913 867 854 864 l 975 868 q 978 860 978 868 q 975 851 978 851 q 901 844 925 851 q 869 817 878 836 q 860 756 860 797 l 860 113 q 869 51 860 71 q 906 24 879 31 q 993 17 933 17 m 347 968 q 339 972 343 968 q 338 978 335 975 q 439 1058 385 1058 q 514 1043 463 1058 q 621 1024 581 1024 q 656 1033 644 1024 q 683 1061 668 1042 l 685 1061 q 692 1058 688 1061 q 694 1051 696 1054 q 647 988 667 1004 q 600 972 626 972 q 547 979 575 972 q 513 988 519 986 q 410 1006 453 1006 q 376 998 388 1006 q 358 981 365 990 q 349 968 351 971 l 347 968 z "},"V":{"ha":888,"x_min":3,"x_max":886,"o":"m 881 868 q 886 860 886 868 q 881 851 886 851 q 806 831 836 851 q 756 756 775 811 l 471 1 q 457 -4 469 -4 q 440 1 442 -4 l 121 753 q 74 829 100 807 q 8 851 49 851 q 3 860 4 851 q 8 868 3 868 l 63 867 q 117 864 101 864 q 207 867 154 864 l 263 868 q 268 860 268 868 q 263 851 268 851 q 182 807 182 851 q 192 767 182 788 l 482 96 l 726 764 q 735 804 735 788 q 712 840 735 829 q 635 851 689 851 q 632 860 632 851 q 635 868 632 868 l 686 867 q 764 864 731 864 q 824 867 790 864 l 881 868 z "},"W":{"ha":1238,"x_min":3,"x_max":1236,"o":"m 1229 868 q 1236 860 1236 868 q 1229 851 1236 851 q 1155 831 1185 851 q 1104 756 1125 811 l 818 1 q 806 -4 818 -4 q 792 1 793 -4 l 621 400 l 471 1 q 456 -4 469 -4 q 440 1 442 -4 l 121 753 q 74 829 100 807 q 8 851 49 851 q 3 860 3 851 q 8 868 3 868 l 63 867 q 117 864 101 864 q 207 867 154 864 l 263 868 q 268 860 268 868 q 263 851 268 851 q 182 807 182 851 q 192 767 182 788 l 482 96 l 607 432 l 469 753 q 422 830 447 808 q 356 851 397 851 q 350 860 350 851 q 356 868 350 868 l 410 867 q 467 864 449 864 q 531 867 494 864 l 567 868 q 574 860 574 868 q 567 851 574 851 q 531 848 542 851 q 521 832 521 844 q 543 767 521 813 l 649 521 l 738 764 q 750 814 750 796 q 735 842 750 833 q 689 851 721 851 q 683 860 683 851 q 689 868 683 868 l 722 867 q 774 864 753 864 q 833 867 797 864 l 889 868 q 894 860 893 868 q 889 851 894 851 q 815 831 844 851 q 764 756 785 811 l 663 488 l 831 96 l 1079 764 q 1088 804 1088 788 q 1064 840 1088 829 q 985 851 1040 851 q 978 860 979 851 q 983 868 978 868 l 1036 867 q 1114 864 1081 864 q 1174 867 1140 864 l 1229 868 z "},"Ẃ":{"ha":1238,"x_min":3,"x_max":1236,"o":"m 1229 868 q 1236 860 1236 868 q 1229 851 1236 851 q 1155 831 1185 851 q 1104 756 1125 811 l 818 1 q 806 -4 818 -4 q 792 1 793 -4 l 621 400 l 471 1 q 456 -4 469 -4 q 440 1 442 -4 l 121 753 q 74 829 100 807 q 8 851 49 851 q 3 860 3 851 q 8 868 3 868 l 63 867 q 117 864 101 864 q 207 867 154 864 l 263 868 q 268 860 268 868 q 263 851 268 851 q 182 807 182 851 q 192 767 182 788 l 482 96 l 607 432 l 469 753 q 422 830 447 808 q 356 851 397 851 q 350 860 350 851 q 356 868 350 868 l 410 867 q 467 864 449 864 q 531 867 494 864 l 567 868 q 574 860 574 868 q 567 851 574 851 q 531 848 542 851 q 521 832 521 844 q 543 767 521 813 l 649 521 l 738 764 q 750 814 750 796 q 735 842 750 833 q 689 851 721 851 q 683 860 683 851 q 689 868 683 868 l 722 867 q 774 864 753 864 q 833 867 797 864 l 889 868 q 894 860 893 868 q 889 851 894 851 q 815 831 844 851 q 764 756 785 811 l 663 488 l 831 96 l 1079 764 q 1088 804 1088 788 q 1064 840 1088 829 q 985 851 1040 851 q 978 860 979 851 q 983 868 978 868 l 1036 867 q 1114 864 1081 864 q 1174 867 1140 864 l 1229 868 m 542 942 q 533 948 536 942 q 535 957 531 954 q 693 1050 590 985 q 750 1086 722 1071 q 781 1081 756 1089 q 824 1062 806 1072 q 833 1050 843 1051 q 544 943 685 1011 l 542 942 z "},"Ŵ":{"ha":1238,"x_min":3,"x_max":1236,"o":"m 1229 868 q 1236 860 1236 868 q 1229 851 1236 851 q 1155 831 1185 851 q 1104 756 1125 811 l 818 1 q 806 -4 818 -4 q 792 1 793 -4 l 621 400 l 471 1 q 456 -4 469 -4 q 440 1 442 -4 l 121 753 q 74 829 100 807 q 8 851 49 851 q 3 860 3 851 q 8 868 3 868 l 63 867 q 117 864 101 864 q 207 867 154 864 l 263 868 q 268 860 268 868 q 263 851 268 851 q 182 807 182 851 q 192 767 182 788 l 482 96 l 607 432 l 469 753 q 422 830 447 808 q 356 851 397 851 q 350 860 350 851 q 356 868 350 868 l 410 867 q 467 864 449 864 q 531 867 494 864 l 567 868 q 574 860 574 868 q 567 851 574 851 q 531 848 542 851 q 521 832 521 844 q 543 767 521 813 l 649 521 l 738 764 q 750 814 750 796 q 735 842 750 833 q 689 851 721 851 q 683 860 683 851 q 689 868 683 868 l 722 867 q 774 864 753 864 q 833 867 797 864 l 889 868 q 894 860 893 868 q 889 851 894 851 q 815 831 844 851 q 764 756 785 811 l 663 488 l 831 96 l 1079 764 q 1088 804 1088 788 q 1064 840 1088 829 q 985 851 1040 851 q 978 860 979 851 q 983 868 978 868 l 1036 867 q 1114 864 1081 864 q 1174 867 1140 864 l 1229 868 m 503 917 q 495 920 499 917 q 494 926 492 924 l 617 1054 q 629 1061 621 1061 q 643 1054 636 1061 l 765 926 l 765 924 q 763 917 765 919 q 757 917 760 914 l 625 1003 l 504 917 l 503 917 z "},"Ẅ":{"ha":1238,"x_min":3,"x_max":1236,"o":"m 1229 868 q 1236 860 1236 868 q 1229 851 1236 851 q 1155 831 1185 851 q 1104 756 1125 811 l 818 1 q 806 -4 818 -4 q 792 1 793 -4 l 621 400 l 471 1 q 456 -4 469 -4 q 440 1 442 -4 l 121 753 q 74 829 100 807 q 8 851 49 851 q 3 860 3 851 q 8 868 3 868 l 63 867 q 117 864 101 864 q 207 867 154 864 l 263 868 q 268 860 268 868 q 263 851 268 851 q 182 807 182 851 q 192 767 182 788 l 482 96 l 607 432 l 469 753 q 422 830 447 808 q 356 851 397 851 q 350 860 350 851 q 356 868 350 868 l 410 867 q 467 864 449 864 q 531 867 494 864 l 567 868 q 574 860 574 868 q 567 851 574 851 q 531 848 542 851 q 521 832 521 844 q 543 767 521 813 l 649 521 l 738 764 q 750 814 750 796 q 735 842 750 833 q 689 851 721 851 q 683 860 683 851 q 689 868 683 868 l 722 867 q 774 864 753 864 q 833 867 797 864 l 889 868 q 894 860 893 868 q 889 851 894 851 q 815 831 844 851 q 764 756 785 811 l 663 488 l 831 96 l 1079 764 q 1088 804 1088 788 q 1064 840 1088 829 q 985 851 1040 851 q 978 860 979 851 q 983 868 978 868 l 1036 867 q 1114 864 1081 864 q 1174 867 1140 864 l 1229 868 m 524 1000 q 483 1014 499 1000 q 468 1053 468 1028 q 483 1092 468 1078 q 524 1106 499 1106 q 564 1092 550 1106 q 578 1053 578 1078 q 564 1014 578 1028 q 524 1000 550 1000 m 731 1000 q 690 1014 704 1000 q 675 1053 675 1028 q 690 1092 675 1078 q 731 1106 704 1106 q 769 1092 756 1106 q 783 1053 783 1078 q 769 1014 783 1028 q 731 1000 756 1000 z "},"Ẁ":{"ha":1238,"x_min":3,"x_max":1236,"o":"m 1229 868 q 1236 860 1236 868 q 1229 851 1236 851 q 1155 831 1185 851 q 1104 756 1125 811 l 818 1 q 806 -4 818 -4 q 792 1 793 -4 l 621 400 l 471 1 q 456 -4 469 -4 q 440 1 442 -4 l 121 753 q 74 829 100 807 q 8 851 49 851 q 3 860 3 851 q 8 868 3 868 l 63 867 q 117 864 101 864 q 207 867 154 864 l 263 868 q 268 860 268 868 q 263 851 268 851 q 182 807 182 851 q 192 767 182 788 l 482 96 l 607 432 l 469 753 q 422 830 447 808 q 356 851 397 851 q 350 860 350 851 q 356 868 350 868 l 410 867 q 467 864 449 864 q 531 867 494 864 l 567 868 q 574 860 574 868 q 567 851 574 851 q 531 848 542 851 q 521 832 521 844 q 543 767 521 813 l 649 521 l 738 764 q 750 814 750 796 q 735 842 750 833 q 689 851 721 851 q 683 860 683 851 q 689 868 683 868 l 722 867 q 774 864 753 864 q 833 867 797 864 l 889 868 q 894 860 893 868 q 889 851 894 851 q 815 831 844 851 q 764 756 785 811 l 663 488 l 831 96 l 1079 764 q 1088 804 1088 788 q 1064 840 1088 829 q 985 851 1040 851 q 978 860 979 851 q 983 868 978 868 l 1036 867 q 1114 864 1081 864 q 1174 867 1140 864 l 1229 868 m 758 943 q 481 1050 618 1013 q 490 1062 471 1051 q 534 1081 508 1072 q 565 1086 560 1089 q 594 1067 585 1072 q 763 957 683 1001 q 767 951 767 956 q 764 944 767 947 q 758 943 761 942 z "},"X":{"ha":869,"x_min":22,"x_max":850,"o":"m 844 17 q 850 8 850 17 q 844 0 850 0 q 790 1 810 0 l 719 3 l 618 1 q 556 0 594 0 q 549 8 549 0 q 556 17 549 17 q 611 22 593 17 q 629 42 629 28 q 617 71 629 53 l 411 401 l 228 128 q 200 60 200 85 q 275 17 200 17 q 279 8 279 17 q 275 0 279 0 q 218 1 238 0 l 131 3 l 76 1 q 28 0 61 0 q 22 8 22 0 q 28 17 22 17 q 116 45 72 17 q 199 128 160 74 l 399 424 l 194 753 q 129 829 163 807 q 49 851 96 851 q 43 860 43 851 q 49 868 43 868 q 97 865 64 868 l 143 864 q 254 867 190 864 l 319 868 q 326 860 326 868 q 319 851 326 851 q 265 846 282 851 q 247 826 247 840 q 260 796 247 815 l 453 483 l 614 728 q 646 807 646 776 q 575 851 646 851 q 569 860 569 851 q 574 868 568 868 l 632 867 q 719 864 679 864 q 772 867 739 864 l 818 868 q 825 860 825 868 q 818 851 825 851 q 728 819 774 851 q 644 726 683 786 l 465 464 l 682 115 q 752 38 717 60 q 844 17 788 17 z "},"Y":{"ha":789,"x_min":-10,"x_max":800,"o":"m 794 868 q 800 860 800 868 q 794 851 800 851 q 619 726 697 851 l 435 429 l 435 113 q 444 50 436 69 q 475 24 453 31 q 549 17 497 17 q 556 8 556 17 q 549 0 556 0 q 488 1 510 0 l 400 3 l 308 1 q 246 0 286 0 q 240 8 240 0 q 246 17 240 17 q 322 24 297 17 q 355 51 346 31 q 364 113 364 71 l 363 417 l 140 753 q 74 829 106 807 q -6 851 42 851 q -10 860 -10 851 q -6 868 -10 868 q 43 865 10 868 l 89 864 q 194 867 131 864 l 261 868 q 268 860 268 868 q 261 851 268 851 q 207 846 224 851 q 190 826 190 840 q 204 796 190 814 l 425 454 l 588 728 q 615 806 615 776 q 547 851 615 851 q 542 860 542 851 q 547 868 542 868 l 607 867 q 692 864 654 864 q 747 867 714 864 l 794 868 z "},"Ý":{"ha":789,"x_min":-10,"x_max":800,"o":"m 794 868 q 800 860 800 868 q 794 851 800 851 q 619 726 697 851 l 435 429 l 435 113 q 444 50 436 69 q 475 24 453 31 q 549 17 497 17 q 556 8 556 17 q 549 0 556 0 q 488 1 510 0 l 400 3 l 308 1 q 246 0 286 0 q 240 8 240 0 q 246 17 240 17 q 322 24 297 17 q 355 51 346 31 q 364 113 364 71 l 363 417 l 140 753 q 74 829 106 807 q -6 851 42 851 q -10 860 -10 851 q -6 868 -10 868 q 43 865 10 868 l 89 864 q 194 867 131 864 l 261 868 q 268 860 268 868 q 261 851 268 851 q 207 846 224 851 q 190 826 190 840 q 204 796 190 814 l 425 454 l 588 728 q 615 806 615 776 q 547 851 615 851 q 542 860 542 851 q 547 868 542 868 l 607 867 q 692 864 654 864 q 747 867 714 864 l 794 868 m 315 942 q 307 948 310 942 q 308 957 304 954 q 467 1050 364 985 q 524 1086 496 1071 q 554 1081 529 1089 q 598 1062 579 1072 q 607 1050 617 1051 q 318 943 458 1011 l 315 942 z "},"Ŷ":{"ha":789,"x_min":-10,"x_max":800,"o":"m 794 868 q 800 860 800 868 q 794 851 800 851 q 619 726 697 851 l 435 429 l 435 113 q 444 50 436 69 q 475 24 453 31 q 549 17 497 17 q 556 8 556 17 q 549 0 556 0 q 488 1 510 0 l 400 3 l 308 1 q 246 0 286 0 q 240 8 240 0 q 246 17 240 17 q 322 24 297 17 q 355 51 346 31 q 364 113 364 71 l 363 417 l 140 753 q 74 829 106 807 q -6 851 42 851 q -10 860 -10 851 q -6 868 -10 868 q 43 865 10 868 l 89 864 q 194 867 131 864 l 261 868 q 268 860 268 868 q 261 851 268 851 q 207 846 224 851 q 190 826 190 840 q 204 796 190 814 l 425 454 l 588 728 q 615 806 615 776 q 547 851 615 851 q 542 860 542 851 q 547 868 542 868 l 607 867 q 692 864 654 864 q 747 867 714 864 l 794 868 m 276 917 q 269 920 272 917 q 268 926 265 924 l 390 1054 q 403 1061 394 1061 q 417 1054 410 1061 l 539 926 l 539 924 q 536 917 539 919 q 531 917 533 914 l 399 1003 l 278 917 l 276 917 z "},"Ÿ":{"ha":789,"x_min":-10,"x_max":800,"o":"m 794 868 q 800 860 800 868 q 794 851 800 851 q 619 726 697 851 l 435 429 l 435 113 q 444 50 436 69 q 475 24 453 31 q 549 17 497 17 q 556 8 556 17 q 549 0 556 0 q 488 1 510 0 l 400 3 l 308 1 q 246 0 286 0 q 240 8 240 0 q 246 17 240 17 q 322 24 297 17 q 355 51 346 31 q 364 113 364 71 l 363 417 l 140 753 q 74 829 106 807 q -6 851 42 851 q -10 860 -10 851 q -6 868 -10 868 q 43 865 10 868 l 89 864 q 194 867 131 864 l 261 868 q 268 860 268 868 q 261 851 268 851 q 207 846 224 851 q 190 826 190 840 q 204 796 190 814 l 425 454 l 588 728 q 615 806 615 776 q 547 851 615 851 q 542 860 542 851 q 547 868 542 868 l 607 867 q 692 864 654 864 q 747 867 714 864 l 794 868 m 297 1000 q 257 1014 272 1000 q 242 1053 242 1028 q 257 1092 242 1078 q 297 1106 272 1106 q 338 1092 324 1106 q 351 1053 351 1078 q 338 1014 351 1028 q 297 1000 324 1000 m 504 1000 q 463 1014 478 1000 q 449 1053 449 1028 q 463 1092 449 1078 q 504 1106 478 1106 q 543 1092 529 1106 q 557 1053 557 1078 q 543 1014 557 1028 q 504 1000 529 1000 z "},"Ẏ":{"ha":789,"x_min":-10,"x_max":800,"o":"m 794 868 q 800 860 800 868 q 794 851 800 851 q 619 726 697 851 l 435 429 l 435 113 q 444 50 436 69 q 475 24 453 31 q 549 17 497 17 q 556 8 556 17 q 549 0 556 0 q 488 1 510 0 l 400 3 l 308 1 q 246 0 286 0 q 240 8 240 0 q 246 17 240 17 q 322 24 297 17 q 355 51 346 31 q 364 113 364 71 l 363 417 l 140 753 q 74 829 106 807 q -6 851 42 851 q -10 860 -10 851 q -6 868 -10 868 q 43 865 10 868 l 89 864 q 194 867 131 864 l 261 868 q 268 860 268 868 q 261 851 268 851 q 207 846 224 851 q 190 826 190 840 q 204 796 190 814 l 425 454 l 588 728 q 615 806 615 776 q 547 851 615 851 q 542 860 542 851 q 547 868 542 868 l 607 867 q 692 864 654 864 q 747 867 714 864 l 794 868 m 400 981 q 360 995 375 981 q 344 1035 344 1010 q 360 1072 344 1058 q 400 1086 375 1086 q 440 1072 426 1086 q 454 1035 454 1058 q 440 994 454 1008 q 400 981 426 981 z "},"Ỵ":{"ha":789,"x_min":-10,"x_max":800,"o":"m 794 868 q 800 860 800 868 q 794 851 800 851 q 619 726 697 851 l 435 429 l 435 113 q 444 50 436 69 q 475 24 453 31 q 549 17 497 17 q 556 8 556 17 q 549 0 556 0 q 488 1 510 0 l 400 3 l 308 1 q 246 0 286 0 q 240 8 240 0 q 246 17 240 17 q 322 24 297 17 q 355 51 346 31 q 364 113 364 71 l 363 417 l 140 753 q 74 829 106 807 q -6 851 42 851 q -10 860 -10 851 q -6 868 -10 868 q 43 865 10 868 l 89 864 q 194 867 131 864 l 261 868 q 268 860 268 868 q 261 851 268 851 q 207 846 224 851 q 190 826 190 840 q 204 796 190 814 l 425 454 l 588 728 q 615 806 615 776 q 547 851 615 851 q 542 860 542 851 q 547 868 542 868 l 607 867 q 692 864 654 864 q 747 867 714 864 l 794 868 m 408 -257 q 367 -243 382 -257 q 353 -203 353 -229 q 367 -165 353 -179 q 408 -151 382 -151 q 447 -165 433 -151 q 461 -203 461 -179 q 447 -243 461 -229 q 408 -257 433 -257 z "},"Ỳ":{"ha":789,"x_min":-10,"x_max":800,"o":"m 794 868 q 800 860 800 868 q 794 851 800 851 q 619 726 697 851 l 435 429 l 435 113 q 444 50 436 69 q 475 24 453 31 q 549 17 497 17 q 556 8 556 17 q 549 0 556 0 q 488 1 510 0 l 400 3 l 308 1 q 246 0 286 0 q 240 8 240 0 q 246 17 240 17 q 322 24 297 17 q 355 51 346 31 q 364 113 364 71 l 363 417 l 140 753 q 74 829 106 807 q -6 851 42 851 q -10 860 -10 851 q -6 868 -10 868 q 43 865 10 868 l 89 864 q 194 867 131 864 l 261 868 q 268 860 268 868 q 261 851 268 851 q 207 846 224 851 q 190 826 190 840 q 204 796 190 814 l 425 454 l 588 728 q 615 806 615 776 q 547 851 615 851 q 542 860 542 851 q 547 868 542 868 l 607 867 q 692 864 654 864 q 747 867 714 864 l 794 868 m 532 943 q 254 1050 392 1013 q 263 1062 244 1051 q 308 1081 282 1072 q 339 1086 333 1089 q 368 1067 358 1072 q 536 957 457 1001 q 540 951 540 956 q 538 944 540 947 q 532 943 535 942 z "},"Ỷ":{"ha":789,"x_min":-10,"x_max":800,"o":"m 794 868 q 800 860 800 868 q 794 851 800 851 q 619 726 697 851 l 435 429 l 435 113 q 444 50 436 69 q 475 24 453 31 q 549 17 497 17 q 556 8 556 17 q 549 0 556 0 q 488 1 510 0 l 400 3 l 308 1 q 246 0 286 0 q 240 8 240 0 q 246 17 240 17 q 322 24 297 17 q 355 51 346 31 q 364 113 364 71 l 363 417 l 140 753 q 74 829 106 807 q -6 851 42 851 q -10 860 -10 851 q -6 868 -10 868 q 43 865 10 868 l 89 864 q 194 867 131 864 l 261 868 q 268 860 268 868 q 261 851 268 851 q 207 846 224 851 q 190 826 190 840 q 204 796 190 814 l 425 454 l 588 728 q 615 806 615 776 q 547 851 615 851 q 542 860 542 851 q 547 868 542 868 l 607 867 q 692 864 654 864 q 747 867 714 864 l 794 868 m 407 901 q 401 899 410 899 q 390 901 393 899 q 386 928 386 917 q 394 965 386 949 q 418 1007 403 982 q 441 1044 433 1031 q 447 1076 449 1058 q 428 1118 447 1103 q 385 1133 410 1133 q 349 1126 365 1133 l 346 1125 q 339 1130 342 1125 q 340 1138 336 1135 q 425 1163 381 1163 q 488 1142 465 1163 q 511 1092 511 1122 q 497 1049 510 1067 q 456 1000 485 1031 q 417 958 431 976 q 404 918 404 939 q 407 901 404 913 z "},"Ȳ":{"ha":789,"x_min":-10,"x_max":800,"o":"m 794 868 q 800 860 800 868 q 794 851 800 851 q 619 726 697 851 l 435 429 l 435 113 q 444 50 436 69 q 475 24 453 31 q 549 17 497 17 q 556 8 556 17 q 549 0 556 0 q 488 1 510 0 l 400 3 l 308 1 q 246 0 286 0 q 240 8 240 0 q 246 17 240 17 q 322 24 297 17 q 355 51 346 31 q 364 113 364 71 l 363 417 l 140 753 q 74 829 106 807 q -6 851 42 851 q -10 860 -10 851 q -6 868 -10 868 q 43 865 10 868 l 89 864 q 194 867 131 864 l 261 868 q 268 860 268 868 q 261 851 268 851 q 207 846 224 851 q 190 826 190 840 q 204 796 190 814 l 425 454 l 588 728 q 615 806 615 776 q 547 851 615 851 q 542 860 542 851 q 547 868 542 868 l 607 867 q 692 864 654 864 q 747 867 714 864 l 794 868 m 243 999 q 238 1004 240 999 q 236 1017 236 1010 q 243 1035 236 1035 l 576 1035 q 583 1017 583 1035 q 576 999 583 999 l 243 999 z "}}}
